<svg xmlns="http://www.w3.org/2000/svg" xmlns:xlink="http://www.w3.org/1999/xlink" width="1280" zoomAndPan="magnify" viewBox="0 0 960 599.999999" height="800" preserveAspectRatio="xMidYMid meet" version="1.0"><defs><clipPath id="2f00815807"><path d="M 369.394531 89.523438 L 543.417969 89.523438 L 543.417969 276 L 369.394531 276 Z M 369.394531 89.523438 " clip-rule="nonzero"/></clipPath><clipPath id="1597002f57"><path d="M 493.207031 109.632812 L 648.804688 109.632812 L 648.804688 275.960938 L 493.207031 275.960938 Z M 493.207031 109.632812 " clip-rule="nonzero"/></clipPath><clipPath id="3af98572cd"><path d="M 381.117188 208 L 403 208 L 403 230 L 381.117188 230 Z M 381.117188 208 " clip-rule="nonzero"/></clipPath><clipPath id="63b0b2420e"><path d="M 443 122.851562 L 465 122.851562 L 465 145 L 443 145 Z M 443 122.851562 " clip-rule="nonzero"/></clipPath><clipPath id="1bcd5a8120"><path d="M 447 215 L 477 215 L 477 243.816406 L 447 243.816406 Z M 447 215 " clip-rule="nonzero"/></clipPath><clipPath id="9c4a62709d"><path d="M 567 215 L 589.878906 215 L 589.878906 238 L 567 238 Z M 567 215 " clip-rule="nonzero"/></clipPath><clipPath id="4143b45e93"><path d="M 512.511719 252.007812 L 528.714844 252.007812 L 528.714844 276.269531 L 512.511719 276.269531 Z M 512.511719 252.007812 " clip-rule="nonzero"/></clipPath><clipPath id="662b1be7fa"><path d="M 528.308594 252.007812 L 559 252.007812 L 559 276.269531 L 528.308594 276.269531 Z M 528.308594 252.007812 " clip-rule="nonzero"/></clipPath><clipPath id="4107eb71ae"><path d="M 531.144531 240.261719 L 535 240.261719 L 535 276.269531 L 531.144531 276.269531 Z M 531.144531 240.261719 " clip-rule="nonzero"/></clipPath><clipPath id="0d6c638ae7"><path d="M 560.710938 240.261719 L 564.355469 240.261719 L 564.355469 276.269531 L 560.710938 276.269531 Z M 560.710938 240.261719 " clip-rule="nonzero"/></clipPath><clipPath id="e1991bf763"><path d="M 429.074219 240.261719 L 433 240.261719 L 433 276.269531 L 429.074219 276.269531 Z M 429.074219 240.261719 " clip-rule="nonzero"/></clipPath><clipPath id="5cc5214e30"><path d="M 582.582031 234.589844 L 609.914062 234.589844 L 609.914062 276.269531 L 582.582031 276.269531 Z M 582.582031 234.589844 " clip-rule="nonzero"/></clipPath><clipPath id="0b66cb2e24"><path d="M 573.671875 255.652344 L 580.152344 255.652344 L 580.152344 276.269531 L 573.671875 276.269531 Z M 573.671875 255.652344 " clip-rule="nonzero"/></clipPath><clipPath id="91ad53f5ff"><path d="M 579.746094 264.5625 L 582.988281 264.5625 L 582.988281 276.269531 L 579.746094 276.269531 Z M 579.746094 264.5625 " clip-rule="nonzero"/></clipPath><clipPath id="f8ada8a23b"><path d="M 445 246.335938 L 492 246.335938 L 492 276.269531 L 445 276.269531 Z M 445 246.335938 " clip-rule="nonzero"/></clipPath><clipPath id="0f367c0b3f"><path d="M 448.515625 246.335938 L 501.980469 246.335938 L 501.980469 276.269531 L 448.515625 276.269531 Z M 448.515625 246.335938 " clip-rule="nonzero"/></clipPath><clipPath id="90e71daf48"><path d="M 452.566406 268.207031 L 457.425781 268.207031 L 457.425781 276.269531 L 452.566406 276.269531 Z M 452.566406 268.207031 " clip-rule="nonzero"/></clipPath></defs><rect x="-96" width="1152" fill="#ffffff" y="-60" height="719.999999" fill-opacity="1"/><rect x="-96" width="1152" fill="#f4f4f4" y="-60" height="719.999999" fill-opacity="1"/><path fill="#1bbc9b" d="M 479.691406 273.53125 C 481.707031 273.53125 483.714844 273.433594 485.71875 273.238281 C 487.722656 273.042969 489.710938 272.75 491.6875 272.355469 C 493.660156 271.964844 495.613281 271.476562 497.539062 270.894531 C 499.46875 270.3125 501.359375 269.636719 503.222656 268.867188 C 505.082031 268.097656 506.898438 267.238281 508.675781 266.289062 C 510.453125 265.34375 512.179688 264.308594 513.851562 263.191406 C 515.527344 262.074219 517.144531 260.878906 518.699219 259.601562 C 520.257812 258.324219 521.75 256.976562 523.171875 255.550781 C 524.597656 254.128906 525.949219 252.640625 527.226562 251.085938 C 528.507812 249.53125 529.703125 247.914062 530.824219 246.242188 C 531.945312 244.570312 532.980469 242.84375 533.929688 241.070312 C 534.878906 239.292969 535.742188 237.476562 536.511719 235.617188 C 537.285156 233.757812 537.960938 231.863281 538.546875 229.9375 C 539.132812 228.011719 539.625 226.0625 540.015625 224.085938 C 540.410156 222.113281 540.707031 220.125 540.90625 218.121094 C 541.105469 216.117188 541.203125 214.109375 541.207031 212.09375 L 541.207031 92.109375 L 489.730469 92.109375 C 487.71875 92.105469 485.707031 92.207031 483.703125 92.402344 C 481.699219 92.597656 479.707031 92.894531 477.734375 93.285156 C 475.757812 93.679688 473.804688 94.167969 471.878906 94.75 C 469.953125 95.335938 468.058594 96.011719 466.195312 96.78125 C 464.335938 97.554688 462.515625 98.414062 460.738281 99.363281 C 458.964844 100.3125 457.238281 101.34375 455.5625 102.464844 C 453.886719 103.582031 452.269531 104.78125 450.714844 106.058594 C 449.15625 107.335938 447.664062 108.683594 446.242188 110.109375 C 444.816406 111.53125 443.464844 113.023438 442.1875 114.578125 C 440.910156 116.136719 439.710938 117.75 438.589844 119.425781 C 437.472656 121.101562 436.4375 122.824219 435.488281 124.601562 C 434.535156 126.378906 433.675781 128.195312 432.90625 130.058594 C 432.132812 131.917969 431.457031 133.8125 430.871094 135.738281 C 430.285156 137.667969 429.796875 139.617188 429.402344 141.59375 C 429.007812 143.566406 428.714844 145.558594 428.515625 147.5625 C 428.316406 149.566406 428.21875 151.574219 428.21875 153.589844 L 428.21875 216.9375 C 428.21875 218.789062 428.128906 220.636719 427.945312 222.484375 C 427.765625 224.328125 427.492188 226.15625 427.132812 227.976562 C 426.769531 229.792969 426.320312 231.589844 425.785156 233.363281 C 425.246094 235.136719 424.621094 236.878906 423.914062 238.589844 C 423.203125 240.304688 422.414062 241.976562 421.539062 243.613281 C 420.667969 245.246094 419.714844 246.835938 418.6875 248.375 C 417.65625 249.917969 416.554688 251.402344 415.378906 252.835938 C 414.203125 254.269531 412.960938 255.640625 411.648438 256.953125 C 410.339844 258.261719 408.96875 259.503906 407.535156 260.679688 C 406.101562 261.855469 404.617188 262.960938 403.074219 263.988281 C 401.535156 265.019531 399.949219 265.972656 398.3125 266.84375 C 396.679688 267.71875 395.003906 268.511719 393.292969 269.21875 C 391.582031 269.929688 389.839844 270.554688 388.066406 271.09375 C 386.292969 271.628906 384.496094 272.082031 382.679688 272.441406 C 380.859375 272.804688 379.03125 273.074219 377.183594 273.257812 C 375.339844 273.4375 373.492188 273.53125 371.640625 273.53125 Z M 479.691406 273.53125 " fill-opacity="1" fill-rule="nonzero"/><g clip-path="url(#2f00815807)"><path fill="#1bbc9b" d="M 479.734375 275.851562 C 480.777344 275.847656 481.820312 275.824219 482.859375 275.769531 C 483.902344 275.71875 484.941406 275.640625 485.980469 275.539062 C 487.019531 275.433594 488.054688 275.304688 489.085938 275.152344 C 490.117188 274.996094 491.144531 274.820312 492.167969 274.613281 C 493.191406 274.410156 494.207031 274.179688 495.222656 273.925781 C 496.234375 273.671875 497.238281 273.394531 498.234375 273.089844 C 499.234375 272.785156 500.222656 272.457031 501.207031 272.105469 C 502.1875 271.753906 503.160156 271.378906 504.125 270.980469 C 505.089844 270.578125 506.042969 270.15625 506.984375 269.710938 C 507.929688 269.265625 508.859375 268.792969 509.78125 268.300781 C 510.699219 267.8125 511.605469 267.296875 512.5 266.761719 C 513.398438 266.222656 514.277344 265.664062 515.144531 265.085938 C 516.011719 264.507812 516.867188 263.90625 517.703125 263.285156 C 518.542969 262.664062 519.363281 262.019531 520.171875 261.359375 C 520.976562 260.699219 521.765625 260.015625 522.539062 259.316406 C 523.3125 258.617188 524.070312 257.894531 524.808594 257.160156 C 525.542969 256.421875 526.265625 255.667969 526.964844 254.894531 C 527.664062 254.121094 528.347656 253.332031 529.011719 252.523438 C 529.671875 251.71875 530.3125 250.898438 530.9375 250.058594 C 531.558594 249.222656 532.160156 248.371094 532.738281 247.503906 C 533.320312 246.636719 533.878906 245.753906 534.414062 244.859375 C 534.953125 243.964844 535.46875 243.058594 535.960938 242.140625 C 536.453125 241.21875 536.921875 240.289062 537.367188 239.34375 C 537.816406 238.402344 538.238281 237.449219 538.640625 236.484375 C 539.039062 235.523438 539.417969 234.550781 539.769531 233.566406 C 540.121094 232.585938 540.449219 231.597656 540.753906 230.597656 C 541.058594 229.601562 541.335938 228.59375 541.59375 227.582031 C 541.847656 226.570312 542.078125 225.554688 542.28125 224.53125 C 542.488281 223.507812 542.667969 222.480469 542.820312 221.449219 C 542.976562 220.417969 543.105469 219.382812 543.210938 218.34375 C 543.3125 217.304688 543.390625 216.265625 543.445312 215.222656 C 543.496094 214.183594 543.523438 213.140625 543.527344 212.097656 L 543.527344 92.109375 C 543.527344 91.800781 543.46875 91.503906 543.351562 91.21875 C 543.230469 90.9375 543.0625 90.683594 542.847656 90.46875 C 542.628906 90.25 542.378906 90.082031 542.09375 89.964844 C 541.808594 89.847656 541.515625 89.789062 541.207031 89.789062 L 489.714844 89.789062 C 488.671875 89.789062 487.628906 89.816406 486.585938 89.867188 C 485.542969 89.921875 484.503906 89.996094 483.464844 90.101562 C 482.425781 90.203125 481.390625 90.332031 480.355469 90.488281 C 479.324219 90.640625 478.296875 90.820312 477.273438 91.023438 C 476.25 91.230469 475.230469 91.460938 474.21875 91.714844 C 473.207031 91.96875 472.199219 92.246094 471.199219 92.550781 C 470.203125 92.855469 469.210938 93.183594 468.230469 93.535156 C 467.246094 93.886719 466.273438 94.261719 465.308594 94.664062 C 464.34375 95.0625 463.390625 95.484375 462.445312 95.933594 C 461.503906 96.378906 460.570312 96.847656 459.652344 97.339844 C 458.730469 97.832031 457.820312 98.347656 456.925781 98.886719 C 456.03125 99.421875 455.148438 99.980469 454.28125 100.5625 C 453.414062 101.140625 452.5625 101.742188 451.722656 102.363281 C 450.882812 102.988281 450.0625 103.628906 449.253906 104.289062 C 448.449219 104.953125 447.65625 105.632812 446.882812 106.335938 C 446.109375 107.035156 445.355469 107.757812 444.617188 108.496094 C 443.878906 109.234375 443.15625 109.988281 442.457031 110.761719 C 441.753906 111.535156 441.074219 112.324219 440.410156 113.132812 C 439.75 113.9375 439.105469 114.761719 438.484375 115.601562 C 437.863281 116.4375 437.261719 117.289062 436.679688 118.160156 C 436.101562 119.027344 435.542969 119.90625 435.003906 120.804688 C 434.46875 121.699219 433.953125 122.605469 433.460938 123.527344 C 432.964844 124.445312 432.496094 125.378906 432.050781 126.320312 C 431.601562 127.265625 431.179688 128.21875 430.777344 129.183594 C 430.378906 130.148438 430.003906 131.121094 429.648438 132.105469 C 429.296875 133.085938 428.96875 134.078125 428.664062 135.074219 C 428.363281 136.074219 428.082031 137.082031 427.828125 138.09375 C 427.574219 139.105469 427.34375 140.125 427.136719 141.148438 C 426.933594 142.171875 426.753906 143.199219 426.601562 144.230469 C 426.445312 145.261719 426.316406 146.300781 426.214844 147.339844 C 426.109375 148.375 426.03125 149.417969 425.980469 150.460938 C 425.925781 151.503906 425.898438 152.546875 425.898438 153.589844 L 425.898438 216.9375 C 425.894531 218.710938 425.808594 220.484375 425.632812 222.253906 C 425.457031 224.019531 425.195312 225.777344 424.847656 227.519531 C 424.5 229.261719 424.066406 230.980469 423.550781 232.683594 C 423.03125 234.382812 422.433594 236.054688 421.753906 237.695312 C 421.074219 239.335938 420.3125 240.9375 419.476562 242.507812 C 418.636719 244.074219 417.726562 245.59375 416.738281 247.070312 C 415.75 248.550781 414.691406 249.972656 413.566406 251.347656 C 412.4375 252.722656 411.246094 254.035156 409.992188 255.292969 C 408.734375 256.550781 407.421875 257.742188 406.046875 258.867188 C 404.675781 259.996094 403.25 261.054688 401.773438 262.042969 C 400.296875 263.03125 398.773438 263.941406 397.207031 264.78125 C 395.640625 265.621094 394.035156 266.378906 392.394531 267.058594 C 390.753906 267.742188 389.085938 268.339844 387.382812 268.859375 C 385.683594 269.375 383.964844 269.808594 382.222656 270.15625 C 380.480469 270.503906 378.722656 270.765625 376.957031 270.941406 C 375.1875 271.117188 373.414062 271.207031 371.640625 271.210938 L 371.632812 271.210938 C 371.324219 271.210938 371.027344 271.269531 370.742188 271.386719 C 370.460938 271.503906 370.207031 271.671875 369.992188 271.890625 C 369.773438 272.109375 369.605469 272.359375 369.488281 272.644531 C 369.371094 272.925781 369.3125 273.222656 369.3125 273.53125 C 369.3125 273.839844 369.371094 274.132812 369.488281 274.417969 C 369.605469 274.703125 369.773438 274.953125 369.992188 275.171875 C 370.207031 275.390625 370.460938 275.554688 370.742188 275.675781 C 371.027344 275.792969 371.324219 275.851562 371.632812 275.851562 Z M 538.886719 94.429688 L 538.886719 212.023438 C 538.882812 213.960938 538.789062 215.894531 538.597656 217.824219 C 538.40625 219.75 538.121094 221.664062 537.742188 223.5625 C 537.363281 225.464844 536.890625 227.339844 536.328125 229.195312 C 535.765625 231.046875 535.113281 232.871094 534.371094 234.660156 C 533.628906 236.449219 532.800781 238.195312 531.886719 239.90625 C 530.972656 241.613281 529.976562 243.273438 528.902344 244.882812 C 527.824219 246.496094 526.671875 248.050781 525.445312 249.546875 C 524.214844 251.042969 522.917969 252.476562 521.546875 253.847656 C 520.175781 255.21875 518.742188 256.519531 517.246094 257.75 C 515.75 258.976562 514.195312 260.132812 512.585938 261.207031 C 510.976562 262.285156 509.316406 263.28125 507.609375 264.195312 C 505.902344 265.109375 504.152344 265.9375 502.363281 266.683594 C 500.574219 267.425781 498.753906 268.078125 496.898438 268.640625 C 495.046875 269.207031 493.171875 269.679688 491.269531 270.058594 C 489.371094 270.4375 487.457031 270.726562 485.53125 270.917969 C 483.601562 271.109375 481.667969 271.207031 479.734375 271.210938 C 479.71875 271.210938 479.707031 271.210938 479.691406 271.210938 L 394.546875 271.210938 C 395.871094 270.648438 397.171875 270.042969 398.453125 269.386719 C 399.730469 268.730469 400.984375 268.027344 402.214844 267.28125 C 403.441406 266.535156 404.640625 265.742188 405.8125 264.90625 C 406.980469 264.070312 408.121094 263.195312 409.226562 262.277344 C 410.332031 261.359375 411.40625 260.398438 412.441406 259.402344 C 413.476562 258.40625 414.476562 257.371094 415.4375 256.304688 C 416.398438 255.234375 417.316406 254.128906 418.199219 252.992188 C 419.078125 251.855469 419.914062 250.6875 420.710938 249.488281 C 421.503906 248.292969 422.253906 247.066406 422.960938 245.8125 C 423.664062 244.558594 424.324219 243.28125 424.933594 241.980469 C 425.546875 240.679688 426.109375 239.355469 426.625 238.015625 C 427.140625 236.671875 427.605469 235.3125 428.019531 233.9375 C 428.4375 232.558594 428.800781 231.171875 429.113281 229.765625 C 429.429688 228.363281 429.691406 226.949219 429.902344 225.527344 C 430.113281 224.105469 430.269531 222.679688 430.378906 221.242188 C 430.484375 219.808594 430.535156 218.375 430.539062 216.9375 L 430.539062 153.605469 C 430.539062 151.667969 430.636719 149.734375 430.828125 147.808594 C 431.023438 145.878906 431.308594 143.964844 431.6875 142.066406 C 432.066406 140.164062 432.539062 138.289062 433.101562 136.433594 C 433.667969 134.582031 434.320312 132.757812 435.0625 130.96875 C 435.804688 129.179688 436.632812 127.429688 437.546875 125.722656 C 438.460938 124.015625 439.457031 122.355469 440.535156 120.746094 C 441.609375 119.132812 442.765625 117.582031 443.992188 116.082031 C 445.222656 114.585938 446.523438 113.152344 447.890625 111.78125 C 449.261719 110.410156 450.695312 109.113281 452.195312 107.882812 C 453.691406 106.652344 455.246094 105.5 456.855469 104.421875 C 458.464844 103.347656 460.125 102.351562 461.835938 101.4375 C 463.542969 100.523438 465.292969 99.695312 467.082031 98.953125 C 468.871094 98.207031 470.691406 97.554688 472.546875 96.992188 C 474.398438 96.429688 476.277344 95.957031 478.175781 95.578125 C 480.078125 95.195312 481.992188 94.910156 483.917969 94.71875 C 485.847656 94.527344 487.777344 94.429688 489.714844 94.429688 Z M 538.886719 94.429688 " fill-opacity="1" fill-rule="nonzero"/></g><path fill="#172738" d="M 550.164062 273.808594 C 548.367188 273.808594 546.574219 273.722656 544.785156 273.546875 C 543 273.375 541.222656 273.113281 539.460938 272.761719 C 537.699219 272.414062 535.957031 271.976562 534.238281 271.457031 C 532.519531 270.9375 530.828125 270.332031 529.171875 269.648438 C 527.511719 268.960938 525.886719 268.195312 524.300781 267.347656 C 522.71875 266.503906 521.179688 265.582031 519.683594 264.585938 C 518.191406 263.585938 516.746094 262.519531 515.359375 261.382812 C 513.96875 260.242188 512.640625 259.039062 511.367188 257.769531 C 510.097656 256.5 508.890625 255.171875 507.75 253.78125 C 506.609375 252.394531 505.539062 250.953125 504.542969 249.460938 C 503.542969 247.96875 502.621094 246.429688 501.773438 244.847656 C 500.921875 243.261719 500.15625 241.640625 499.46875 239.980469 C 498.777344 238.324219 498.171875 236.632812 497.652344 234.914062 C 497.128906 233.195312 496.691406 231.457031 496.339844 229.695312 C 495.988281 227.933594 495.722656 226.160156 495.546875 224.371094 C 495.371094 222.582031 495.28125 220.792969 495.277344 218.996094 L 495.277344 111.941406 L 541.207031 111.941406 C 543.003906 111.9375 544.796875 112.027344 546.585938 112.203125 C 548.371094 112.378906 550.148438 112.640625 551.910156 112.992188 C 553.671875 113.339844 555.414062 113.777344 557.132812 114.296875 C 558.855469 114.820312 560.542969 115.421875 562.203125 116.109375 C 563.863281 116.796875 565.488281 117.566406 567.074219 118.410156 C 568.65625 119.257812 570.199219 120.179688 571.691406 121.179688 C 573.1875 122.175781 574.628906 123.246094 576.019531 124.386719 C 577.40625 125.527344 578.738281 126.730469 580.007812 128 C 581.28125 129.269531 582.484375 130.601562 583.625 131.988281 C 584.765625 133.378906 585.835938 134.820312 586.835938 136.3125 C 587.832031 137.808594 588.757812 139.347656 589.605469 140.933594 C 590.453125 142.515625 591.21875 144.140625 591.90625 145.800781 C 592.59375 147.457031 593.199219 149.148438 593.722656 150.867188 C 594.246094 152.585938 594.679688 154.328125 595.03125 156.089844 C 595.382812 157.855469 595.648438 159.628906 595.824219 161.417969 C 596 163.207031 596.089844 165 596.089844 166.796875 L 596.089844 223.3125 C 596.089844 224.96875 596.171875 226.617188 596.332031 228.261719 C 596.492188 229.910156 596.734375 231.542969 597.058594 233.164062 C 597.378906 234.785156 597.78125 236.386719 598.261719 237.96875 C 598.742188 239.554688 599.296875 241.109375 599.929688 242.636719 C 600.5625 244.164062 601.269531 245.65625 602.046875 247.117188 C 602.828125 248.574219 603.675781 249.992188 604.59375 251.367188 C 605.511719 252.742188 606.496094 254.066406 607.546875 255.34375 C 608.59375 256.625 609.703125 257.847656 610.871094 259.015625 C 612.042969 260.1875 613.265625 261.296875 614.542969 262.34375 C 615.820312 263.394531 617.148438 264.378906 618.523438 265.296875 C 619.898438 266.214844 621.3125 267.066406 622.773438 267.84375 C 624.230469 268.625 625.722656 269.332031 627.25 269.964844 C 628.777344 270.597656 630.332031 271.152344 631.914062 271.632812 C 633.496094 272.113281 635.097656 272.515625 636.722656 272.839844 C 638.34375 273.160156 639.976562 273.402344 641.621094 273.566406 C 643.269531 273.726562 644.917969 273.808594 646.570312 273.808594 Z M 550.164062 273.808594 " fill-opacity="1" fill-rule="nonzero"/><g clip-path="url(#1597002f57)"><path fill="#172738" d="M 550.128906 275.878906 C 548.265625 275.878906 546.40625 275.785156 544.550781 275.601562 C 542.699219 275.414062 540.859375 275.140625 539.03125 274.777344 C 537.203125 274.410156 535.402344 273.957031 533.617188 273.417969 C 531.835938 272.875 530.085938 272.246094 528.363281 271.53125 C 526.644531 270.820312 524.960938 270.023438 523.320312 269.144531 C 521.675781 268.265625 520.078125 267.308594 518.53125 266.273438 C 516.980469 265.238281 515.488281 264.132812 514.046875 262.949219 C 512.609375 261.769531 511.230469 260.519531 509.910156 259.203125 C 508.59375 257.886719 507.34375 256.507812 506.160156 255.066406 C 504.976562 253.628906 503.871094 252.132812 502.832031 250.585938 C 501.796875 249.039062 500.839844 247.441406 499.960938 245.800781 C 499.082031 244.160156 498.285156 242.476562 497.570312 240.757812 C 496.855469 239.035156 496.226562 237.285156 495.683594 235.503906 C 495.140625 233.722656 494.683594 231.917969 494.320312 230.089844 C 493.953125 228.265625 493.675781 226.425781 493.492188 224.570312 C 493.304688 222.71875 493.210938 220.859375 493.207031 218.996094 L 493.207031 111.941406 C 493.207031 111.664062 493.261719 111.402344 493.367188 111.148438 C 493.472656 110.894531 493.621094 110.671875 493.816406 110.476562 C 494.007812 110.28125 494.234375 110.132812 494.488281 110.027344 C 494.742188 109.921875 495.003906 109.871094 495.277344 109.871094 L 541.21875 109.871094 C 543.082031 109.871094 544.941406 109.964844 546.796875 110.148438 C 548.652344 110.332031 550.496094 110.609375 552.320312 110.972656 C 554.148438 111.339844 555.957031 111.792969 557.738281 112.335938 C 559.523438 112.878906 561.273438 113.503906 562.996094 114.21875 C 564.71875 114.933594 566.402344 115.730469 568.042969 116.609375 C 569.6875 117.488281 571.285156 118.445312 572.835938 119.480469 C 574.382812 120.519531 575.878906 121.628906 577.320312 122.808594 C 578.761719 123.992188 580.140625 125.242188 581.460938 126.558594 C 582.777344 127.878906 584.027344 129.257812 585.210938 130.699219 C 586.394531 132.136719 587.503906 133.632812 588.539062 135.183594 C 589.574219 136.730469 590.535156 138.328125 591.414062 139.972656 C 592.292969 141.617188 593.089844 143.296875 593.804688 145.019531 C 594.519531 146.742188 595.148438 148.492188 595.691406 150.277344 C 596.234375 152.058594 596.6875 153.867188 597.054688 155.695312 C 597.417969 157.519531 597.695312 159.363281 597.878906 161.21875 C 598.0625 163.070312 598.15625 164.929688 598.160156 166.796875 L 598.160156 223.3125 C 598.160156 224.898438 598.242188 226.480469 598.398438 228.058594 C 598.554688 229.636719 598.789062 231.203125 599.097656 232.757812 C 599.40625 234.3125 599.792969 235.847656 600.253906 237.363281 C 600.714844 238.878906 601.25 240.371094 601.855469 241.835938 C 602.464844 243.300781 603.140625 244.730469 603.890625 246.128906 C 604.636719 247.527344 605.453125 248.882812 606.332031 250.203125 C 607.214844 251.519531 608.15625 252.792969 609.164062 254.015625 C 610.167969 255.242188 611.230469 256.414062 612.351562 257.535156 C 613.472656 258.65625 614.644531 259.722656 615.871094 260.726562 C 617.097656 261.734375 618.367188 262.675781 619.683594 263.558594 C 621.003906 264.441406 622.359375 265.253906 623.757812 266.003906 C 625.15625 266.75 626.585938 267.429688 628.050781 268.035156 C 629.515625 268.644531 631.003906 269.179688 632.523438 269.640625 C 634.039062 270.101562 635.574219 270.488281 637.128906 270.796875 C 638.683594 271.109375 640.25 271.34375 641.828125 271.5 C 643.402344 271.65625 644.984375 271.738281 646.570312 271.738281 L 646.578125 271.738281 C 646.851562 271.738281 647.117188 271.792969 647.371094 271.898438 C 647.625 272.003906 647.847656 272.152344 648.042969 272.34375 C 648.234375 272.539062 648.386719 272.761719 648.488281 273.015625 C 648.59375 273.269531 648.648438 273.535156 648.648438 273.808594 C 648.648438 274.082031 648.59375 274.347656 648.488281 274.601562 C 648.386719 274.855469 648.234375 275.078125 648.042969 275.273438 C 647.847656 275.46875 647.625 275.617188 647.371094 275.722656 C 647.117188 275.828125 646.851562 275.878906 646.578125 275.878906 Z M 497.347656 114.007812 L 497.347656 218.933594 C 497.351562 220.660156 497.4375 222.386719 497.605469 224.105469 C 497.777344 225.824219 498.03125 227.53125 498.371094 229.226562 C 498.710938 230.921875 499.128906 232.597656 499.632812 234.25 C 500.132812 235.90625 500.714844 237.53125 501.378906 239.128906 C 502.039062 240.722656 502.777344 242.285156 503.59375 243.808594 C 504.410156 245.332031 505.296875 246.8125 506.257812 248.25 C 507.21875 249.6875 508.246094 251.074219 509.34375 252.410156 C 510.4375 253.746094 511.597656 255.027344 512.820312 256.25 C 514.042969 257.472656 515.320312 258.632812 516.65625 259.726562 C 517.992188 260.824219 519.378906 261.855469 520.8125 262.816406 C 522.25 263.777344 523.730469 264.664062 525.253906 265.480469 C 526.777344 266.296875 528.339844 267.035156 529.933594 267.699219 C 531.53125 268.363281 533.15625 268.945312 534.808594 269.449219 C 536.464844 269.953125 538.136719 270.371094 539.832031 270.710938 C 541.527344 271.050781 543.234375 271.304688 544.953125 271.476562 C 546.675781 271.648438 548.398438 271.738281 550.128906 271.738281 C 550.140625 271.738281 550.152344 271.738281 550.164062 271.738281 L 626.132812 271.738281 C 623.765625 270.738281 621.484375 269.570312 619.292969 268.234375 C 617.097656 266.898438 615.011719 265.410156 613.035156 263.769531 C 611.058594 262.125 609.210938 260.351562 607.492188 258.4375 C 605.777344 256.527344 604.207031 254.5 602.789062 252.359375 C 601.367188 250.21875 600.113281 247.984375 599.019531 245.660156 C 597.925781 243.335938 597.007812 240.941406 596.265625 238.484375 C 595.523438 236.023438 594.964844 233.523438 594.585938 230.980469 C 594.210938 228.4375 594.023438 225.882812 594.019531 223.3125 L 594.019531 166.808594 C 594.015625 165.082031 593.929688 163.355469 593.757812 161.636719 C 593.589844 159.914062 593.332031 158.207031 592.996094 156.511719 C 592.65625 154.816406 592.234375 153.144531 591.730469 151.488281 C 591.226562 149.835938 590.644531 148.210938 589.984375 146.613281 C 589.320312 145.015625 588.582031 143.457031 587.765625 141.933594 C 586.949219 140.40625 586.0625 138.925781 585.101562 137.492188 C 584.140625 136.054688 583.113281 134.667969 582.015625 133.332031 C 580.917969 131.996094 579.757812 130.714844 578.535156 129.492188 C 577.3125 128.269531 576.035156 127.109375 574.699219 126.015625 C 573.363281 124.917969 571.976562 123.886719 570.539062 122.925781 C 569.101562 121.964844 567.621094 121.078125 566.097656 120.261719 C 564.570312 119.449219 563.011719 118.707031 561.414062 118.046875 C 559.816406 117.382812 558.191406 116.800781 556.539062 116.296875 C 554.886719 115.792969 553.210938 115.375 551.515625 115.035156 C 549.820312 114.695312 548.113281 114.441406 546.390625 114.269531 C 544.671875 114.097656 542.949219 114.011719 541.21875 114.007812 Z M 497.347656 114.007812 " fill-opacity="1" fill-rule="nonzero"/></g><path fill="#cccbc9" d="M 569.703125 168.417969 C 569.703125 174.289062 564.953125 179.050781 559.097656 179.050781 C 553.238281 179.050781 548.492188 174.289062 548.492188 168.417969 C 548.492188 162.546875 553.238281 157.789062 559.097656 157.789062 C 564.953125 157.789062 569.703125 162.546875 569.703125 168.417969 " fill-opacity="1" fill-rule="nonzero"/><g clip-path="url(#3af98572cd)"><path fill="#cccbc9" d="M 402.367188 218.851562 C 402.367188 224.726562 397.617188 229.480469 391.761719 229.480469 C 385.898438 229.480469 381.152344 224.726562 381.152344 218.851562 C 381.152344 212.984375 385.898438 208.222656 391.761719 208.222656 C 397.617188 208.222656 402.367188 212.984375 402.367188 218.851562 " fill-opacity="1" fill-rule="nonzero"/></g><g clip-path="url(#63b0b2420e)"><path fill="#cccbc9" d="M 464.578125 133.480469 C 464.578125 139.351562 459.828125 144.109375 453.972656 144.109375 C 448.109375 144.109375 443.363281 139.351562 443.363281 133.480469 C 443.363281 127.609375 448.109375 122.851562 453.972656 122.851562 C 459.828125 122.851562 464.578125 127.609375 464.578125 133.480469 " fill-opacity="1" fill-rule="nonzero"/></g><path fill="#87a1b0" d="M 507.476562 204.519531 C 507.476562 210.394531 502.730469 215.15625 496.871094 215.15625 C 491.007812 215.15625 486.265625 210.394531 486.265625 204.519531 C 486.265625 198.652344 491.007812 193.890625 496.871094 193.890625 C 502.730469 193.890625 507.476562 198.652344 507.476562 204.519531 " fill-opacity="1" fill-rule="nonzero"/><g clip-path="url(#1bcd5a8120)"><path fill="#87a1b0" d="M 476.292969 229.480469 C 476.292969 237.402344 469.894531 243.816406 462 243.816406 C 454.097656 243.816406 447.699219 237.402344 447.699219 229.480469 C 447.699219 221.570312 454.097656 215.15625 462 215.15625 C 469.894531 215.15625 476.292969 221.570312 476.292969 229.480469 " fill-opacity="1" fill-rule="nonzero"/></g><path fill="#87a1b0" d="M 511.171875 168.417969 C 511.171875 176.335938 504.765625 182.75 496.871094 182.75 C 488.96875 182.75 482.570312 176.335938 482.570312 168.417969 C 482.570312 160.507812 488.96875 154.085938 496.871094 154.085938 C 504.765625 154.085938 511.171875 160.507812 511.171875 168.417969 " fill-opacity="1" fill-rule="nonzero"/><path fill="#87a1b0" d="M 549.917969 215.15625 C 549.679688 222.1875 544.378906 227.492188 537.363281 227.730469 C 530.347656 227.96875 525.03125 221.828125 524.808594 215.15625 C 524.570312 208.125 530.699219 202.796875 537.363281 202.574219 C 544.371094 202.335938 549.6875 208.476562 549.917969 215.15625 C 549.988281 217.402344 553.480469 217.410156 553.410156 215.15625 C 553.105469 206.179688 546.3125 199.375 537.363281 199.074219 C 528.414062 198.773438 521.601562 206.636719 521.316406 215.15625 C 521.015625 224.117188 528.863281 230.945312 537.363281 231.234375 C 546.308594 231.539062 553.117188 223.671875 553.410156 215.15625 C 553.480469 212.894531 549.988281 212.902344 549.917969 215.15625 " fill-opacity="1" fill-rule="nonzero"/><path fill="#87a1b0" d="M 441.859375 200.824219 C 441.621094 207.851562 436.320312 213.167969 429.304688 213.40625 C 422.289062 213.636719 416.972656 207.496094 416.75 200.824219 C 416.511719 193.792969 422.644531 188.46875 429.304688 188.246094 C 436.316406 188.007812 441.632812 194.144531 441.859375 200.824219 C 441.933594 203.070312 445.425781 203.085938 445.351562 200.824219 C 445.046875 191.851562 438.253906 185.042969 429.304688 184.742188 C 420.355469 184.441406 413.542969 192.304688 413.257812 200.824219 C 412.957031 209.792969 420.804688 216.621094 429.304688 216.90625 C 438.25 217.207031 445.0625 209.34375 445.351562 200.824219 C 445.425781 198.570312 441.933594 198.570312 441.859375 200.824219 " fill-opacity="1" fill-rule="nonzero"/><g clip-path="url(#9c4a62709d)"><path fill="#87a1b0" d="M 589.847656 226.21875 C 589.847656 232.332031 584.90625 237.28125 578.808594 237.28125 C 572.707031 237.28125 567.769531 232.332031 567.769531 226.21875 C 567.769531 220.105469 572.707031 215.15625 578.808594 215.15625 C 584.90625 215.15625 589.847656 220.105469 589.847656 226.21875 " fill-opacity="1" fill-rule="nonzero"/></g><g clip-path="url(#4143b45e93)"><path fill="#e7edfb" d="M 512.695312 276.304688 L 528.320312 276.304688 L 528.320312 252.367188 L 512.695312 252.367188 L 512.695312 276.304688 " fill-opacity="1" fill-rule="evenodd"/></g><g clip-path="url(#662b1be7fa)"><path fill="#7a9eec" d="M 528.320312 276.304688 L 558.875 276.304688 L 558.875 252.367188 L 528.320312 252.367188 L 528.320312 276.304688 " fill-opacity="1" fill-rule="evenodd"/></g><path fill="#e7edfb" d="M 441.429688 240.507812 L 546.25 240.507812 L 546.25 235.484375 L 441.429688 235.484375 L 441.429688 240.507812 " fill-opacity="1" fill-rule="evenodd"/><path fill="#7a9eec" d="M 531.375 240.507812 L 564.960938 240.507812 L 564.960938 235.484375 L 531.375 235.484375 L 531.375 240.507812 " fill-opacity="1" fill-rule="evenodd"/><path fill="#e7edfb" d="M 521.386719 210.015625 L 528.988281 210.015625 L 537.484375 235.210938 L 529.882812 235.210938 L 521.386719 210.015625 " fill-opacity="1" fill-rule="evenodd"/><path fill="#32b1df" d="M 531.15625 210.015625 L 528.988281 210.015625 L 537.484375 235.210938 L 539.648438 235.210938 L 531.15625 210.015625 " fill-opacity="1" fill-rule="evenodd"/><path fill="#32b1df" d="M 507.820312 233.980469 L 538.835938 232.984375 L 540.136719 235.910156 C 540.257812 236.1875 533.539062 235.910156 532.789062 235.910156 L 501.84375 235.910156 C 501.558594 235.910156 501.785156 234.660156 502.078125 234.640625 L 505.828125 234.414062 C 506.6875 234.359375 507.535156 233.988281 507.820312 233.980469 " fill-opacity="1" fill-rule="evenodd"/><path fill="#e7edfb" d="M 507.742188 232.976562 L 538.839844 232.976562 C 539.082031 232.976562 538.613281 233.167969 537.800781 233.414062 L 535.082031 234.214844 C 534.269531 234.449219 533.410156 234.648438 533.171875 234.648438 L 502.074219 234.648438 C 501.832031 234.648438 502.296875 234.449219 503.113281 234.214844 L 505.828125 233.414062 C 506.640625 233.167969 507.503906 232.976562 507.742188 232.976562 " fill-opacity="1" fill-rule="evenodd"/><g clip-path="url(#4107eb71ae)"><path fill="#000000" d="M 531.375 276.195312 L 534.976562 276.195312 L 534.976562 240.507812 L 531.375 240.507812 L 531.375 276.195312 " fill-opacity="1" fill-rule="evenodd"/></g><g clip-path="url(#0d6c638ae7)"><path fill="#000000" d="M 560.734375 276.195312 L 564.339844 276.195312 L 564.339844 240.507812 L 560.734375 240.507812 L 560.734375 276.195312 " fill-opacity="1" fill-rule="evenodd"/></g><g clip-path="url(#e1991bf763)"><path fill="#000000" d="M 429.320312 276.195312 L 432.925781 276.195312 L 432.925781 240.507812 L 429.320312 240.507812 L 429.320312 276.195312 " fill-opacity="1" fill-rule="evenodd"/></g><path fill="#2bb874" d="M 579.671875 255.378906 C 579.671875 255.378906 576.945312 250.863281 574.171875 248.195312 C 571.402344 245.535156 568.023438 239.617188 568.519531 235.808594 C 569.019531 232.007812 569.191406 230.652344 567.871094 228.871094 C 566.554688 227.085938 568.007812 222.746094 570.019531 218.984375 C 572.035156 215.226562 572.089844 215.476562 572.359375 211.691406 C 572.632812 207.910156 571.390625 206.117188 572.332031 206.726562 C 573.28125 207.339844 581.242188 214.917969 581.605469 219.46875 C 581.96875 224.019531 581.074219 224.871094 582.625 227.589844 C 584.179688 230.304688 584.496094 235.496094 582.320312 240.484375 C 580.140625 245.464844 579.152344 254.5625 579.671875 255.378906 " fill-opacity="1" fill-rule="evenodd"/><path fill="#000000" d="M 579.875 267.34375 C 579.582031 262.527344 580.035156 258.722656 578.503906 253.984375 C 577.230469 250.042969 574.488281 245.410156 574.710938 241.226562 C 575.230469 231.714844 575.257812 222.511719 574.683594 213.160156 C 574.621094 212.203125 574.632812 212.664062 574.632812 211.726562 C 574.90625 212.738281 575.015625 213.621094 575.140625 214.664062 C 576.140625 223.105469 576.15625 232.457031 575.851562 241.121094 C 575.714844 244.871094 578.164062 248.996094 579.453125 252.453125 C 581.285156 257.339844 581.203125 260.933594 581.417969 266.175781 C 581.429688 266.574219 581.464844 266.964844 581.503906 267.34375 L 579.875 267.34375 " fill-opacity="1" fill-rule="evenodd"/><path fill="#2bb874" d="M 583.46875 256.605469 C 583.386719 255.851562 585.648438 248.957031 585.582031 245.457031 C 585.523438 241.964844 583.125 237.339844 584.734375 232.375 C 586.339844 227.398438 591.566406 222.386719 593.636719 219.210938 C 595.699219 216.03125 597.921875 211.121094 598.273438 211.390625 C 598.464844 211.539062 599.09375 215.144531 599.472656 219.078125 L 599.664062 226.304688 C 599.605469 226.996094 599.507812 227.601562 599.367188 228.085938 C 598.175781 232.117188 595.609375 234.265625 595.128906 237.578125 C 594.65625 240.882812 593.96875 245.742188 590.847656 249.171875 C 587.726562 252.601562 585.15625 254.8125 583.46875 256.605469 " fill-opacity="1" fill-rule="evenodd"/><path fill="#000000" d="M 581.132812 267.34375 C 581.609375 263.292969 582.230469 259.503906 584.234375 254.976562 C 585.246094 252.699219 586.375 248.804688 587.101562 246.390625 C 588 243.417969 588.875 240.472656 589.457031 237.464844 C 589.804688 235.648438 592.660156 231.128906 593.710938 229.144531 C 595.453125 225.84375 596.15625 224.082031 596.875 220.546875 C 596.992188 223.359375 595.507812 226.699219 594.199219 229.351562 C 593.363281 231.050781 590.496094 236.007812 590.253906 237.40625 C 589.75 240.324219 589.054688 242.921875 588.246094 245.8125 C 587.496094 248.480469 586.324219 252.8125 585.242188 255.34375 C 583.398438 259.660156 582.835938 263.40625 582.425781 267.34375 L 581.132812 267.34375 " fill-opacity="1" fill-rule="evenodd"/><g clip-path="url(#5cc5214e30)"><path fill="#2bb874" d="M 589.765625 253.558594 C 598.15625 242.410156 599.5 240.742188 609.917969 234.765625 C 609.917969 234.765625 609.003906 236.292969 608.214844 238.054688 C 607.421875 239.808594 606.671875 243.09375 606.609375 244.960938 C 606.554688 246.832031 602.6875 251.953125 602.6875 251.953125 C 601.429688 254.210938 601.054688 254.925781 601.039062 256.929688 C 601.015625 259.804688 596.226562 264.816406 594.121094 266.5 C 593.640625 266.890625 593.089844 267.261719 592.523438 267.601562 C 592.523438 267.601562 589.105469 269.941406 587.359375 271.523438 C 586.015625 272.753906 585.09375 275.148438 584.75 276.171875 L 582.761719 276.171875 C 582.945312 270.398438 583.183594 264.074219 584.953125 259.597656 C 585.980469 257.011719 587.65625 256.359375 589.765625 253.558594 " fill-opacity="1" fill-rule="evenodd"/></g><path fill="#2d3e32" d="M 566.753906 257.652344 C 566.753906 257.652344 571.023438 258.878906 573.644531 260.761719 C 576.003906 262.453125 577.597656 266.710938 578.597656 267.34375 L 579 267.34375 C 579.769531 266.355469 578.425781 255.691406 576.59375 254.179688 C 574.703125 252.613281 572.046875 252.003906 570.648438 252.226562 C 569.246094 252.453125 566.753906 257.652344 566.753906 257.652344 " fill-opacity="1" fill-rule="evenodd"/><g clip-path="url(#0b66cb2e24)"><path fill="#000000" d="M 576.316406 259.476562 C 575.605469 257.867188 575.488281 257.496094 574.269531 256.199219 L 573.957031 255.878906 C 575.449219 256.4375 576.117188 257.785156 576.828125 259.121094 C 579.609375 264.390625 579.605469 270.363281 580.097656 276.171875 L 578.941406 276.195312 C 578.496094 270.9375 578.464844 264.324219 576.316406 259.476562 " fill-opacity="1" fill-rule="evenodd"/></g><path fill="#2bb874" d="M 576.644531 254.222656 C 576.644531 254.222656 574.503906 251.136719 572.289062 250.988281 C 570.082031 250.84375 569.882812 250.929688 569.882812 250.929688 C 569.882812 250.929688 565.277344 247.769531 562.539062 248.105469 C 559.800781 248.445312 557.277344 254.285156 557.109375 258.035156 C 556.945312 261.777344 556.371094 265.496094 555.640625 266.808594 C 554.90625 268.132812 553.59375 275.679688 553.496094 275.847656 L 562.074219 267.34375 C 563.039062 266.808594 563.941406 266.265625 564.671875 265.757812 C 568.015625 263.417969 571.621094 256.484375 573.667969 255.089844 C 575.71875 253.695312 576.644531 254.222656 576.644531 254.222656 " fill-opacity="1" fill-rule="evenodd"/><path fill="#464a3e" d="M 570.1875 251.441406 C 565.8125 251.660156 564.21875 256.308594 562.132812 260.160156 C 561.4375 261.449219 557.277344 270.308594 555.808594 270.25 C 557.613281 268.980469 561.746094 259.167969 562.816406 256.859375 C 563.925781 254.449219 564.320312 252.320312 565.917969 251.253906 C 567.488281 250.210938 570.226562 250.195312 573.316406 251.210938 C 573.648438 251.332031 574.363281 251.304688 574.375 251.597656 C 572.363281 251.261719 570.1875 251.4375 570.1875 251.4375 L 570.1875 251.441406 " fill-opacity="1" fill-rule="evenodd"/><g clip-path="url(#91ad53f5ff)"><path fill="#000000" d="M 579.800781 265.160156 L 580.097656 276.171875 L 581.585938 276.171875 L 582.621094 264.925781 L 579.800781 265.160156 " fill-opacity="1" fill-rule="evenodd"/></g><path fill="#7a9eec" d="M 502.09375 181.699219 L 557.210938 181.699219 L 557.046875 180.753906 L 558.914062 182.050781 L 558.914062 182.054688 C 559.550781 182.496094 559.851562 183.308594 559.632812 184.226562 L 551.464844 218.171875 C 551.125 219.5625 549.714844 220.703125 548.324219 220.703125 L 492.710938 220.703125 C 492.285156 220.703125 491.902344 220.59375 491.59375 220.40625 L 491.59375 220.402344 C 491.53125 220.363281 491.472656 220.328125 491.421875 220.28125 L 489.445312 218.902344 L 489.832031 217.136719 C 489.832031 217.136719 490.28125 217.4375 490.871094 217.828125 L 498.957031 184.226562 C 499.292969 182.835938 500.707031 181.699219 502.09375 181.699219 " fill-opacity="1" fill-rule="evenodd"/><path fill="#1a1a1a" d="M 500.15625 180.347656 L 555.769531 180.347656 C 557.164062 180.347656 558.027344 181.484375 557.695312 182.875 L 549.519531 216.820312 C 549.1875 218.214844 547.773438 219.351562 546.382812 219.351562 L 490.769531 219.351562 C 489.378906 219.351562 488.511719 218.214844 488.847656 216.820312 L 497.015625 182.875 C 497.355469 181.484375 498.765625 180.347656 500.15625 180.347656 " fill-opacity="1" fill-rule="evenodd"/><path fill="#1a1a1a" d="M 500.15625 181.84375 C 499.433594 181.84375 498.640625 182.53125 498.472656 183.226562 L 490.300781 217.167969 C 490.203125 217.582031 490.328125 217.855469 490.769531 217.855469 L 546.382812 217.855469 C 547.105469 217.855469 547.902344 217.164062 548.066406 216.472656 L 556.238281 182.523438 C 556.335938 182.113281 556.214844 181.84375 555.769531 181.84375 L 500.15625 181.84375 " fill-opacity="1" fill-rule="evenodd"/><path fill="#92d6ee" d="M 500.164062 183.140625 C 500.027344 183.160156 499.769531 183.398438 499.730469 183.53125 L 491.785156 216.558594 L 546.375 216.558594 C 546.515625 216.53125 546.769531 216.296875 546.808594 216.167969 L 554.753906 183.140625 L 500.164062 183.140625 " fill-opacity="1" fill-rule="evenodd"/><path fill="#e6e6e6" d="M 500.164062 183.140625 C 500.027344 183.160156 499.769531 183.398438 499.730469 183.53125 L 498.929688 186.875 L 553.855469 186.875 L 554.753906 183.140625 L 500.164062 183.140625 " fill-opacity="1" fill-rule="evenodd"/><path fill="#b45c43" d="M 514.65625 215.710938 C 514.65625 215.710938 514.933594 214.691406 516.484375 212.257812 C 518.042969 209.816406 516.628906 206.839844 517.160156 206.839844 C 517.6875 206.839844 517.085938 202.777344 517.453125 202.25 C 517.820312 201.71875 524.859375 197.632812 526.300781 196.992188 C 527.746094 196.351562 528.640625 198.519531 528.640625 198.519531 C 528.640625 198.519531 539.730469 205.722656 537.394531 207.476562 C 536.375 208.238281 532.632812 212.867188 528.429688 216.558594 L 526.765625 210.449219 L 514.882812 216.558594 C 514.804688 216.285156 514.726562 216.007812 514.65625 215.710938 " fill-opacity="1" fill-rule="evenodd"/><path fill="#c8664a" d="M 526.597656 196.898438 C 526.597656 196.898438 529.800781 195.15625 533.484375 194.34375 C 537.167969 193.527344 548.671875 194.539062 550.816406 197.46875 C 550.957031 197.660156 551.070312 197.875 551.152344 198.109375 L 546.710938 216.558594 L 520.648438 216.558594 C 522.742188 207.054688 526.597656 196.898438 526.597656 196.898438 " fill-opacity="1" fill-rule="evenodd"/><path fill="#b45c43" d="M 546.710938 216.558594 L 544.320312 216.558594 C 544.121094 215.816406 543.21875 214.363281 543.199219 212.410156 C 543.171875 210.003906 544.683594 207.632812 544.367188 205.785156 C 543.90625 203.140625 545.949219 201.261719 545.949219 201.261719 C 545.949219 201.261719 545.375 206.511719 546.523438 208.960938 C 547.03125 210.042969 547.515625 210.957031 547.898438 211.632812 L 546.710938 216.558594 " fill-opacity="1" fill-rule="evenodd"/><path fill="#fe9365" d="M 534.117188 189.253906 C 534.117188 189.253906 533.457031 193.683594 533.210938 194.070312 C 532.964844 194.464844 531.675781 194.84375 531.675781 194.84375 C 531.675781 194.84375 531.230469 199.65625 533.652344 201.125 C 536.078125 202.585938 542.925781 195.621094 543.058594 195.144531 C 543.1875 194.667969 542.113281 194.691406 541.746094 193.792969 C 541.378906 192.890625 541.933594 183.339844 541.933594 183.339844 L 539.859375 185.144531 L 534.117188 189.253906 " fill-opacity="1" fill-rule="evenodd"/><path fill="#e5845b" d="M 534.054688 189.914062 C 534.054688 189.914062 533.863281 191.273438 533.640625 192.628906 C 534.566406 192.773438 536.550781 192.964844 539.21875 192.542969 C 540.152344 192.402344 540.921875 192.230469 541.542969 192.058594 C 541.609375 188.597656 541.933594 183.339844 541.933594 183.339844 L 539.835938 185.339844 L 534.054688 189.914062 " fill-opacity="1" fill-rule="evenodd"/><path fill="#c8664a" d="M 546.117188 208.371094 C 546.117188 208.371094 547.707031 198.34375 550.113281 197.214844 C 550.4375 197.0625 550.839844 197.1875 551.296875 197.515625 L 547.800781 212.035156 C 547.132812 211.007812 546.5 209.777344 546.117188 208.371094 " fill-opacity="1" fill-rule="evenodd"/><path fill="#422517" d="M 539.363281 177.503906 C 539.363281 177.503906 539.964844 182.800781 540.378906 183.019531 C 540.578125 183.125 541.332031 182.519531 541.445312 184.097656 C 541.566406 185.773438 541.34375 188.210938 541.542969 188.269531 C 541.917969 188.378906 543.203125 185.757812 543.730469 184.691406 C 544.25 183.621094 544.941406 181.414062 544.90625 179.664062 C 544.898438 179.195312 544.015625 179.480469 543.507812 179.058594 C 542.121094 177.902344 539.671875 176.644531 539.363281 177.503906 " fill-opacity="1" fill-rule="evenodd"/><path fill="#fe9365" d="M 531.753906 178.636719 C 531.75 178.6875 531.472656 179.113281 531.476562 179.164062 C 531.648438 181.757812 530.816406 183.804688 530.691406 185.082031 C 530.5625 186.359375 531.191406 189.542969 532.84375 190.738281 C 533.386719 191.128906 534.96875 191.089844 535.570312 191.058594 C 538.148438 190.917969 540.316406 188.359375 541.179688 186.398438 C 541.835938 184.90625 541.453125 184.082031 541.585938 182.746094 C 541.585938 182.746094 540.96875 183.777344 540.484375 182.363281 C 540.34375 181.9375 540.464844 179.171875 540.296875 178.753906 C 539.914062 178.613281 539.234375 178.378906 536.75 178.125 C 534.261719 177.875 532.226562 178.402344 531.753906 178.636719 " fill-opacity="1" fill-rule="evenodd"/><path fill="#fe9365" d="M 539.84375 183.929688 C 539.84375 183.929688 540.734375 181.730469 542.246094 181.730469 C 543.753906 181.730469 542.699219 184.367188 541.777344 185.167969 C 540.847656 185.96875 540.269531 186.183594 540.121094 186.074219 C 539.972656 185.957031 539.84375 183.929688 539.84375 183.929688 " fill-opacity="1" fill-rule="evenodd"/><path fill="#e5845b" d="M 539.089844 182.285156 C 539.089844 182.285156 538.539062 181.546875 537.378906 181.59375 C 536.222656 181.640625 536.019531 182.492188 536.078125 182.648438 C 536.136719 182.8125 537.730469 182.574219 538.273438 182.800781 C 538.808594 183.023438 539.195312 182.808594 539.089844 182.285156 " fill-opacity="1" fill-rule="evenodd"/><path fill="#e5845b" d="M 534.167969 182.414062 C 534.167969 182.414062 533.617188 181.675781 532.460938 181.722656 C 531.304688 181.765625 531.410156 182.679688 531.464844 182.835938 C 531.523438 182.996094 532.808594 182.699219 533.347656 182.925781 C 533.890625 183.152344 534.277344 182.933594 534.167969 182.414062 " fill-opacity="1" fill-rule="evenodd"/><path fill="#000000" d="M 532.300781 182.453125 C 532.300781 182.453125 532.339844 182.792969 532.328125 182.953125 C 532.316406 183.117188 532.234375 183.664062 532.554688 183.683594 C 532.875 183.695312 533.203125 183.140625 533.136719 182.699219 C 533.070312 182.261719 532.300781 182.453125 532.300781 182.453125 Z M 537.234375 182.34375 C 537.234375 182.34375 537.28125 182.683594 537.269531 182.847656 C 537.257812 183.007812 537.175781 183.558594 537.496094 183.570312 C 537.816406 183.585938 538.144531 183.03125 538.078125 182.589844 C 538.011719 182.148438 537.234375 182.34375 537.234375 182.34375 " fill-opacity="1" fill-rule="evenodd"/><path fill="#e5845b" d="M 535.339844 182.664062 C 535.339844 182.664062 535.246094 184.117188 535.128906 184.542969 C 535.019531 184.964844 534.699219 185.667969 534.699219 185.667969 C 534.699219 185.667969 535.378906 186.046875 535.191406 186.058594 C 534.613281 186.105469 534.179688 185.960938 534.066406 185.699219 C 533.980469 185.503906 534.035156 185.183594 534.1875 185.015625 C 534.765625 184.363281 535.207031 182.617188 535.339844 182.664062 " fill-opacity="1" fill-rule="evenodd"/><path fill="#ffffff" d="M 536.695312 186.988281 C 536.476562 186.894531 535.835938 186.976562 534.519531 187 C 533.195312 187.027344 532.859375 186.8125 532.632812 186.902344 C 532.539062 186.9375 533.078125 188.140625 533.816406 188.375 C 535.496094 188.910156 537.0625 187.015625 536.695312 186.988281 " fill-opacity="1" fill-rule="evenodd"/><path fill="#000000" d="M 534.664062 180.808594 C 534.863281 180.859375 534.964844 181.0625 534.898438 181.257812 C 534.835938 181.460938 534.621094 181.582031 534.429688 181.539062 C 534.113281 181.460938 533.679688 181.394531 533.234375 181.394531 C 532.890625 181.390625 532.542969 181.421875 532.234375 181.515625 C 532.035156 181.574219 531.835938 181.464844 531.796875 181.269531 C 531.753906 181.074219 531.886719 180.863281 532.085938 180.808594 C 532.476562 180.691406 532.898438 180.648438 533.304688 180.652344 C 533.824219 180.65625 534.3125 180.726562 534.664062 180.808594 " fill-opacity="1" fill-rule="nonzero"/><path fill="#924b36" d="M 530.84375 196.222656 C 530.644531 197.242188 530.8125 198.386719 531.164062 199.4375 C 531.578125 200.679688 532.253906 201.777344 532.894531 202.355469 C 533.191406 202.617188 532.792969 202.261719 532.953125 202.410156 C 533.421875 202.828125 533.582031 202.976562 534.226562 202.929688 C 535.4375 202.847656 536.910156 202.121094 538.308594 201.199219 C 540.875 199.511719 543.183594 197.203125 543.292969 196.96875 L 543.542969 197.066406 C 543.425781 197.3125 541.058594 199.710938 538.449219 201.425781 C 537.007812 202.378906 535.488281 203.125 534.21875 203.210938 C 533.460938 203.261719 533.28125 203.09375 532.753906 202.621094 C 532.632812 202.511719 533.03125 202.867188 532.699219 202.570312 C 532.027344 201.964844 531.328125 200.828125 530.894531 199.542969 C 530.535156 198.460938 530.363281 197.269531 530.566406 196.195312 L 530.84375 196.222656 " fill-opacity="1" fill-rule="nonzero"/><path fill="#422517" d="M 532.132812 176.417969 C 531.515625 177.722656 531.753906 179.140625 532.753906 179.410156 C 535.75 180.222656 538.261719 179.058594 540.378906 179.472656 C 541.695312 179.726562 540.351562 178.433594 540.351562 178.433594 L 536.480469 176.953125 L 532.132812 176.417969 " fill-opacity="1" fill-rule="evenodd"/><path fill="#422517" d="M 531.269531 182.871094 C 531.269531 182.871094 530.617188 181.972656 530.710938 180.828125 C 530.804688 179.683594 530.753906 179.359375 530.753906 179.359375 C 530.753906 179.359375 531.984375 178.636719 531.9375 178.800781 C 531.894531 178.96875 531.351562 181.667969 531.269531 182.871094 " fill-opacity="1" fill-rule="evenodd"/><path stroke-linecap="butt" transform="matrix(0.0405037, 0, 0, -0.040504, 415.302775, 276.30537)" fill="none" stroke-linejoin="miter" d="M 2863.118085 2306.79275 C 2863.118085 2306.79275 2847.012286 2328.974215 2849.326892 2357.231473 C 2851.641498 2385.48873 2850.387753 2393.493346 2850.387753 2393.493346 C 2850.387753 2393.493346 2880.766953 2411.334959 2879.60965 2407.28443 C 2878.54879 2403.137461 2865.143365 2336.496625 2863.118085 2306.79275 Z M 2863.118085 2306.79275 " stroke="#000000" stroke-width="5.669" stroke-opacity="1" stroke-miterlimit="10"/><path fill="#000000" d="M 539.167969 180.824219 C 539.363281 180.875 539.46875 181.070312 539.402344 181.269531 C 539.335938 181.472656 539.121094 181.59375 538.929688 181.546875 C 538.613281 181.472656 538.179688 181.40625 537.734375 181.402344 C 537.394531 181.402344 537.042969 181.433594 536.734375 181.523438 C 536.535156 181.585938 536.335938 181.476562 536.296875 181.28125 C 536.253906 181.085938 536.386719 180.875 536.585938 180.820312 C 536.972656 180.703125 537.402344 180.660156 537.808594 180.664062 C 538.324219 180.664062 538.8125 180.738281 539.167969 180.824219 " fill-opacity="1" fill-rule="nonzero"/><path fill="#422517" d="M 532.703125 178.617188 C 532.703125 178.617188 531.160156 180.039062 530.761719 180.09375 C 530.695312 180.101562 530.691406 178.636719 530.96875 177.566406 C 532.324219 172.390625 537.402344 173.332031 539.011719 173.417969 C 542.953125 173.632812 545.425781 175.882812 544.90625 180.054688 C 544.796875 180.902344 538.09375 178.285156 538.09375 178.285156 L 534.363281 178.433594 L 532.703125 178.617188 " fill-opacity="1" fill-rule="evenodd"/><path stroke-linecap="butt" transform="matrix(0.0405037, 0, 0, -0.040504, 415.302775, 276.30537)" fill="none" stroke-linejoin="miter" d="M 2898.512264 2411.817165 C 2898.512264 2411.817165 2860.417711 2376.712585 2850.580637 2375.362409 C 2848.941124 2375.169527 2848.844683 2411.334959 2855.692058 2437.759834 C 2889.157399 2565.54436 3014.531877 2542.302043 3054.265942 2540.180337 C 3151.575825 2534.876074 3212.623552 2479.325971 3199.796778 2376.326821 C 3197.096405 2355.399091 3031.602094 2420.014662 3031.602094 2420.014662 L 2939.500074 2416.349899 Z M 2898.512264 2411.817165 " stroke="#000000" stroke-width="5.669" stroke-opacity="1" stroke-miterlimit="10"/><path fill="#e5845b" d="M 532.632812 186.902344 C 532.632812 186.902344 533.042969 187.203125 534.386719 187.296875 C 535.730469 187.386719 536.839844 187.019531 536.800781 186.96875 C 536.71875 186.855469 535.375 186.832031 535.09375 186.867188 C 534.878906 186.894531 534.699219 187.003906 534.453125 186.964844 C 534.210938 186.925781 534.011719 186.757812 533.753906 186.765625 C 533.496094 186.773438 532.632812 186.902344 532.632812 186.902344 " fill-opacity="1" fill-rule="evenodd"/><path fill="#422517" d="M 531.078125 178.90625 C 531.078125 178.90625 529.574219 177.683594 530.117188 176.136719 C 530.65625 174.59375 532.285156 174.660156 532.640625 174.726562 C 533 174.796875 531.894531 173.777344 534.1875 173.078125 C 536.480469 172.378906 538.242188 172.816406 540.144531 173.574219 C 542.046875 174.328125 531.078125 178.90625 531.078125 178.90625 " fill-opacity="1" fill-rule="evenodd"/><path stroke-linecap="butt" transform="matrix(0.0405037, 0, 0, -0.040504, 415.302775, 276.30537)" fill="none" stroke-linejoin="miter" d="M 2858.392431 2404.680519 C 2858.392431 2404.680519 2821.262297 2434.8666 2834.667722 2473.057296 C 2847.976705 2511.151551 2888.19298 2509.512051 2896.969194 2507.872552 C 2905.841849 2506.136611 2878.54879 2531.307751 2935.160188 2548.570718 C 2991.771587 2565.833684 3035.266887 2555.032275 3082.234095 2536.322691 C 3129.201303 2517.709549 2858.392431 2404.680519 2858.392431 2404.680519 Z M 2858.392431 2404.680519 " stroke="#000000" stroke-width="5.669" stroke-opacity="1" stroke-miterlimit="10"/><path fill="#fe9365" d="M 516.300781 191.667969 C 516.300781 191.667969 515.402344 189.570312 515.070312 188.820312 C 514.746094 188.066406 513.835938 185.320312 513.753906 185.183594 C 513.667969 185.054688 513.136719 185.242188 513.050781 185.699219 C 512.964844 186.15625 514.015625 189.640625 513.96875 189.753906 C 513.917969 189.867188 513.550781 189.988281 513.550781 189.988281 C 513.550781 189.988281 511.523438 186.148438 511.34375 186.035156 C 511.160156 185.921875 510.492188 185.992188 510.769531 186.949219 C 511.039062 187.914062 512.480469 190.949219 512.4375 191.085938 C 512.390625 191.226562 509.949219 187.25 509.609375 187.335938 C 509.269531 187.421875 509.183594 188.097656 509.613281 188.746094 C 510.050781 189.398438 511.554688 192.035156 511.589844 192.296875 C 511.625 192.5625 509.320312 190.117188 509.238281 189.992188 C 509.15625 189.867188 508.796875 190.035156 509.09375 190.902344 C 509.394531 191.773438 511.140625 193.929688 511.410156 194.300781 C 511.675781 194.675781 512.6875 197.085938 513.542969 197.871094 C 514.402344 198.652344 515.1875 198.644531 515.503906 198.488281 C 519.113281 196.742188 518.65625 195.066406 518.566406 191.800781 C 518.539062 190.769531 518.789062 190.050781 519.164062 189.460938 C 519.535156 188.871094 519.6875 188.511719 519.6875 188.511719 C 519.6875 188.511719 519.125 188.238281 518.109375 189.042969 C 517.09375 189.847656 517.234375 190.976562 516.300781 191.667969 " fill-opacity="1" fill-rule="evenodd"/><path fill="#fe9365" d="M 518.132812 196.34375 L 518.667969 214.078125 C 518.667969 214.078125 515.015625 217.464844 513.3125 217.855469 C 511.042969 218.371094 510.785156 214.351562 510.769531 214.195312 C 510.730469 213.917969 513.953125 197.519531 513.953125 197.519531 L 518.132812 196.34375 " fill-opacity="1" fill-rule="evenodd"/><path fill="#32b1df" d="M 502.539062 211.121094 C 502.945312 210.773438 510.09375 206.378906 509.464844 204.054688 C 508.839844 201.730469 503.554688 206.703125 503.554688 206.703125 C 503.554688 206.703125 508.988281 197.722656 506.628906 195.734375 C 504.273438 193.746094 501.324219 202.179688 501.324219 202.179688 C 501.324219 202.179688 503.75 191.304688 500.234375 192.050781 C 496.71875 192.804688 496.449219 204.511719 496.449219 204.511719 C 496.449219 204.511719 496.113281 202.703125 495.425781 201.4375 L 493.0625 211.246094 L 502.539062 211.121094 " fill-opacity="1" fill-rule="evenodd"/><path fill="#92d6ee" d="M 500.308594 210.585938 C 500.359375 209.988281 501.21875 207.832031 501.496094 207.125 C 502.308594 205.039062 503.191406 202.839844 504.144531 200.804688 C 504.316406 200.429688 504.523438 199.949219 504.78125 199.617188 C 504.523438 199.59375 503.625 201.414062 503.511719 201.636719 C 502.746094 203.15625 499.875 209.425781 499.761719 210.625 C 499.769531 210.753906 499.898438 210.847656 500.042969 210.839844 C 500.191406 210.824219 500.3125 210.714844 500.308594 210.585938 " fill-opacity="1" fill-rule="evenodd"/><path fill="#92d6ee" d="M 497.824219 210.59375 C 498.265625 206.144531 499.359375 201.742188 499.851562 197.316406 C 499.910156 196.789062 499.980469 196.261719 499.957031 195.746094 C 499.828125 196.238281 499.757812 196.800781 499.679688 197.304688 C 498.941406 201.707031 497.800781 206.171875 497.285156 210.574219 C 497.269531 210.707031 497.382812 210.808594 497.527344 210.816406 C 497.679688 210.820312 497.808594 210.726562 497.824219 210.59375 " fill-opacity="1" fill-rule="evenodd"/><path fill="#92d6ee" d="M 495.855469 210.402344 C 495.953125 208.898438 495.324219 206.390625 494.671875 204.554688 L 494.542969 205.101562 C 495 206.867188 495.464844 208.90625 495.316406 210.382812 C 495.304688 210.507812 495.417969 210.617188 495.5625 210.628906 C 495.714844 210.632812 495.847656 210.527344 495.855469 210.402344 " fill-opacity="1" fill-rule="evenodd"/><path fill="#32b1df" d="M 506.597656 210.769531 C 506.597656 210.769531 505.480469 213.898438 504.289062 216.558594 L 491.785156 216.558594 L 493.289062 210.308594 L 497.496094 210.464844 L 506.597656 210.769531 " fill-opacity="1" fill-rule="evenodd"/><path fill="#92d6ee" d="M 504.726562 212.667969 L 492.808594 212.304688 L 492.769531 212.480469 L 504.6875 212.84375 L 504.726562 212.667969 " fill-opacity="1" fill-rule="nonzero"/><path fill="#999999" d="M 502.726562 184.070312 C 503.253906 184.070312 503.613281 184.496094 503.53125 185.019531 C 503.453125 185.546875 502.960938 185.96875 502.433594 185.96875 C 501.910156 185.96875 501.550781 185.546875 501.628906 185.019531 C 501.710938 184.496094 502.207031 184.070312 502.726562 184.070312 " fill-opacity="1" fill-rule="evenodd"/><path fill="#999999" d="M 505.972656 184.070312 C 506.492188 184.070312 506.855469 184.496094 506.769531 185.019531 C 506.695312 185.546875 506.203125 185.96875 505.675781 185.96875 C 505.15625 185.96875 504.792969 185.546875 504.875 185.019531 C 504.953125 184.496094 505.445312 184.070312 505.972656 184.070312 " fill-opacity="1" fill-rule="evenodd"/><path fill="#999999" d="M 509.34375 184.070312 C 509.863281 184.070312 510.226562 184.496094 510.144531 185.019531 C 510.066406 185.546875 509.570312 185.96875 509.046875 185.96875 C 508.527344 185.96875 508.164062 185.546875 508.246094 185.019531 C 508.324219 184.496094 508.816406 184.070312 509.34375 184.070312 " fill-opacity="1" fill-rule="evenodd"/><path fill="#000000" d="M 519.675781 177.589844 L 526.738281 177.589844 C 527.046875 177.589844 527.296875 177.84375 527.296875 178.148438 L 527.296875 180.820312 C 527.296875 181.128906 527.046875 181.375 526.738281 181.375 L 519.675781 181.375 C 519.371094 181.375 519.121094 181.128906 519.121094 180.820312 L 519.121094 178.148438 C 519.121094 177.84375 519.371094 177.589844 519.675781 177.589844 " fill-opacity="1" fill-rule="evenodd"/><path fill="#4d4d4d" d="M 516.417969 177.589844 L 523.488281 177.589844 C 523.789062 177.589844 524.039062 177.84375 524.039062 178.148438 L 524.039062 180.820312 C 524.039062 181.128906 523.789062 181.375 523.488281 181.375 L 516.417969 181.375 C 516.113281 181.375 515.863281 181.128906 515.863281 180.820312 L 515.863281 178.148438 C 515.863281 177.84375 516.113281 177.589844 516.417969 177.589844 " fill-opacity="1" fill-rule="evenodd"/><path fill="#999999" d="M 518.660156 180.695312 C 519.289062 180.695312 519.800781 180.183594 519.800781 179.554688 C 519.800781 178.925781 519.289062 178.414062 518.660156 178.414062 C 518.035156 178.414062 517.519531 178.925781 517.519531 179.554688 C 517.519531 180.183594 518.035156 180.695312 518.660156 180.695312 " fill-opacity="1" fill-rule="evenodd"/><path fill="#1f2c5c" d="M 468.453125 168.199219 C 468.453125 168.199219 470.300781 168.902344 470.644531 170.84375 C 470.980469 172.785156 468.640625 174.601562 467.5 173.984375 C 466.359375 173.371094 468.453125 168.199219 468.453125 168.199219 " fill-opacity="1" fill-rule="evenodd"/><path fill="#fe9365" d="M 450.988281 187 C 450.988281 187 451.234375 189.710938 450.40625 191.777344 C 449.570312 193.839844 449.078125 194.394531 449.078125 194.394531 L 460.078125 195.964844 C 460.078125 195.964844 460.261719 192.238281 461.027344 190.820312 C 461.800781 189.402344 463.152344 190.398438 463.152344 190.398438 L 461.828125 187.894531 L 457.578125 184.964844 L 452.683594 183.550781 C 452.683594 183.550781 451.453125 183.917969 451.453125 184.472656 C 451.453125 185.027344 450.988281 187 450.988281 187 " fill-opacity="1" fill-rule="evenodd"/><path fill="#e5845b" d="M 450.988281 187 C 450.988281 187 451.101562 188.25 450.914062 189.699219 C 451.730469 189.679688 454.007812 189.726562 456.753906 190.574219 C 458.570312 191.132812 459.808594 191.710938 460.578125 192.128906 C 460.695312 191.617188 460.847656 191.15625 461.027344 190.820312 C 461.503906 189.949219 462.199219 189.988281 462.664062 190.148438 L 462.820312 189.773438 L 461.828125 187.894531 L 457.925781 185.207031 C 455.855469 184.550781 453.550781 183.917969 453.148438 184.042969 C 452.855469 184.136719 452.164062 184.40625 451.433594 184.707031 C 451.355469 185.441406 450.988281 187 450.988281 187 " fill-opacity="1" fill-rule="evenodd"/><path fill="#fe9365" d="M 468.050781 170.953125 C 468.050781 170.953125 468.449219 171.445312 468.605469 172.25 C 468.757812 173.046875 468.929688 175.558594 469.175781 176.386719 C 469.425781 177.222656 469.40625 177.375 469.285156 177.589844 C 469.160156 177.804688 468.4375 178.359375 468.746094 179.457031 C 468.949219 180.1875 469.222656 181.222656 469.5 182 C 469.640625 182.378906 469.851562 182.746094 469.917969 182.890625 C 470.113281 183.320312 470.109375 183.820312 469.75 184.097656 C 469.398438 184.375 468.542969 184.351562 468.5 184.660156 C 468.449219 184.964844 468.792969 185.582031 468.730469 185.769531 C 468.699219 185.855469 468.226562 186.015625 468.011719 186.285156 C 467.832031 186.515625 466.964844 186.480469 466.949219 186.671875 C 466.933594 186.824219 468.253906 187.113281 467.984375 187.921875 C 467.9375 188.058594 467.234375 187.785156 467.019531 188.265625 C 466.804688 188.742188 466.695312 189.449219 466.308594 189.941406 C 465.925781 190.433594 465.21875 190.730469 464.171875 190.554688 C 463.125 190.390625 458.320312 189.957031 456.164062 185.769531 C 454.007812 181.578125 458.414062 171.941406 458.414062 171.941406 L 468.050781 170.953125 " fill-opacity="1" fill-rule="evenodd"/><path fill="#e5845b" d="M 465.53125 190.488281 C 465.164062 190.609375 464.710938 190.648438 464.171875 190.554688 C 463.179688 190.398438 458.832031 190.003906 456.539062 186.421875 C 457.070312 186.296875 457.566406 186.183594 457.566406 186.183594 C 457.566406 186.183594 460.460938 189.636719 463.035156 190.175781 C 464.207031 190.421875 465.007812 190.488281 465.53125 190.488281 " fill-opacity="1" fill-rule="evenodd"/><path fill="#1f2c5c" d="M 465.242188 178.265625 C 465.242188 178.265625 465.769531 177.253906 466.847656 177.058594 C 467.929688 176.863281 468.925781 176.96875 469.074219 176.757812 C 469.222656 176.546875 469.679688 177.253906 469.328125 177.679688 C 468.980469 178.109375 467.324219 177.566406 466.726562 177.726562 C 466.121094 177.886719 465.242188 178.265625 465.242188 178.265625 " fill-opacity="1" fill-rule="evenodd"/><path fill="#1f2c5c" d="M 447.359375 175.375 C 447.359375 175.375 447.789062 177.46875 447.144531 178.789062 C 446.496094 180.117188 445.199219 182.792969 446.035156 185.199219 C 446.863281 187.597656 448.464844 188.496094 450.375 188.832031 C 452.285156 189.171875 453.859375 188.707031 455.03125 189.140625 C 456.199219 189.570312 457.800781 188.554688 458.109375 186.707031 C 458.417969 184.859375 457.320312 181.65625 458.753906 180.546875 C 460.1875 179.441406 462.109375 177.835938 463.375 175.617188 C 464.636719 173.402344 463.746094 172.847656 465.683594 172.230469 C 467.625 171.617188 470.027344 172.046875 469.660156 169.863281 C 469.289062 167.671875 468.117188 168.136719 467.839844 167.027344 C 467.5625 165.921875 465.496094 164.285156 461.800781 163.824219 C 458.109375 163.359375 454.503906 164.160156 452.285156 166.6875 C 450.066406 169.210938 447.449219 172.878906 447.359375 175.375 " fill-opacity="1" fill-rule="evenodd"/><path fill="#19244b" d="M 447.359375 175.375 C 447.359375 175.375 447.585938 176.492188 447.460938 177.617188 C 448.667969 177.671875 449.992188 177.316406 451.210938 176.265625 C 454.132812 173.738281 454.722656 168.136719 453.796875 165.921875 C 453.734375 165.773438 453.664062 165.640625 453.582031 165.507812 C 453.109375 165.847656 452.675781 166.238281 452.285156 166.6875 C 450.066406 169.210938 447.449219 172.878906 447.359375 175.375 " fill-opacity="1" fill-rule="evenodd"/><path fill="#1f2c5c" d="M 446.925781 165.085938 C 446.925781 165.085938 445.632812 167.644531 444.09375 168.8125 C 442.550781 169.984375 442.121094 172.570312 443.167969 174.230469 C 444.214844 175.894531 447.757812 177.375 450.683594 174.847656 C 453.613281 172.320312 454.195312 166.71875 453.273438 164.503906 C 452.347656 162.285156 448.40625 161.175781 446.925781 165.085938 " fill-opacity="1" fill-rule="evenodd"/><path fill="#1f2c5c" d="M 465.917969 179.90625 C 465.917969 179.90625 466.210938 179.222656 467.230469 178.902344 C 468.253906 178.585938 468.4375 178.996094 468.46875 179.125 C 468.496094 179.257812 466.855469 179.515625 465.917969 179.90625 " fill-opacity="1" fill-rule="evenodd"/><path fill="#1f2c5c" d="M 466.984375 179.304688 C 466.984375 179.304688 466.679688 180.066406 466.921875 180.476562 C 467.164062 180.882812 467.933594 180.757812 467.9375 180.234375 C 467.945312 179.71875 467.832031 179.40625 467.917969 179.171875 C 468.007812 178.9375 466.984375 179.304688 466.984375 179.304688 " fill-opacity="1" fill-rule="evenodd"/><path fill="#ffffff" d="M 468.128906 186.332031 C 468.128906 186.332031 467.585938 186.136719 467.179688 185.820312 C 466.773438 185.507812 466.28125 185.222656 466.28125 185.222656 C 466.28125 185.222656 466.488281 186.054688 466.949219 186.671875 C 467.136719 186.921875 467.882812 186.992188 467.984375 186.820312 C 468.082031 186.648438 468.128906 186.332031 468.128906 186.332031 " fill-opacity="1" fill-rule="evenodd"/><path fill="#ce7752" d="M 466.28125 185.222656 C 466.28125 185.222656 466.867188 185.839844 467.410156 186.082031 C 467.957031 186.332031 468.128906 186.332031 468.128906 186.332031 C 468.128906 186.332031 468.75 185.984375 468.730469 185.769531 C 468.722656 185.683594 468.542969 185.417969 467.777344 185.503906 C 467.492188 185.539062 467.148438 185.496094 466.890625 185.417969 C 466.730469 185.367188 466.265625 184.964844 466.28125 185.222656 " fill-opacity="1" fill-rule="evenodd"/><path fill="#1f2c5c" d="M 459.09375 177.761719 C 459.09375 177.761719 457.605469 179.328125 457.914062 181.714844 C 458.222656 184.097656 459.957031 184.007812 458.941406 186.207031 C 458.75 186.621094 458.601562 186.957031 458.496094 187.242188 C 458.160156 188.105469 458.636719 189.96875 459.464844 189.96875 C 459.464844 189.96875 459.128906 188.046875 459.773438 187.128906 C 460.421875 186.207031 461.25 185.558594 461.066406 183.484375 C 460.882812 181.40625 459.988281 180.828125 460.652344 179.535156 C 461.3125 178.242188 459.09375 177.761719 459.09375 177.761719 " fill-opacity="1" fill-rule="evenodd"/><path fill="#fe9365" d="M 461.953125 181.207031 C 461.953125 181.207031 461.277344 181.488281 460.703125 181.085938 C 460.136719 180.6875 460.167969 178.636719 460.027344 177.679688 C 459.890625 176.726562 459.460938 174.960938 460.953125 175.066406 C 462.445312 175.171875 463.0625 176.035156 463.078125 177.222656 C 463.09375 178.410156 461.953125 181.207031 461.953125 181.207031 " fill-opacity="1" fill-rule="evenodd"/><path fill="#fe9365" d="M 471.550781 198.085938 C 472.109375 195.871094 471.714844 194.164062 471.71875 192.617188 C 471.71875 192.519531 470.625 187.707031 470.625 187.707031 C 470.625 187.707031 471.289062 187.554688 471.605469 188 C 471.917969 188.445312 472.644531 191.15625 472.773438 191.179688 C 472.902344 191.207031 472.574219 187.652344 472.472656 186.679688 C 472.367188 185.710938 472.242188 184.640625 472.242188 184.640625 C 472.242188 184.640625 473.132812 184.5 473.382812 185.234375 C 473.628906 185.96875 473.988281 189.347656 473.988281 189.347656 C 473.988281 189.347656 474.09375 186.671875 473.957031 185.433594 C 473.824219 184.199219 473.859375 183.613281 473.859375 183.613281 C 473.859375 183.613281 474.746094 183.570312 474.902344 184.234375 C 475.054688 184.902344 475.316406 187.699219 475.316406 187.699219 C 475.316406 187.699219 475.535156 186.316406 475.464844 185.398438 C 475.390625 184.476562 475.453125 183.78125 475.453125 183.78125 C 475.453125 183.78125 476.417969 183.777344 476.597656 185.027344 C 476.78125 186.285156 476.761719 189.6875 476.742188 189.992188 C 476.722656 190.300781 477.226562 193.195312 477.226562 193.195312 C 477.226562 193.195312 477.925781 191.652344 478.78125 190.761719 C 479.636719 189.867188 480.445312 190.046875 480.445312 190.046875 C 480.445312 190.046875 480.421875 190.785156 479.53125 192.28125 C 478.644531 193.777344 478.414062 196.117188 478.230469 196.710938 C 478.042969 197.304688 476.015625 199.59375 475.683594 199.953125 C 475.347656 200.304688 469.597656 213.933594 469.597656 213.933594 L 467.847656 202.804688 L 471.550781 198.085938 " fill-opacity="1" fill-rule="evenodd"/><g clip-path="url(#f8ada8a23b)"><path fill="#4c5188" d="M 460.808594 246.335938 C 460.808594 246.335938 468.613281 247.382812 475.214844 248.140625 C 481.8125 248.894531 491.085938 249.472656 491.769531 251.105469 C 492.449219 252.730469 489.003906 259.53125 487.488281 264.535156 C 485.972656 269.53125 484.246094 276.195312 484.246094 276.195312 C 484.246094 276.195312 472.511719 276.441406 471.742188 276.195312 C 470.980469 275.945312 472.832031 269.355469 473.898438 266.917969 C 474.972656 264.472656 474.609375 263.777344 474.027344 263.601562 C 473.445312 263.429688 450.097656 265 446.75 263.894531 C 443.398438 262.789062 445.917969 253.664062 445.917969 253.664062 L 460.808594 246.335938 " fill-opacity="1" fill-rule="evenodd"/></g><path fill="#fe9365" d="M 496.5 230.210938 C 496.5 230.210938 499.164062 230.003906 501.144531 229.523438 C 503.125 229.039062 505.449219 228.265625 506.507812 228.277344 C 507.570312 228.292969 509.410156 229.726562 511.257812 230.519531 C 513.101562 231.304688 513.988281 231.292969 514.226562 231.449219 C 514.46875 231.609375 514.042969 232.09375 513.699219 232.148438 C 513.355469 232.195312 513.835938 232.652344 513.542969 232.90625 C 513.253906 233.160156 512.109375 233.34375 512.109375 233.34375 C 512.109375 233.34375 511.667969 234.011719 511.050781 234.183594 C 510.4375 234.351562 508.777344 234.238281 507.515625 234.097656 C 506.25 233.960938 505.519531 233.816406 505.519531 233.816406 C 503.335938 234.324219 501.929688 235.453125 499.675781 234.878906 C 498.242188 234.507812 497.710938 234.386719 497.710938 234.386719 L 496.5 230.210938 " fill-opacity="1" fill-rule="evenodd"/><g clip-path="url(#0f367c0b3f)"><path fill="#5d64a8" d="M 458.71875 246.335938 C 458.71875 246.335938 467.203125 247.382812 474.292969 248.140625 C 481.386719 248.894531 491.039062 249.472656 492.785156 251.105469 C 494.527344 252.730469 495.515625 259.53125 497.261719 264.535156 C 499 269.53125 501.613281 276.195312 501.613281 276.195312 C 501.613281 276.195312 490.039062 276.441406 489.117188 276.195312 C 488.1875 275.945312 485.75 269.355469 485.222656 266.917969 C 484.703125 264.472656 483.886719 263.777344 483.191406 263.601562 C 482.492188 263.429688 460.171875 265 456.101562 263.894531 C 452.03125 262.789062 448.601562 253.664062 448.601562 253.664062 L 458.71875 246.335938 " fill-opacity="1" fill-rule="evenodd"/></g><path fill="#ffc654" d="M 432.46875 212.621094 C 432.46875 212.621094 434.738281 200.933594 437.761719 199.132812 C 440.78125 197.328125 446.042969 195.761719 446.914062 195.089844 C 447.785156 194.421875 458.078125 196.339844 459.9375 197.15625 C 461.796875 197.96875 464.761719 199.539062 466.914062 200.234375 C 469.0625 200.933594 467.726562 220.410156 466.621094 223.375 C 465.519531 226.335938 461.621094 230.875 461.910156 232.671875 C 462.203125 234.476562 462.261719 235.351562 461.097656 236.628906 C 459.9375 237.90625 459.585938 240.234375 459.761719 241.570312 C 459.9375 242.90625 459.703125 243.542969 460.050781 245.230469 C 460.402344 246.914062 460.75 249.246094 459.644531 251.394531 C 458.539062 253.542969 454.9375 259.066406 445.867188 259.183594 C 436.796875 259.300781 432.03125 219.769531 432.46875 212.621094 " fill-opacity="1" fill-rule="evenodd"/><path fill="#e6b24c" d="M 467.941406 212.078125 C 467.699219 217.046875 467.136719 221.996094 466.621094 223.375 C 465.519531 226.335938 461.621094 230.875 461.910156 232.671875 C 462.203125 234.476562 462.261719 235.351562 461.097656 236.628906 C 459.9375 237.90625 459.585938 240.234375 459.761719 241.570312 C 459.9375 242.90625 459.703125 243.542969 460.050781 245.230469 C 460.402344 246.914062 460.75 249.246094 459.644531 251.394531 C 459.074219 252.511719 457.828125 254.527344 455.507812 256.230469 C 451.566406 255.296875 451.628906 248.375 451.960938 245.289062 C 452.367188 241.539062 455.796875 238.808594 457.195312 236.25 C 458.589844 233.691406 457.136719 232.933594 456.609375 230.320312 C 456.089844 227.703125 460.042969 223.113281 460.214844 220.324219 C 460.394531 217.53125 457.714844 213.230469 458.355469 208.113281 C 458.996094 202.996094 463.761719 200.171875 463.761719 200.171875 L 467.941406 212.078125 " fill-opacity="1" fill-rule="evenodd"/><path fill="#e7edfb" d="M 418.3125 211.457031 C 418.3125 211.457031 439.777344 213.261719 443.953125 214.421875 C 448.125 215.582031 448.957031 220.289062 449.046875 222.792969 C 449.132812 225.292969 448.21875 249.941406 448.753906 253.71875 C 449.292969 257.5 450.136719 259.9375 451.675781 261.449219 C 453.21875 262.960938 455.113281 263.308594 455.113281 263.308594 L 478.601562 263.308594 C 478.601562 263.308594 478.917969 266.800781 476.355469 267.90625 C 473.792969 269.007812 427.289062 267.90625 427.289062 267.90625 C 427.289062 267.90625 422.472656 266.800781 421.375 259.710938 C 420.277344 252.617188 420.628906 226.570312 419.339844 222.734375 C 418.054688 218.898438 415.511719 214.59375 415.328125 213.78125 C 415.144531 212.96875 415.976562 211.628906 418.3125 211.457031 " fill-opacity="1" fill-rule="evenodd"/><path fill="#7a9eec" d="M 418.347656 211.457031 C 418.347656 211.457031 439.910156 210.933594 444.160156 212.09375 C 448.398438 213.261719 449.503906 217.964844 449.738281 220.46875 C 449.96875 222.964844 450.496094 249.941406 451.25 253.71875 C 452.007812 257.5 452.992188 259.9375 454.621094 261.449219 C 456.25 262.960938 458.167969 263.308594 458.167969 263.308594 L 481.65625 263.308594 C 481.65625 263.308594 482.175781 266.800781 479.679688 267.90625 C 479.121094 268.148438 476.386719 268.285156 472.472656 268.347656 L 457.175781 268.347656 C 456.21875 268.339844 455.257812 268.328125 454.296875 268.320312 C 449.8125 267.390625 448.316406 262.578125 447.53125 258.570312 C 446.773438 254.722656 446.191406 225.296875 445.960938 222.75 C 445.726562 220.199219 444.515625 214.320312 440.378906 214.214844 L 415.460938 213.601562 C 415.378906 212.78125 416.1875 211.617188 418.347656 211.457031 " fill-opacity="1" fill-rule="evenodd"/><path fill="#000000" d="M 449.765625 246.015625 C 449.363281 246.015625 449.035156 245.691406 449.035156 245.289062 C 449.035156 244.886719 449.363281 244.5625 449.765625 244.5625 L 470.90625 244.5625 C 471.304688 244.535156 474.789062 244.339844 476.222656 245.90625 C 477.636719 247.445312 481.386719 264.328125 481.394531 264.378906 C 481.480469 264.769531 481.234375 265.15625 480.84375 265.242188 C 480.457031 265.328125 480.070312 265.082031 479.980469 264.691406 C 479.972656 264.640625 476.304688 248.136719 475.15625 246.882812 C 474.121094 245.753906 470.988281 246.011719 470.980469 246.011719 L 470.921875 246.015625 L 449.765625 246.015625 " fill-opacity="1" fill-rule="nonzero"/><path fill="#ffc654" d="M 446.640625 195.570312 C 446.640625 195.570312 448.125 192.75 449.023438 192.636719 C 449.929688 192.519531 455.390625 193.363281 457.949219 194.582031 C 460.507812 195.804688 460.253906 196.335938 461.152344 197.710938 C 462.046875 199.085938 458.847656 199.234375 458.847656 199.234375 L 446.640625 195.570312 " fill-opacity="1" fill-rule="evenodd"/><path fill="#ffc654" d="M 462.285156 218.425781 C 462.285156 218.425781 458.9375 210.976562 460.160156 205.742188 C 461.378906 200.511719 465.929688 197.113281 469.707031 201.820312 C 473.484375 206.53125 473.125 211.382812 475.796875 218.011719 C 478.472656 224.640625 481.855469 228.347656 482.261719 228.636719 C 482.667969 228.925781 481.3125 236.070312 476.941406 235.546875 C 472.570312 235.027344 465.308594 226.5625 462.285156 218.425781 " fill-opacity="1" fill-rule="evenodd"/><path fill="#ffc654" d="M 480.472656 227.273438 C 480.472656 227.273438 482.5625 227.84375 488.753906 227.921875 C 494.945312 228 496.3125 228.09375 496.71875 228.277344 C 497.125 228.460938 498.316406 229.96875 498.578125 232.167969 C 498.839844 234.375 497.242188 235.359375 496.953125 235.476562 C 496.660156 235.597656 479.21875 235.066406 476.941406 235.546875 C 474.660156 236.027344 478.433594 228.566406 478.433594 228.566406 L 480.472656 227.273438 " fill-opacity="1" fill-rule="evenodd"/><g clip-path="url(#90e71daf48)"><path fill="#999999" d="M 452.9375 276.195312 L 457.121094 276.195312 L 457.121094 268.304688 L 452.9375 268.304688 L 452.9375 276.195312 " fill-opacity="1" fill-rule="evenodd"/></g><path fill="#7a9eec" d="M 515.070312 259.542969 L 516.789062 259.542969 L 516.789062 260.992188 L 515.070312 260.992188 Z M 518.09375 259.542969 L 519.8125 259.542969 L 519.8125 260.992188 L 518.09375 260.992188 Z M 515.070312 256.574219 L 526.527344 256.574219 L 526.527344 258.027344 L 515.070312 258.027344 L 515.070312 256.574219 " fill-opacity="1" fill-rule="evenodd"/></svg>