<svg xmlns="http://www.w3.org/2000/svg" xmlns:xlink="http://www.w3.org/1999/xlink" width="1300" zoomAndPan="magnify" viewBox="0 0 974.88 527.249983" height="703" preserveAspectRatio="xMidYMid meet" version="1.0"><defs><clipPath id="760e4577b6"><path d="M 0.632812 0 L 974.128906 0 L 974.128906 526.5 L 0.632812 526.5 Z M 0.632812 0 " clip-rule="nonzero"/></clipPath><clipPath id="3b6b634f02"><path d="M 435.207031 13.160156 L 917.519531 13.160156 L 917.519531 522.433594 L 435.207031 522.433594 Z M 435.207031 13.160156 " clip-rule="nonzero"/></clipPath><clipPath id="2a19372e06"><path d="M 472.160156 4.539062 L 962.714844 4.539062 L 962.714844 522 L 472.160156 522 Z M 472.160156 4.539062 " clip-rule="nonzero"/></clipPath></defs><g clip-path="url(#760e4577b6)"><path fill="#ffffff" d="M 0.632812 0 L 974.246094 0 L 974.246094 526.5 L 0.632812 526.5 Z M 0.632812 0 " fill-opacity="1" fill-rule="nonzero"/><path fill="#ffffff" d="M 0.632812 0 L 974.246094 0 L 974.246094 526.5 L 0.632812 526.5 Z M 0.632812 0 " fill-opacity="1" fill-rule="nonzero"/></g><g clip-path="url(#3b6b634f02)"><path fill="#1bbc9b" d="M 782.777344 522.363281 C 781.902344 522.359375 781.023438 522.359375 780.148438 522.359375 C 776.328125 522.359375 772.511719 522.363281 768.6875 522.367188 C 765.085938 522.398438 761.578125 521.625 758.101562 520.875 C 749.617188 519.050781 741.234375 516.800781 733.046875 513.894531 C 727.539062 511.9375 722.148438 509.699219 716.792969 507.367188 C 704.683594 502.082031 692.878906 496.097656 680.585938 491.21875 C 672.703125 488.089844 664.605469 485.726562 656.1875 484.496094 C 652.148438 483.90625 648.113281 483.40625 644.035156 483.140625 C 641.632812 482.988281 639.230469 482.699219 636.832031 482.851562 C 632.328125 483.136719 627.828125 483.441406 623.339844 483.96875 C 618.128906 484.578125 612.960938 485.402344 607.800781 486.296875 C 603.558594 487.035156 599.375 488.027344 595.222656 489.09375 C 587.589844 491.058594 580.042969 493.355469 572.628906 496.027344 C 563.902344 499.175781 555.066406 501.921875 546.023438 503.984375 C 541.1875 505.089844 536.300781 505.734375 531.351562 506.171875 C 525.140625 506.722656 518.9375 506.613281 512.734375 506.492188 C 504.488281 506.332031 496.5625 504.527344 489.035156 501.066406 C 485.914062 499.628906 482.886719 498.027344 479.886719 496.359375 C 476.988281 494.75 474.496094 492.609375 471.984375 490.503906 C 469.523438 488.441406 467.164062 486.257812 464.890625 483.976562 C 459.953125 479.03125 455.925781 473.394531 452.375 467.421875 C 446.75 457.960938 442.539062 447.855469 439.328125 437.34375 C 437.753906 432.1875 436.753906 426.890625 436.246094 421.492188 C 436.074219 419.675781 435.917969 417.863281 435.863281 416.042969 C 436.101562 413.273438 435.675781 410.535156 435.453125 407.785156 C 435.203125 404.648438 436.195312 401.570312 435.859375 398.433594 C 436.0625 394.050781 436.851562 389.746094 437.660156 385.449219 C 438.648438 380.21875 439.707031 375.003906 441.328125 369.914062 C 442.859375 365.101562 444.679688 360.410156 446.714844 355.800781 C 448.664062 351.386719 450.648438 346.980469 452.839844 342.683594 C 457.289062 333.957031 462 325.371094 466.933594 316.902344 C 471.421875 309.199219 475.695312 301.371094 480.179688 293.664062 C 484.117188 286.894531 487.78125 279.984375 491.132812 272.910156 C 495.421875 263.851562 499.207031 254.597656 501.484375 244.792969 C 502.660156 239.746094 503.5 234.660156 504.046875 229.5 C 504.457031 225.617188 504.511719 221.742188 504.285156 217.890625 C 504.042969 213.757812 503.839844 209.605469 503.195312 205.484375 C 502.542969 201.3125 502.25 197.085938 501.726562 192.890625 C 501.269531 189.203125 500.730469 185.53125 500.203125 181.851562 C 499.5625 177.382812 498.890625 172.914062 498.242188 168.445312 C 497.691406 164.628906 497.117188 160.808594 496.617188 156.980469 C 496.238281 154.089844 495.808594 151.195312 495.671875 148.292969 C 495.363281 142.019531 494.632812 135.761719 494.78125 129.480469 C 495.097656 116.101562 497.179688 103.050781 502.382812 90.617188 C 505.125 84.054688 508.539062 77.847656 512.292969 71.816406 C 515.734375 66.285156 519.648438 61.125 524.128906 56.367188 C 529.863281 50.28125 536.265625 45.03125 543.003906 40.113281 C 552.480469 33.191406 563.035156 28.375 573.902344 24.214844 C 582.285156 21.003906 590.789062 18.085938 599.566406 16.097656 C 603.753906 15.144531 607.976562 14.394531 612.269531 13.980469 C 617.582031 13.464844 622.886719 13.164062 628.222656 13.171875 C 632.605469 13.175781 636.957031 13.617188 641.316406 13.945312 C 645.109375 14.230469 648.839844 14.800781 652.589844 15.355469 C 657.007812 16.011719 661.28125 17.238281 665.488281 18.691406 C 671.445312 20.75 677.132812 23.425781 682.679688 26.398438 C 687.574219 29.023438 692.363281 31.835938 697.253906 34.46875 C 701.824219 36.933594 706.550781 39.085938 711.226562 41.339844 C 718.890625 45.035156 726.914062 47.6875 735.035156 50.125 C 741.339844 52.023438 747.816406 53.078125 754.25 54.316406 C 757.148438 54.871094 760.164062 55.328125 763.164062 54.570312 C 763.71875 54.433594 764.332031 54.507812 764.914062 54.503906 C 768.722656 54.492188 772.527344 54.5 776.332031 54.472656 C 781.445312 54.4375 786.527344 54.886719 791.625 55.242188 C 795.554688 55.515625 799.480469 55.863281 803.382812 56.320312 C 808.808594 56.949219 814.152344 58.132812 819.425781 59.605469 C 825.980469 61.433594 832.421875 63.613281 838.519531 66.625 C 845.46875 70.054688 852.269531 73.789062 858.386719 78.601562 C 865.546875 84.234375 870.660156 91.414062 874.222656 99.789062 C 876.382812 104.863281 878.09375 110.054688 878.792969 115.507812 C 879.453125 120.648438 879.539062 125.808594 879.070312 131.015625 C 878.269531 139.875 875.304688 148.085938 872.191406 156.28125 C 868.757812 165.308594 866.023438 174.546875 864.164062 184.015625 C 863.496094 187.429688 863.035156 190.921875 863.089844 194.449219 C 863.15625 198.621094 863.015625 202.800781 863.160156 206.96875 C 863.28125 210.535156 863.808594 214.074219 864.257812 217.621094 C 864.863281 222.394531 865.695312 227.128906 866.621094 231.84375 C 867.8125 237.9375 869.125 244.007812 871.253906 249.84375 C 873.984375 257.320312 876.910156 264.730469 879.828125 272.136719 C 881.003906 275.125 882.3125 278.070312 883.691406 280.972656 C 886.265625 286.390625 888.917969 291.769531 891.570312 297.148438 C 894.640625 303.382812 897.820312 309.5625 900.824219 315.820312 C 904.652344 323.792969 908.542969 331.742188 911.25 340.191406 C 913.566406 347.425781 915.546875 354.757812 916.589844 362.285156 C 917.257812 367.121094 917.730469 372 917.609375 376.910156 C 917.609375 380.433594 917.609375 383.960938 917.605469 387.484375 C 917.34375 400.925781 913.414062 413.292969 906.824219 424.929688 C 902.875 431.902344 897.898438 438.0625 892.546875 443.976562 C 887.59375 449.453125 882.644531 454.933594 877.25 459.964844 C 873.132812 463.808594 869.082031 467.714844 865.214844 471.796875 C 860.195312 477.101562 855.285156 482.511719 850.113281 487.671875 C 845.195312 492.578125 839.929688 497.066406 834.40625 501.277344 C 828.824219 505.535156 823.042969 509.488281 816.8125 512.722656 C 808.339844 517.117188 799.4375 520.257812 789.925781 521.535156 C 787.546875 521.859375 785.171875 522.1875 782.777344 522.363281 Z M 782.777344 522.363281 " fill-opacity="1" fill-rule="nonzero"/></g><g clip-path="url(#2a19372e06)"><path fill="#00d4a1" d="M 825.3125 521.914062 C 824.421875 521.910156 823.53125 521.910156 822.644531 521.910156 C 818.761719 521.910156 814.882812 521.914062 811 521.917969 C 807.339844 521.949219 803.777344 521.160156 800.242188 520.402344 C 791.621094 518.546875 783.105469 516.261719 774.78125 513.308594 C 769.191406 511.320312 763.710938 509.046875 758.269531 506.675781 C 745.964844 501.308594 733.972656 495.226562 721.484375 490.269531 C 713.472656 487.089844 705.246094 484.6875 696.691406 483.441406 C 692.585938 482.839844 688.488281 482.328125 684.34375 482.0625 C 681.902344 481.90625 679.460938 481.613281 677.023438 481.769531 C 672.449219 482.058594 667.878906 482.367188 663.316406 482.902344 C 658.023438 483.523438 652.773438 484.359375 647.527344 485.269531 C 643.21875 486.019531 638.96875 487.027344 634.746094 488.113281 C 626.992188 490.105469 619.324219 492.4375 611.792969 495.15625 C 602.925781 498.355469 593.949219 501.144531 584.757812 503.242188 C 579.84375 504.363281 574.878906 505.019531 569.851562 505.464844 C 563.542969 506.023438 557.238281 505.910156 550.9375 505.789062 C 542.558594 505.625 534.503906 503.792969 526.855469 500.273438 C 523.683594 498.816406 520.609375 497.1875 517.558594 495.492188 C 514.613281 493.859375 512.082031 491.683594 509.53125 489.542969 C 507.03125 487.449219 504.632812 485.230469 502.324219 482.914062 C 497.304688 477.886719 493.214844 472.15625 489.605469 466.09375 C 483.890625 456.480469 479.613281 446.210938 476.351562 435.53125 C 474.75 430.289062 473.734375 424.90625 473.21875 419.425781 C 473.046875 417.578125 472.882812 415.738281 472.828125 413.886719 C 473.070312 411.074219 472.640625 408.289062 472.414062 405.496094 C 472.160156 402.308594 473.167969 399.179688 472.828125 395.992188 C 473.03125 391.539062 473.835938 387.167969 474.65625 382.804688 C 475.660156 377.488281 476.734375 372.191406 478.382812 367.015625 C 479.9375 362.128906 481.789062 357.359375 483.855469 352.675781 C 485.835938 348.191406 487.851562 343.714844 490.078125 339.351562 C 494.601562 330.484375 499.386719 321.757812 504.398438 313.15625 C 508.960938 305.328125 513.300781 297.375 517.859375 289.542969 C 521.859375 282.664062 525.582031 275.640625 528.988281 268.457031 C 533.347656 259.25 537.191406 249.847656 539.507812 239.886719 C 540.699219 234.757812 541.550781 229.589844 542.109375 224.347656 C 542.527344 220.402344 542.578125 216.46875 542.351562 212.554688 C 542.105469 208.351562 541.898438 204.132812 541.242188 199.949219 C 540.582031 195.707031 540.28125 191.414062 539.75 187.152344 C 539.289062 183.40625 538.738281 179.675781 538.203125 175.9375 C 537.550781 171.394531 536.867188 166.855469 536.210938 162.316406 C 535.648438 158.433594 535.070312 154.554688 534.558594 150.664062 C 534.175781 147.730469 533.738281 144.789062 533.597656 141.835938 C 533.285156 135.464844 532.542969 129.105469 532.695312 122.722656 C 533.015625 109.128906 535.128906 95.871094 540.417969 83.238281 C 543.203125 76.570312 546.675781 70.261719 550.484375 64.132812 C 553.984375 58.511719 557.960938 53.269531 562.511719 48.4375 C 568.339844 42.25 574.847656 36.917969 581.6875 31.921875 C 591.320312 24.886719 602.042969 19.996094 613.085938 15.769531 C 621.601562 12.503906 630.242188 9.539062 639.164062 7.519531 C 643.417969 6.554688 647.707031 5.789062 652.070312 5.367188 C 657.464844 4.847656 662.859375 4.539062 668.277344 4.546875 C 672.730469 4.554688 677.152344 5 681.582031 5.335938 C 685.433594 5.621094 689.226562 6.203125 693.035156 6.765625 C 697.523438 7.429688 701.867188 8.679688 706.144531 10.15625 C 712.195312 12.25 717.976562 14.964844 723.609375 17.988281 C 728.582031 20.652344 733.449219 23.511719 738.417969 26.1875 C 743.058594 28.6875 747.863281 30.875 752.617188 33.167969 C 760.398438 36.921875 768.554688 39.617188 776.804688 42.097656 C 783.210938 44.023438 789.792969 45.09375 796.328125 46.351562 C 799.273438 46.914062 802.335938 47.378906 805.386719 46.613281 C 805.949219 46.46875 806.570312 46.546875 807.164062 46.542969 C 811.03125 46.53125 814.898438 46.539062 818.765625 46.511719 C 823.960938 46.476562 829.125 46.929688 834.304688 47.292969 C 838.296875 47.570312 842.285156 47.925781 846.25 48.386719 C 851.761719 49.027344 857.191406 50.230469 862.550781 51.726562 C 869.210938 53.585938 875.753906 55.800781 881.953125 58.859375 C 889.011719 62.34375 895.921875 66.140625 902.140625 71.027344 C 909.410156 76.753906 914.605469 84.046875 918.226562 92.558594 C 920.421875 97.710938 922.160156 102.984375 922.871094 108.523438 C 923.542969 113.75 923.632812 118.992188 923.152344 124.285156 C 922.339844 133.285156 919.324219 141.628906 916.164062 149.953125 C 912.675781 159.125 909.898438 168.511719 908.007812 178.132812 C 907.328125 181.601562 906.859375 185.152344 906.917969 188.734375 C 906.980469 192.976562 906.84375 197.21875 906.988281 201.457031 C 907.113281 205.078125 907.644531 208.675781 908.101562 212.277344 C 908.71875 217.128906 909.566406 221.9375 910.503906 226.730469 C 911.714844 232.921875 913.050781 239.089844 915.214844 245.019531 C 917.984375 252.617188 920.957031 260.144531 923.921875 267.667969 C 925.117188 270.707031 926.449219 273.699219 927.847656 276.648438 C 930.464844 282.152344 933.15625 287.617188 935.851562 293.085938 C 938.972656 299.417969 942.203125 305.695312 945.257812 312.054688 C 949.144531 320.152344 953.097656 328.230469 955.851562 336.820312 C 958.203125 344.167969 960.214844 351.617188 961.273438 359.265625 C 961.953125 364.179688 962.433594 369.136719 962.308594 374.125 C 962.308594 377.707031 962.308594 381.289062 962.308594 384.867188 C 962.042969 398.527344 958.046875 411.09375 951.351562 422.914062 C 947.339844 430 942.285156 436.261719 936.84375 442.269531 C 931.8125 447.832031 926.785156 453.402344 921.304688 458.515625 C 917.121094 462.421875 913.003906 466.386719 909.078125 470.539062 C 903.976562 475.925781 898.984375 481.421875 893.730469 486.667969 C 888.734375 491.648438 883.382812 496.210938 877.773438 500.488281 C 872.097656 504.816406 866.226562 508.835938 859.894531 512.117188 C 851.289062 516.585938 842.242188 519.773438 832.574219 521.070312 C 830.160156 521.402344 827.746094 521.734375 825.3125 521.914062 Z M 825.3125 521.914062 " fill-opacity="1" fill-rule="nonzero"/></g></svg>