<svg xmlns="http://www.w3.org/2000/svg" xmlns:xlink="http://www.w3.org/1999/xlink" width="288" zoomAndPan="magnify" viewBox="0 0 216 72" height="96" preserveAspectRatio="xMidYMid meet" version="1.0"><defs><g/><clipPath id="ea0f81d58b"><path d="M 16.21875 28 L 67 28 L 67 55 L 16.21875 55 Z M 16.21875 28 " clip-rule="nonzero"/></clipPath><clipPath id="3db3e0e673"><path d="M 31 7.199219 L 52 7.199219 L 52 19 L 31 19 Z M 31 7.199219 " clip-rule="nonzero"/></clipPath><clipPath id="7440c58b81"><path d="M 16.21875 16 L 67 16 L 67 40 L 16.21875 40 Z M 16.21875 16 " clip-rule="nonzero"/></clipPath><clipPath id="cc81dad568"><path d="M 66 59 L 71.851562 59 L 71.851562 66.492188 L 66 66.492188 Z M 66 59 " clip-rule="nonzero"/></clipPath></defs><path fill="#1bbc9b" d="M 62.597656 53.535156 L 20.199219 53.535156 C 18.527344 53.535156 17.167969 52.179688 17.167969 50.507812 L 17.167969 29.308594 L 65.625 29.308594 L 65.625 50.507812 C 65.625 52.179688 64.269531 53.535156 62.597656 53.535156 " fill-opacity="1" fill-rule="nonzero"/><path fill="#ffffff" d="M 20.199219 50.507812 L 20.199219 29.308594 L 17.167969 29.308594 L 17.167969 50.507812 C 17.167969 52.179688 18.527344 53.535156 20.199219 53.535156 L 23.226562 53.535156 C 21.554688 53.535156 20.199219 52.179688 20.199219 50.507812 " fill-opacity="1" fill-rule="nonzero"/><g clip-path="url(#ea0f81d58b)"><path fill="#172738" d="M 18.078125 30.214844 L 18.078125 50.507812 C 18.078125 51.675781 19.027344 52.625 20.199219 52.625 L 62.597656 52.625 C 63.765625 52.625 64.714844 51.675781 64.714844 50.507812 L 64.714844 30.214844 Z M 62.597656 54.445312 L 20.199219 54.445312 C 18.027344 54.445312 16.261719 52.675781 16.261719 50.507812 L 16.261719 29.308594 C 16.261719 28.804688 16.667969 28.398438 17.167969 28.398438 L 65.625 28.398438 C 66.125 28.398438 66.53125 28.804688 66.53125 29.308594 L 66.53125 50.507812 C 66.53125 52.675781 64.765625 54.445312 62.597656 54.445312 " fill-opacity="1" fill-rule="nonzero"/></g><path fill="#a9eadf" d="M 47.453125 8.109375 L 35.339844 8.109375 C 33.667969 8.109375 32.3125 9.464844 32.3125 11.136719 L 32.3125 17.195312 L 35.339844 17.195312 L 35.339844 11.136719 L 47.453125 11.136719 L 47.453125 17.195312 L 50.480469 17.195312 L 50.480469 11.136719 C 50.480469 9.464844 49.125 8.109375 47.453125 8.109375 " fill-opacity="1" fill-rule="nonzero"/><g clip-path="url(#3db3e0e673)"><path fill="#172738" d="M 48.363281 16.285156 L 49.574219 16.285156 L 49.574219 11.136719 C 49.574219 9.96875 48.621094 9.015625 47.453125 9.015625 L 35.339844 9.015625 C 34.171875 9.015625 33.21875 9.96875 33.21875 11.136719 L 33.21875 16.285156 L 34.429688 16.285156 L 34.429688 11.136719 C 34.429688 10.636719 34.839844 10.226562 35.339844 10.226562 L 47.453125 10.226562 C 47.957031 10.226562 48.363281 10.636719 48.363281 11.136719 Z M 50.480469 18.101562 L 47.453125 18.101562 C 46.953125 18.101562 46.546875 17.695312 46.546875 17.195312 L 46.546875 12.046875 L 36.25 12.046875 L 36.25 17.195312 C 36.25 17.695312 35.84375 18.101562 35.339844 18.101562 L 32.3125 18.101562 C 31.808594 18.101562 31.402344 17.695312 31.402344 17.195312 L 31.402344 11.136719 C 31.402344 8.964844 33.167969 7.199219 35.339844 7.199219 L 47.453125 7.199219 C 49.625 7.199219 51.390625 8.964844 51.390625 11.136719 L 51.390625 17.195312 C 51.390625 17.695312 50.984375 18.101562 50.480469 18.101562 " fill-opacity="1" fill-rule="nonzero"/></g><path fill="#a9eadf" d="M 23.226562 31.578125 L 23.226562 53.535156 L 26.253906 53.535156 L 26.253906 32.714844 L 23.226562 31.578125 " fill-opacity="1" fill-rule="nonzero"/><path fill="#a9eadf" d="M 59.566406 31.578125 L 59.566406 53.535156 L 56.539062 53.535156 L 56.539062 32.714844 L 59.566406 31.578125 " fill-opacity="1" fill-rule="nonzero"/><path fill="#172738" d="M 24.136719 52.625 L 25.347656 52.625 L 25.347656 33.34375 L 24.136719 32.890625 Z M 26.253906 54.445312 L 23.226562 54.445312 C 22.726562 54.445312 22.316406 54.035156 22.316406 53.535156 L 22.316406 31.578125 C 22.316406 31.28125 22.464844 31 22.707031 30.832031 C 22.953125 30.664062 23.265625 30.625 23.546875 30.726562 L 26.574219 31.863281 C 26.929688 31.996094 27.164062 32.335938 27.164062 32.714844 L 27.164062 53.535156 C 27.164062 54.035156 26.757812 54.445312 26.253906 54.445312 " fill-opacity="1" fill-rule="nonzero"/><path fill="#172738" d="M 57.449219 52.625 L 58.660156 52.625 L 58.660156 32.890625 L 57.449219 33.34375 Z M 59.566406 54.445312 L 56.539062 54.445312 C 56.035156 54.445312 55.628906 54.035156 55.628906 53.535156 L 55.628906 32.714844 C 55.628906 32.335938 55.867188 31.996094 56.21875 31.863281 L 59.25 30.726562 C 59.527344 30.625 59.839844 30.664062 60.085938 30.832031 C 60.332031 31.003906 60.476562 31.28125 60.476562 31.578125 L 60.476562 53.535156 C 60.476562 54.035156 60.070312 54.445312 59.566406 54.445312 " fill-opacity="1" fill-rule="nonzero"/><path fill="#1bbc9b" d="M 65.625 29.308594 L 41.398438 38.394531 L 17.167969 29.308594 L 17.167969 20.222656 C 17.167969 18.550781 18.527344 17.195312 20.199219 17.195312 L 62.597656 17.195312 C 64.269531 17.195312 65.625 18.550781 65.625 20.222656 L 65.625 29.308594 " fill-opacity="1" fill-rule="nonzero"/><path fill="#ffffff" d="M 20.199219 29.308594 L 20.199219 20.222656 C 20.199219 18.550781 21.554688 17.195312 23.226562 17.195312 L 20.199219 17.195312 C 18.527344 17.195312 17.167969 18.550781 17.167969 20.222656 L 17.167969 29.308594 L 20.199219 30.441406 L 20.199219 29.308594 " fill-opacity="1" fill-rule="nonzero"/><g clip-path="url(#7440c58b81)"><path fill="#172738" d="M 18.078125 28.679688 L 41.398438 37.421875 L 64.714844 28.679688 L 64.714844 20.222656 C 64.714844 19.054688 63.765625 18.101562 62.597656 18.101562 L 20.199219 18.101562 C 19.027344 18.101562 18.078125 19.054688 18.078125 20.222656 Z M 41.398438 39.300781 C 41.289062 39.300781 41.179688 39.28125 41.078125 39.242188 L 16.851562 30.15625 C 16.496094 30.023438 16.261719 29.6875 16.261719 29.308594 L 16.261719 20.222656 C 16.261719 18.050781 18.027344 16.285156 20.199219 16.285156 L 62.597656 16.285156 C 64.765625 16.285156 66.53125 18.050781 66.53125 20.222656 L 66.53125 29.308594 C 66.53125 29.6875 66.296875 30.023438 65.945312 30.15625 L 41.714844 39.242188 C 41.613281 39.28125 41.503906 39.300781 41.398438 39.300781 " fill-opacity="1" fill-rule="nonzero"/></g><path fill="#172738" d="M 62.597656 21.132812 L 59.566406 21.132812 L 59.566406 19.3125 L 62.597656 19.3125 L 62.597656 21.132812 " fill-opacity="1" fill-rule="nonzero"/><path fill="#172738" d="M 56.539062 21.132812 L 22.015625 21.132812 L 22.015625 19.3125 L 56.539062 19.3125 L 56.539062 21.132812 " fill-opacity="1" fill-rule="nonzero"/><path fill="#e1ebed" d="M 43.820312 43.035156 L 38.972656 43.035156 L 38.972656 33.34375 L 43.820312 33.34375 L 43.820312 43.035156 " fill-opacity="1" fill-rule="nonzero"/><path fill="#172738" d="M 39.882812 42.128906 L 42.910156 42.128906 L 42.910156 34.253906 L 39.882812 34.253906 Z M 43.820312 43.945312 L 38.972656 43.945312 C 38.472656 43.945312 38.066406 43.539062 38.066406 43.035156 L 38.066406 33.34375 C 38.066406 32.84375 38.472656 32.4375 38.972656 32.4375 L 43.820312 32.4375 C 44.320312 32.4375 44.726562 32.84375 44.726562 33.34375 L 44.726562 43.035156 C 44.726562 43.539062 44.320312 43.945312 43.820312 43.945312 " fill-opacity="1" fill-rule="nonzero"/><path fill="#a9eadf" d="M 64.078125 57.121094 L 39.734375 57.121094 C 38.773438 57.121094 37.996094 56.34375 37.996094 55.382812 L 37.996094 46.6875 L 65.816406 46.6875 L 65.816406 55.382812 C 65.816406 56.34375 65.039062 57.121094 64.078125 57.121094 " fill-opacity="1" fill-rule="nonzero"/><path fill="#ffffff" d="M 41.023438 55.382812 L 41.023438 46.6875 L 37.996094 46.6875 L 37.996094 55.382812 C 37.996094 56.34375 38.773438 57.121094 39.734375 57.121094 L 42.761719 57.121094 C 41.800781 57.121094 41.023438 56.34375 41.023438 55.382812 " fill-opacity="1" fill-rule="nonzero"/><path fill="#172738" d="M 38.902344 47.597656 L 38.902344 55.382812 C 38.902344 55.839844 39.277344 56.214844 39.734375 56.214844 L 64.078125 56.214844 C 64.535156 56.214844 64.90625 55.839844 64.90625 55.382812 L 64.90625 47.597656 Z M 64.078125 58.03125 L 39.734375 58.03125 C 38.273438 58.03125 37.085938 56.84375 37.085938 55.382812 L 37.085938 46.6875 C 37.085938 46.1875 37.492188 45.78125 37.996094 45.78125 L 65.816406 45.78125 C 66.316406 45.78125 66.722656 46.1875 66.722656 46.6875 L 66.722656 55.382812 C 66.722656 56.84375 65.539062 58.03125 64.078125 58.03125 " fill-opacity="1" fill-rule="nonzero"/><path fill="#172738" d="M 70.183594 60.121094 L 68.367188 60.121094 L 68.367188 46.6875 L 70.183594 46.6875 L 70.183594 60.121094 " fill-opacity="1" fill-rule="nonzero"/><path fill="#e1ebed" d="M 67.710938 65.722656 L 70.839844 65.722656 L 70.839844 61.722656 C 70.839844 60.859375 70.140625 60.15625 69.277344 60.15625 C 68.410156 60.15625 67.710938 60.859375 67.710938 61.722656 L 67.710938 65.722656 " fill-opacity="1" fill-rule="nonzero"/><g clip-path="url(#cc81dad568)"><path fill="#172738" d="M 68.621094 64.8125 L 69.933594 64.8125 L 69.933594 61.722656 C 69.933594 61.359375 69.636719 61.066406 69.277344 61.066406 C 68.914062 61.066406 68.621094 61.359375 68.621094 61.722656 Z M 70.839844 66.628906 L 67.710938 66.628906 C 67.210938 66.628906 66.800781 66.222656 66.800781 65.722656 L 66.800781 61.722656 C 66.800781 60.359375 67.914062 59.25 69.277344 59.25 C 70.640625 59.25 71.75 60.359375 71.75 61.722656 L 71.75 65.722656 C 71.75 66.222656 71.34375 66.628906 70.839844 66.628906 " fill-opacity="1" fill-rule="nonzero"/></g><path fill="#a9eadf" d="M 51.886719 39.734375 L 34.5 46.6875 L 51.886719 53.644531 L 69.277344 46.6875 L 51.886719 39.734375 " fill-opacity="1" fill-rule="nonzero"/><path fill="#172738" d="M 36.945312 46.6875 L 51.886719 52.664062 L 66.828125 46.6875 L 51.886719 40.710938 Z M 51.886719 54.554688 C 51.773438 54.554688 51.660156 54.53125 51.550781 54.488281 L 34.164062 47.53125 C 33.816406 47.394531 33.589844 47.058594 33.589844 46.6875 C 33.589844 46.316406 33.816406 45.984375 34.164062 45.84375 L 51.550781 38.890625 C 51.765625 38.804688 52.007812 38.804688 52.226562 38.890625 L 69.613281 45.84375 C 69.957031 45.984375 70.183594 46.316406 70.183594 46.6875 C 70.183594 47.058594 69.957031 47.394531 69.613281 47.53125 L 52.226562 54.488281 C 52.117188 54.53125 52.003906 54.554688 51.886719 54.554688 " fill-opacity="1" fill-rule="nonzero"/><path fill="#172738" d="M 60.785156 47.53125 L 55.433594 45.394531 L 56.109375 43.707031 L 61.460938 45.84375 L 60.785156 47.53125 " fill-opacity="1" fill-rule="nonzero"/><path fill="#172738" d="M 53.648438 44.679688 L 51.550781 43.839844 L 52.226562 42.152344 L 54.320312 42.992188 L 53.648438 44.679688 " fill-opacity="1" fill-rule="nonzero"/><g fill="#172738" fill-opacity="1"><g transform="translate(75.634848, 40.511677)"><g><path d="M 19.890625 -20.546875 L 11.59375 0 L 8.140625 0 L -0.15625 -20.546875 L 2.90625 -20.546875 C 3.238281 -20.546875 3.507812 -20.460938 3.71875 -20.296875 C 3.925781 -20.140625 4.082031 -19.9375 4.1875 -19.6875 L 9.03125 -7.140625 C 9.195312 -6.734375 9.351562 -6.285156 9.5 -5.796875 C 9.644531 -5.316406 9.785156 -4.8125 9.921875 -4.28125 C 10.035156 -4.8125 10.15625 -5.316406 10.28125 -5.796875 C 10.414062 -6.285156 10.566406 -6.734375 10.734375 -7.140625 L 15.546875 -19.6875 C 15.617188 -19.90625 15.765625 -20.101562 15.984375 -20.28125 C 16.210938 -20.457031 16.488281 -20.546875 16.8125 -20.546875 Z M 19.890625 -20.546875 "/></g></g></g><g fill="#172738" fill-opacity="1"><g transform="translate(95.374226, 40.511677)"><g><path d="M 8.1875 -14.8125 C 9.269531 -14.8125 10.253906 -14.632812 11.140625 -14.28125 C 12.023438 -13.925781 12.78125 -13.425781 13.40625 -12.78125 C 14.039062 -12.144531 14.523438 -11.359375 14.859375 -10.421875 C 15.203125 -9.492188 15.375 -8.457031 15.375 -7.3125 C 15.375 -6.15625 15.203125 -5.113281 14.859375 -4.1875 C 14.523438 -3.257812 14.039062 -2.46875 13.40625 -1.8125 C 12.78125 -1.164062 12.023438 -0.664062 11.140625 -0.3125 C 10.253906 0.0390625 9.269531 0.21875 8.1875 0.21875 C 7.09375 0.21875 6.097656 0.0390625 5.203125 -0.3125 C 4.316406 -0.664062 3.554688 -1.164062 2.921875 -1.8125 C 2.296875 -2.46875 1.8125 -3.257812 1.46875 -4.1875 C 1.125 -5.113281 0.953125 -6.15625 0.953125 -7.3125 C 0.953125 -8.457031 1.125 -9.492188 1.46875 -10.421875 C 1.8125 -11.359375 2.296875 -12.144531 2.921875 -12.78125 C 3.554688 -13.425781 4.316406 -13.925781 5.203125 -14.28125 C 6.097656 -14.632812 7.09375 -14.8125 8.1875 -14.8125 Z M 8.1875 -2.484375 C 9.394531 -2.484375 10.289062 -2.890625 10.875 -3.703125 C 11.457031 -4.523438 11.75 -5.722656 11.75 -7.296875 C 11.75 -8.867188 11.457031 -10.066406 10.875 -10.890625 C 10.289062 -11.710938 9.394531 -12.125 8.1875 -12.125 C 6.957031 -12.125 6.046875 -11.707031 5.453125 -10.875 C 4.859375 -10.050781 4.5625 -8.859375 4.5625 -7.296875 C 4.5625 -5.734375 4.859375 -4.539062 5.453125 -3.71875 C 6.046875 -2.894531 6.957031 -2.484375 8.1875 -2.484375 Z M 8.1875 -2.484375 "/></g></g></g><g fill="#172738" fill-opacity="1"><g transform="translate(111.702912, 40.511677)"><g><path d="M 5.046875 -12.046875 C 5.503906 -12.921875 6.046875 -13.601562 6.671875 -14.09375 C 7.296875 -14.59375 8.03125 -14.84375 8.875 -14.84375 C 9.550781 -14.84375 10.09375 -14.695312 10.5 -14.40625 L 10.28125 -11.78125 C 10.226562 -11.613281 10.15625 -11.492188 10.0625 -11.421875 C 9.976562 -11.347656 9.859375 -11.3125 9.703125 -11.3125 C 9.566406 -11.3125 9.359375 -11.332031 9.078125 -11.375 C 8.796875 -11.425781 8.519531 -11.453125 8.25 -11.453125 C 7.863281 -11.453125 7.519531 -11.394531 7.21875 -11.28125 C 6.914062 -11.164062 6.644531 -11 6.40625 -10.78125 C 6.164062 -10.570312 5.953125 -10.316406 5.765625 -10.015625 C 5.578125 -9.710938 5.40625 -9.367188 5.25 -8.984375 L 5.25 0 L 1.734375 0 L 1.734375 -14.578125 L 3.796875 -14.578125 C 4.148438 -14.578125 4.398438 -14.515625 4.546875 -14.390625 C 4.691406 -14.265625 4.785156 -14.035156 4.828125 -13.703125 Z M 5.046875 -12.046875 "/></g></g></g><g fill="#172738" fill-opacity="1"><g transform="translate(122.304478, 40.511677)"><g><path d="M 5.25 -21.125 L 5.25 -9.03125 L 5.890625 -9.03125 C 6.128906 -9.03125 6.316406 -9.054688 6.453125 -9.109375 C 6.597656 -9.171875 6.738281 -9.300781 6.875 -9.5 L 10.5 -13.96875 C 10.65625 -14.164062 10.820312 -14.316406 11 -14.421875 C 11.1875 -14.523438 11.425781 -14.578125 11.71875 -14.578125 L 14.9375 -14.578125 L 10.40625 -9.171875 C 10.082031 -8.742188 9.726562 -8.414062 9.34375 -8.1875 C 9.550781 -8.039062 9.734375 -7.875 9.890625 -7.6875 C 10.046875 -7.5 10.191406 -7.296875 10.328125 -7.078125 L 15.1875 0 L 12.015625 0 C 11.742188 0 11.507812 -0.0390625 11.3125 -0.125 C 11.113281 -0.21875 10.945312 -0.382812 10.8125 -0.625 L 7.09375 -6.15625 C 6.957031 -6.375 6.816406 -6.515625 6.671875 -6.578125 C 6.535156 -6.640625 6.328125 -6.671875 6.046875 -6.671875 L 5.25 -6.671875 L 5.25 0 L 1.734375 0 L 1.734375 -21.125 Z M 5.25 -21.125 "/></g></g></g><g fill="#172738" fill-opacity="1"><g transform="translate(137.496267, 40.511677)"><g><path d="M 5.375 -14.578125 L 5.375 0 L 1.84375 0 L 1.84375 -14.578125 Z M 5.859375 -18.828125 C 5.859375 -18.523438 5.796875 -18.238281 5.671875 -17.96875 C 5.546875 -17.707031 5.378906 -17.476562 5.171875 -17.28125 C 4.972656 -17.082031 4.734375 -16.921875 4.453125 -16.796875 C 4.179688 -16.679688 3.890625 -16.625 3.578125 -16.625 C 3.273438 -16.625 2.988281 -16.679688 2.71875 -16.796875 C 2.445312 -16.921875 2.210938 -17.082031 2.015625 -17.28125 C 1.816406 -17.476562 1.65625 -17.707031 1.53125 -17.96875 C 1.414062 -18.238281 1.359375 -18.523438 1.359375 -18.828125 C 1.359375 -19.140625 1.414062 -19.429688 1.53125 -19.703125 C 1.65625 -19.984375 1.816406 -20.222656 2.015625 -20.421875 C 2.210938 -20.617188 2.445312 -20.773438 2.71875 -20.890625 C 2.988281 -21.015625 3.273438 -21.078125 3.578125 -21.078125 C 3.890625 -21.078125 4.179688 -21.015625 4.453125 -20.890625 C 4.734375 -20.773438 4.972656 -20.617188 5.171875 -20.421875 C 5.378906 -20.222656 5.546875 -19.984375 5.671875 -19.703125 C 5.796875 -19.429688 5.859375 -19.140625 5.859375 -18.828125 Z M 5.859375 -18.828125 "/></g></g></g><g fill="#172738" fill-opacity="1"><g transform="translate(144.715568, 40.511677)"><g><path d="M 2.75 0 L 2.75 -11.9375 L 1.484375 -12.140625 C 1.210938 -12.191406 0.992188 -12.285156 0.828125 -12.421875 C 0.660156 -12.566406 0.578125 -12.765625 0.578125 -13.015625 L 0.578125 -14.453125 L 2.75 -14.453125 L 2.75 -15.53125 C 2.75 -16.363281 2.875 -17.109375 3.125 -17.765625 C 3.382812 -18.429688 3.75 -19 4.21875 -19.46875 C 4.6875 -19.9375 5.253906 -20.289062 5.921875 -20.53125 C 6.597656 -20.78125 7.359375 -20.90625 8.203125 -20.90625 C 8.867188 -20.90625 9.492188 -20.816406 10.078125 -20.640625 L 10 -18.875 C 9.988281 -18.738281 9.953125 -18.628906 9.890625 -18.546875 C 9.828125 -18.472656 9.738281 -18.410156 9.625 -18.359375 C 9.519531 -18.316406 9.394531 -18.289062 9.25 -18.28125 C 9.101562 -18.269531 8.953125 -18.265625 8.796875 -18.265625 C 8.378906 -18.265625 8.003906 -18.21875 7.671875 -18.125 C 7.347656 -18.03125 7.070312 -17.875 6.84375 -17.65625 C 6.625 -17.4375 6.453125 -17.144531 6.328125 -16.78125 C 6.210938 -16.414062 6.15625 -15.960938 6.15625 -15.421875 L 6.15625 -14.453125 L 9.953125 -14.453125 L 9.953125 -11.953125 L 6.265625 -11.953125 L 6.265625 0 Z M 2.75 0 "/></g></g></g><g fill="#172738" fill-opacity="1"><g transform="translate(154.905009, 40.511677)"><g><path d="M 14.984375 -14.578125 L 7.03125 4 C 6.925781 4.25 6.789062 4.4375 6.625 4.5625 C 6.457031 4.695312 6.207031 4.765625 5.875 4.765625 L 3.25 4.765625 L 5.984375 -1.09375 L 0.078125 -14.578125 L 3.171875 -14.578125 C 3.441406 -14.578125 3.65625 -14.507812 3.8125 -14.375 C 3.96875 -14.25 4.082031 -14.097656 4.15625 -13.921875 L 7.265625 -6.359375 C 7.367188 -6.109375 7.453125 -5.851562 7.515625 -5.59375 C 7.585938 -5.34375 7.660156 -5.082031 7.734375 -4.8125 C 7.816406 -5.082031 7.898438 -5.347656 7.984375 -5.609375 C 8.066406 -5.867188 8.160156 -6.125 8.265625 -6.375 L 11.203125 -13.921875 C 11.273438 -14.117188 11.398438 -14.273438 11.578125 -14.390625 C 11.753906 -14.515625 11.953125 -14.578125 12.171875 -14.578125 Z M 14.984375 -14.578125 "/></g></g></g><g fill="#1bbc9b" fill-opacity="1"><g transform="translate(66.304358, 39.985873)"><g><path d="M 0.828125 -21.125 L 2.328125 -21.125 C 2.742188 -21.125 3.109375 -21.015625 3.421875 -20.796875 C 3.734375 -20.585938 3.96875 -20.28125 4.125 -19.875 L 12.421875 1.34375 L 10.921875 1.34375 C 10.554688 1.34375 10.195312 1.234375 9.84375 1.015625 C 9.488281 0.804688 9.226562 0.484375 9.0625 0.046875 Z M 0.828125 -21.125 "/></g></g></g><g fill="#1bbc9b" fill-opacity="1"><g transform="translate(73.019466, 39.985873)"><g><path d="M 4.171875 0.046875 C 4.015625 0.484375 3.757812 0.804688 3.40625 1.015625 C 3.050781 1.234375 2.6875 1.34375 2.3125 1.34375 L 0.828125 1.34375 L 9.125 -19.875 C 9.269531 -20.28125 9.5 -20.585938 9.8125 -20.796875 C 10.125 -21.015625 10.488281 -21.125 10.90625 -21.125 L 12.421875 -21.125 Z M 4.171875 0.046875 "/></g></g></g><g fill="#686565" fill-opacity="1"><g transform="translate(71.311093, 55.991426)"><g><path d="M 4.421875 0.125 C 3.722656 0.125 3.101562 -0.0351562 2.5625 -0.359375 C 2.019531 -0.679688 1.597656 -1.164062 1.296875 -1.8125 C 0.992188 -2.46875 0.84375 -3.265625 0.84375 -4.203125 C 0.84375 -5.148438 1.003906 -5.945312 1.328125 -6.59375 C 1.648438 -7.25 2.097656 -7.738281 2.671875 -8.0625 C 3.253906 -8.382812 3.921875 -8.546875 4.671875 -8.546875 C 5.472656 -8.546875 6.132812 -8.398438 6.65625 -8.109375 C 7.175781 -7.816406 7.546875 -7.382812 7.765625 -6.8125 L 7.109375 -6.421875 L 6.96875 -6.421875 C 6.75 -6.859375 6.453125 -7.171875 6.078125 -7.359375 C 5.710938 -7.554688 5.242188 -7.65625 4.671875 -7.65625 C 2.828125 -7.65625 1.90625 -6.503906 1.90625 -4.203125 C 1.90625 -3.015625 2.132812 -2.144531 2.59375 -1.59375 C 3.0625 -1.039062 3.710938 -0.765625 4.546875 -0.765625 C 5.316406 -0.765625 5.890625 -0.9375 6.265625 -1.28125 C 6.648438 -1.632812 6.84375 -2.191406 6.84375 -2.953125 L 6.84375 -3.6875 L 4.453125 -3.6875 L 4.453125 -4.484375 L 7.8125 -4.484375 L 7.8125 0 L 6.890625 0 L 6.890625 -1.125 L 6.78125 -1.15625 C 6.550781 -0.71875 6.238281 -0.394531 5.84375 -0.1875 C 5.445312 0.0195312 4.972656 0.125 4.421875 0.125 Z M 4.421875 0.125 "/></g></g></g><g fill="#686565" fill-opacity="1"><g transform="translate(80.070422, 55.991426)"><g><path d="M 6.046875 -2.953125 L 1.6875 -2.953125 C 1.71875 -2.179688 1.90625 -1.613281 2.25 -1.25 C 2.59375 -0.894531 3.0625 -0.71875 3.65625 -0.71875 C 4.113281 -0.71875 4.476562 -0.796875 4.75 -0.953125 C 5.03125 -1.117188 5.25 -1.375 5.40625 -1.71875 L 5.53125 -1.71875 L 6.140625 -1.359375 C 5.953125 -0.898438 5.65625 -0.535156 5.25 -0.265625 C 4.84375 -0.00390625 4.3125 0.125 3.65625 0.125 C 3.039062 0.125 2.507812 0.00390625 2.0625 -0.234375 C 1.625 -0.484375 1.285156 -0.851562 1.046875 -1.34375 C 0.816406 -1.832031 0.703125 -2.441406 0.703125 -3.171875 C 0.703125 -3.890625 0.828125 -4.5 1.078125 -5 C 1.328125 -5.5 1.671875 -5.867188 2.109375 -6.109375 C 2.546875 -6.347656 3.039062 -6.46875 3.59375 -6.46875 C 4.414062 -6.46875 5.050781 -6.238281 5.5 -5.78125 C 5.957031 -5.320312 6.191406 -4.644531 6.203125 -3.75 C 6.203125 -3.394531 6.191406 -3.15625 6.171875 -3.03125 Z M 5.265625 -3.75 C 5.253906 -4.425781 5.101562 -4.914062 4.8125 -5.21875 C 4.53125 -5.519531 4.125 -5.671875 3.59375 -5.671875 C 3.039062 -5.671875 2.601562 -5.515625 2.28125 -5.203125 C 1.96875 -4.898438 1.773438 -4.414062 1.703125 -3.75 Z M 5.265625 -3.75 "/></g></g></g><g fill="#686565" fill-opacity="1"><g transform="translate(86.847376, 55.991426)"><g><path d="M 4.296875 -1.015625 L 4.59375 -0.328125 C 4.445312 -0.179688 4.25 -0.0703125 4 0 C 3.757812 0.0820312 3.5 0.125 3.21875 0.125 C 2 0.125 1.390625 -0.488281 1.390625 -1.71875 L 1.390625 -5.59375 L 0.28125 -5.59375 L 0.28125 -6.359375 L 1.390625 -6.359375 L 1.390625 -7.703125 L 2.328125 -7.859375 L 2.328125 -6.359375 L 4.375 -6.359375 L 4.375 -5.59375 L 2.328125 -5.59375 L 2.328125 -1.8125 C 2.328125 -1.082031 2.644531 -0.71875 3.28125 -0.71875 C 3.625 -0.71875 3.921875 -0.816406 4.171875 -1.015625 Z M 4.296875 -1.015625 "/></g></g></g><g fill="#686565" fill-opacity="1"><g transform="translate(91.688058, 55.991426)"><g/></g></g><g fill="#686565" fill-opacity="1"><g transform="translate(94.580941, 55.991426)"><g><path d="M 1.265625 2.703125 C 1.054688 2.703125 0.859375 2.679688 0.671875 2.640625 C 0.484375 2.609375 0.320312 2.554688 0.1875 2.484375 L 0.359375 1.75 L 0.46875 1.703125 C 0.5625 1.753906 0.675781 1.796875 0.8125 1.828125 C 0.945312 1.859375 1.085938 1.875 1.234375 1.875 C 1.492188 1.875 1.707031 1.835938 1.875 1.765625 C 2.039062 1.703125 2.1875 1.585938 2.3125 1.421875 C 2.4375 1.265625 2.550781 1.046875 2.65625 0.765625 L 2.875 0.15625 L 0.328125 -6.359375 L 1.34375 -6.359375 L 3.328125 -1.171875 L 3.4375 -1.171875 L 5.375 -6.359375 L 6.34375 -6.359375 L 3.5 1 C 3.34375 1.40625 3.160156 1.726562 2.953125 1.96875 C 2.753906 2.21875 2.519531 2.398438 2.25 2.515625 C 1.976562 2.640625 1.648438 2.703125 1.265625 2.703125 Z M 1.265625 2.703125 "/></g></g></g><g fill="#686565" fill-opacity="1"><g transform="translate(101.282984, 55.991426)"><g><path d="M 3.640625 0.125 C 3.046875 0.125 2.523438 0 2.078125 -0.25 C 1.640625 -0.507812 1.300781 -0.882812 1.0625 -1.375 C 0.820312 -1.875 0.703125 -2.472656 0.703125 -3.171875 C 0.703125 -3.878906 0.820312 -4.476562 1.0625 -4.96875 C 1.300781 -5.46875 1.640625 -5.84375 2.078125 -6.09375 C 2.523438 -6.34375 3.046875 -6.46875 3.640625 -6.46875 C 4.242188 -6.46875 4.765625 -6.34375 5.203125 -6.09375 C 5.648438 -5.84375 5.992188 -5.46875 6.234375 -4.96875 C 6.472656 -4.476562 6.59375 -3.878906 6.59375 -3.171875 C 6.59375 -2.472656 6.472656 -1.875 6.234375 -1.375 C 5.992188 -0.882812 5.648438 -0.507812 5.203125 -0.25 C 4.765625 0 4.242188 0.125 3.640625 0.125 Z M 3.640625 -0.71875 C 4.273438 -0.71875 4.757812 -0.914062 5.09375 -1.3125 C 5.4375 -1.71875 5.609375 -2.335938 5.609375 -3.171875 C 5.609375 -4.015625 5.4375 -4.632812 5.09375 -5.03125 C 4.757812 -5.4375 4.273438 -5.640625 3.640625 -5.640625 C 3.015625 -5.640625 2.53125 -5.4375 2.1875 -5.03125 C 1.851562 -4.625 1.6875 -4.003906 1.6875 -3.171875 C 1.6875 -2.335938 1.851562 -1.71875 2.1875 -1.3125 C 2.53125 -0.914062 3.015625 -0.71875 3.640625 -0.71875 Z M 3.640625 -0.71875 "/></g></g></g><g fill="#686565" fill-opacity="1"><g transform="translate(108.578583, 55.991426)"><g><path d="M 3.140625 0.125 C 2.421875 0.125 1.882812 -0.0625 1.53125 -0.4375 C 1.1875 -0.820312 1.015625 -1.382812 1.015625 -2.125 L 1.015625 -6.359375 L 1.953125 -6.359375 L 1.953125 -2.140625 C 1.953125 -1.179688 2.40625 -0.703125 3.3125 -0.703125 C 3.882812 -0.703125 4.335938 -0.890625 4.671875 -1.265625 C 5.003906 -1.640625 5.171875 -2.25 5.171875 -3.09375 L 5.171875 -6.359375 L 6.109375 -6.359375 L 6.109375 0 L 5.21875 0 L 5.21875 -1 L 5.109375 -1.03125 C 4.890625 -0.632812 4.625 -0.34375 4.3125 -0.15625 C 4.007812 0.03125 3.617188 0.125 3.140625 0.125 Z M 3.140625 0.125 "/></g></g></g><g fill="#686565" fill-opacity="1"><g transform="translate(115.799271, 55.991426)"><g><path d="M 1.109375 0 L 1.109375 -6.359375 L 2 -6.359375 L 2 -5.359375 L 2.125 -5.328125 C 2.414062 -6.046875 2.972656 -6.40625 3.796875 -6.40625 C 4.222656 -6.40625 4.546875 -6.328125 4.765625 -6.171875 L 4.515625 -5.375 L 4.40625 -5.359375 C 4.164062 -5.472656 3.90625 -5.53125 3.625 -5.53125 C 3.113281 -5.53125 2.722656 -5.335938 2.453125 -4.953125 C 2.179688 -4.578125 2.046875 -3.960938 2.046875 -3.109375 L 2.046875 0 Z M 1.109375 0 "/></g></g></g><g fill="#686565" fill-opacity="1"><g transform="translate(120.709105, 55.991426)"><g/></g></g><g fill="#686565" fill-opacity="1"><g transform="translate(123.601989, 55.991426)"><g><path d="M 3.640625 0.125 C 3.085938 0.125 2.585938 0 2.140625 -0.25 C 1.691406 -0.507812 1.335938 -0.890625 1.078125 -1.390625 C 0.828125 -1.890625 0.703125 -2.484375 0.703125 -3.171875 C 0.703125 -3.867188 0.828125 -4.460938 1.078125 -4.953125 C 1.335938 -5.453125 1.691406 -5.828125 2.140625 -6.078125 C 2.585938 -6.335938 3.085938 -6.46875 3.640625 -6.46875 C 4.316406 -6.46875 4.851562 -6.34375 5.25 -6.09375 C 5.644531 -5.84375 5.929688 -5.503906 6.109375 -5.078125 L 5.46875 -4.625 L 5.359375 -4.625 C 5.179688 -4.96875 4.957031 -5.222656 4.6875 -5.390625 C 4.414062 -5.554688 4.066406 -5.640625 3.640625 -5.640625 C 3.253906 -5.640625 2.910156 -5.546875 2.609375 -5.359375 C 2.316406 -5.171875 2.085938 -4.890625 1.921875 -4.515625 C 1.765625 -4.148438 1.6875 -3.703125 1.6875 -3.171875 C 1.6875 -2.640625 1.765625 -2.191406 1.921875 -1.828125 C 2.085938 -1.460938 2.316406 -1.1875 2.609375 -1 C 2.910156 -0.8125 3.253906 -0.71875 3.640625 -0.71875 C 4.085938 -0.71875 4.453125 -0.816406 4.734375 -1.015625 C 5.023438 -1.210938 5.253906 -1.53125 5.421875 -1.96875 L 5.546875 -1.96875 L 6.15625 -1.59375 C 6 -1.0625 5.707031 -0.640625 5.28125 -0.328125 C 4.851562 -0.0234375 4.304688 0.125 3.640625 0.125 Z M 3.640625 0.125 "/></g></g></g><g fill="#686565" fill-opacity="1"><g transform="translate(130.154201, 55.991426)"><g><path d="M 2.625 0.125 C 2 0.125 1.507812 -0.0351562 1.15625 -0.359375 C 0.800781 -0.691406 0.625 -1.160156 0.625 -1.765625 C 0.625 -2.140625 0.703125 -2.457031 0.859375 -2.71875 C 1.015625 -2.976562 1.253906 -3.1875 1.578125 -3.34375 C 1.910156 -3.507812 2.335938 -3.640625 2.859375 -3.734375 C 3.316406 -3.804688 3.664062 -3.890625 3.90625 -3.984375 C 4.15625 -4.085938 4.316406 -4.195312 4.390625 -4.3125 C 4.472656 -4.4375 4.515625 -4.585938 4.515625 -4.765625 C 4.515625 -5.054688 4.414062 -5.273438 4.21875 -5.421875 C 4.019531 -5.578125 3.703125 -5.65625 3.265625 -5.65625 C 2.859375 -5.65625 2.507812 -5.570312 2.21875 -5.40625 C 1.925781 -5.25 1.65625 -5.015625 1.40625 -4.703125 L 1.296875 -4.703125 L 0.828125 -5.359375 C 1.097656 -5.703125 1.441406 -5.972656 1.859375 -6.171875 C 2.273438 -6.367188 2.742188 -6.46875 3.265625 -6.46875 C 4.015625 -6.46875 4.566406 -6.300781 4.921875 -5.96875 C 5.273438 -5.644531 5.453125 -5.195312 5.453125 -4.625 L 5.453125 -1.25 C 5.453125 -0.894531 5.601562 -0.71875 5.90625 -0.71875 C 6.007812 -0.71875 6.109375 -0.734375 6.203125 -0.765625 L 6.28125 -0.75 L 6.390625 -0.09375 C 6.316406 -0.0507812 6.222656 -0.0195312 6.109375 0 C 5.992188 0.03125 5.878906 0.046875 5.765625 0.046875 C 5.410156 0.046875 5.144531 -0.03125 4.96875 -0.1875 C 4.789062 -0.34375 4.675781 -0.566406 4.625 -0.859375 L 4.515625 -0.875 C 4.328125 -0.539062 4.078125 -0.289062 3.765625 -0.125 C 3.460938 0.0390625 3.082031 0.125 2.625 0.125 Z M 2.828125 -0.625 C 3.179688 -0.625 3.488281 -0.707031 3.75 -0.875 C 4.007812 -1.039062 4.207031 -1.269531 4.34375 -1.5625 C 4.476562 -1.851562 4.546875 -2.195312 4.546875 -2.59375 L 4.546875 -3.390625 L 4.4375 -3.421875 C 4.300781 -3.316406 4.128906 -3.226562 3.921875 -3.15625 C 3.722656 -3.09375 3.4375 -3.035156 3.0625 -2.984375 C 2.695312 -2.929688 2.40625 -2.851562 2.1875 -2.75 C 1.96875 -2.644531 1.8125 -2.515625 1.71875 -2.359375 C 1.632812 -2.203125 1.59375 -2.003906 1.59375 -1.765625 C 1.59375 -1.390625 1.703125 -1.101562 1.921875 -0.90625 C 2.140625 -0.71875 2.441406 -0.625 2.828125 -0.625 Z M 2.828125 -0.625 "/></g></g></g><g fill="#686565" fill-opacity="1"><g transform="translate(136.729465, 55.991426)"><g><path d="M 1.109375 0 L 1.109375 -6.359375 L 2 -6.359375 L 2 -5.359375 L 2.125 -5.328125 C 2.414062 -6.046875 2.972656 -6.40625 3.796875 -6.40625 C 4.222656 -6.40625 4.546875 -6.328125 4.765625 -6.171875 L 4.515625 -5.375 L 4.40625 -5.359375 C 4.164062 -5.472656 3.90625 -5.53125 3.625 -5.53125 C 3.113281 -5.53125 2.722656 -5.335938 2.453125 -4.953125 C 2.179688 -4.578125 2.046875 -3.960938 2.046875 -3.109375 L 2.046875 0 Z M 1.109375 0 "/></g></g></g><g fill="#686565" fill-opacity="1"><g transform="translate(141.639299, 55.991426)"><g><path d="M 6.046875 -2.953125 L 1.6875 -2.953125 C 1.71875 -2.179688 1.90625 -1.613281 2.25 -1.25 C 2.59375 -0.894531 3.0625 -0.71875 3.65625 -0.71875 C 4.113281 -0.71875 4.476562 -0.796875 4.75 -0.953125 C 5.03125 -1.117188 5.25 -1.375 5.40625 -1.71875 L 5.53125 -1.71875 L 6.140625 -1.359375 C 5.953125 -0.898438 5.65625 -0.535156 5.25 -0.265625 C 4.84375 -0.00390625 4.3125 0.125 3.65625 0.125 C 3.039062 0.125 2.507812 0.00390625 2.0625 -0.234375 C 1.625 -0.484375 1.285156 -0.851562 1.046875 -1.34375 C 0.816406 -1.832031 0.703125 -2.441406 0.703125 -3.171875 C 0.703125 -3.890625 0.828125 -4.5 1.078125 -5 C 1.328125 -5.5 1.671875 -5.867188 2.109375 -6.109375 C 2.546875 -6.347656 3.039062 -6.46875 3.59375 -6.46875 C 4.414062 -6.46875 5.050781 -6.238281 5.5 -5.78125 C 5.957031 -5.320312 6.191406 -4.644531 6.203125 -3.75 C 6.203125 -3.394531 6.191406 -3.15625 6.171875 -3.03125 Z M 5.265625 -3.75 C 5.253906 -4.425781 5.101562 -4.914062 4.8125 -5.21875 C 4.53125 -5.519531 4.125 -5.671875 3.59375 -5.671875 C 3.039062 -5.671875 2.601562 -5.515625 2.28125 -5.203125 C 1.96875 -4.898438 1.773438 -4.414062 1.703125 -3.75 Z M 5.265625 -3.75 "/></g></g></g><g fill="#686565" fill-opacity="1"><g transform="translate(148.416253, 55.991426)"><g><path d="M 6.046875 -2.953125 L 1.6875 -2.953125 C 1.71875 -2.179688 1.90625 -1.613281 2.25 -1.25 C 2.59375 -0.894531 3.0625 -0.71875 3.65625 -0.71875 C 4.113281 -0.71875 4.476562 -0.796875 4.75 -0.953125 C 5.03125 -1.117188 5.25 -1.375 5.40625 -1.71875 L 5.53125 -1.71875 L 6.140625 -1.359375 C 5.953125 -0.898438 5.65625 -0.535156 5.25 -0.265625 C 4.84375 -0.00390625 4.3125 0.125 3.65625 0.125 C 3.039062 0.125 2.507812 0.00390625 2.0625 -0.234375 C 1.625 -0.484375 1.285156 -0.851562 1.046875 -1.34375 C 0.816406 -1.832031 0.703125 -2.441406 0.703125 -3.171875 C 0.703125 -3.890625 0.828125 -4.5 1.078125 -5 C 1.328125 -5.5 1.671875 -5.867188 2.109375 -6.109375 C 2.546875 -6.347656 3.039062 -6.46875 3.59375 -6.46875 C 4.414062 -6.46875 5.050781 -6.238281 5.5 -5.78125 C 5.957031 -5.320312 6.191406 -4.644531 6.203125 -3.75 C 6.203125 -3.394531 6.191406 -3.15625 6.171875 -3.03125 Z M 5.265625 -3.75 C 5.253906 -4.425781 5.101562 -4.914062 4.8125 -5.21875 C 4.53125 -5.519531 4.125 -5.671875 3.59375 -5.671875 C 3.039062 -5.671875 2.601562 -5.515625 2.28125 -5.203125 C 1.96875 -4.898438 1.773438 -4.414062 1.703125 -3.75 Z M 5.265625 -3.75 "/></g></g></g><g fill="#686565" fill-opacity="1"><g transform="translate(155.193208, 55.991426)"><g><path d="M 1.109375 0 L 1.109375 -6.359375 L 2 -6.359375 L 2 -5.359375 L 2.125 -5.328125 C 2.414062 -6.046875 2.972656 -6.40625 3.796875 -6.40625 C 4.222656 -6.40625 4.546875 -6.328125 4.765625 -6.171875 L 4.515625 -5.375 L 4.40625 -5.359375 C 4.164062 -5.472656 3.90625 -5.53125 3.625 -5.53125 C 3.113281 -5.53125 2.722656 -5.335938 2.453125 -4.953125 C 2.179688 -4.578125 2.046875 -3.960938 2.046875 -3.109375 L 2.046875 0 Z M 1.109375 0 "/></g></g></g><g fill="#686565" fill-opacity="1"><g transform="translate(160.103042, 55.991426)"><g/></g></g><g fill="#686565" fill-opacity="1"><g transform="translate(162.995925, 55.991426)"><g><path d="M 3.265625 2.703125 C 2.265625 2.703125 1.535156 2.53125 1.078125 2.1875 C 0.617188 1.851562 0.390625 1.410156 0.390625 0.859375 C 0.390625 0.503906 0.492188 0.21875 0.703125 0 C 0.921875 -0.207031 1.234375 -0.351562 1.640625 -0.4375 L 1.640625 -0.5625 C 1.453125 -0.675781 1.304688 -0.804688 1.203125 -0.953125 C 1.109375 -1.109375 1.0625 -1.285156 1.0625 -1.484375 C 1.0625 -1.734375 1.140625 -1.9375 1.296875 -2.09375 C 1.453125 -2.25 1.679688 -2.363281 1.984375 -2.4375 L 1.984375 -2.5625 C 1.296875 -2.925781 0.953125 -3.519531 0.953125 -4.34375 C 0.953125 -4.757812 1.046875 -5.128906 1.234375 -5.453125 C 1.421875 -5.773438 1.6875 -6.023438 2.03125 -6.203125 C 2.382812 -6.378906 2.796875 -6.46875 3.265625 -6.46875 C 3.796875 -6.46875 4.238281 -6.351562 4.59375 -6.125 C 4.726562 -6.269531 4.828125 -6.425781 4.890625 -6.59375 C 4.960938 -6.769531 5.007812 -6.96875 5.03125 -7.1875 L 5.15625 -7.265625 L 5.921875 -7.078125 C 5.878906 -6.753906 5.78125 -6.476562 5.625 -6.25 C 5.46875 -6.03125 5.25 -5.847656 4.96875 -5.703125 L 4.96875 -5.578125 C 5.175781 -5.421875 5.328125 -5.234375 5.421875 -5.015625 C 5.515625 -4.796875 5.5625 -4.539062 5.5625 -4.25 C 5.5625 -3.851562 5.46875 -3.492188 5.28125 -3.171875 C 5.09375 -2.859375 4.820312 -2.609375 4.46875 -2.421875 C 4.125 -2.242188 3.722656 -2.15625 3.265625 -2.15625 C 3.203125 -2.15625 3.101562 -2.160156 2.96875 -2.171875 C 2.8125 -2.171875 2.695312 -2.171875 2.625 -2.171875 C 2.425781 -2.171875 2.265625 -2.117188 2.140625 -2.015625 C 2.023438 -1.910156 1.96875 -1.78125 1.96875 -1.625 C 1.96875 -1.425781 2.03125 -1.28125 2.15625 -1.1875 C 2.289062 -1.09375 2.507812 -1.039062 2.8125 -1.03125 L 4.3125 -0.96875 C 4.957031 -0.945312 5.4375 -0.796875 5.75 -0.515625 C 6.0625 -0.242188 6.21875 0.144531 6.21875 0.65625 C 6.21875 1.039062 6.113281 1.382812 5.90625 1.6875 C 5.707031 2 5.382812 2.242188 4.9375 2.421875 C 4.5 2.609375 3.941406 2.703125 3.265625 2.703125 Z M 3.265625 -2.953125 C 3.710938 -2.953125 4.054688 -3.066406 4.296875 -3.296875 C 4.546875 -3.535156 4.671875 -3.867188 4.671875 -4.296875 C 4.671875 -4.734375 4.546875 -5.070312 4.296875 -5.3125 C 4.054688 -5.550781 3.710938 -5.671875 3.265625 -5.671875 C 2.804688 -5.671875 2.457031 -5.550781 2.21875 -5.3125 C 1.976562 -5.070312 1.859375 -4.734375 1.859375 -4.296875 C 1.859375 -3.867188 1.976562 -3.535156 2.21875 -3.296875 C 2.457031 -3.066406 2.804688 -2.953125 3.265625 -2.953125 Z M 3.265625 1.890625 C 3.734375 1.890625 4.117188 1.835938 4.421875 1.734375 C 4.722656 1.628906 4.9375 1.488281 5.0625 1.3125 C 5.195312 1.144531 5.265625 0.957031 5.265625 0.75 C 5.265625 0.5625 5.226562 0.410156 5.15625 0.296875 C 5.082031 0.179688 4.96875 0.09375 4.8125 0.03125 C 4.65625 -0.0195312 4.441406 -0.0546875 4.171875 -0.078125 L 2.734375 -0.140625 L 2.546875 -0.140625 C 1.742188 -0.128906 1.34375 0.175781 1.34375 0.78125 C 1.34375 1.519531 1.984375 1.890625 3.265625 1.890625 Z M 3.265625 1.890625 "/></g></g></g><g fill="#686565" fill-opacity="1"><g transform="translate(169.507795, 55.991426)"><g><path d="M 1.109375 0 L 1.109375 -6.359375 L 2 -6.359375 L 2 -5.359375 L 2.125 -5.328125 C 2.414062 -6.046875 2.972656 -6.40625 3.796875 -6.40625 C 4.222656 -6.40625 4.546875 -6.328125 4.765625 -6.171875 L 4.515625 -5.375 L 4.40625 -5.359375 C 4.164062 -5.472656 3.90625 -5.53125 3.625 -5.53125 C 3.113281 -5.53125 2.722656 -5.335938 2.453125 -4.953125 C 2.179688 -4.578125 2.046875 -3.960938 2.046875 -3.109375 L 2.046875 0 Z M 1.109375 0 "/></g></g></g><g fill="#686565" fill-opacity="1"><g transform="translate(174.417629, 55.991426)"><g><path d="M 3.640625 0.125 C 3.046875 0.125 2.523438 0 2.078125 -0.25 C 1.640625 -0.507812 1.300781 -0.882812 1.0625 -1.375 C 0.820312 -1.875 0.703125 -2.472656 0.703125 -3.171875 C 0.703125 -3.878906 0.820312 -4.476562 1.0625 -4.96875 C 1.300781 -5.46875 1.640625 -5.84375 2.078125 -6.09375 C 2.523438 -6.34375 3.046875 -6.46875 3.640625 -6.46875 C 4.242188 -6.46875 4.765625 -6.34375 5.203125 -6.09375 C 5.648438 -5.84375 5.992188 -5.46875 6.234375 -4.96875 C 6.472656 -4.476562 6.59375 -3.878906 6.59375 -3.171875 C 6.59375 -2.472656 6.472656 -1.875 6.234375 -1.375 C 5.992188 -0.882812 5.648438 -0.507812 5.203125 -0.25 C 4.765625 0 4.242188 0.125 3.640625 0.125 Z M 3.640625 -0.71875 C 4.273438 -0.71875 4.757812 -0.914062 5.09375 -1.3125 C 5.4375 -1.71875 5.609375 -2.335938 5.609375 -3.171875 C 5.609375 -4.015625 5.4375 -4.632812 5.09375 -5.03125 C 4.757812 -5.4375 4.273438 -5.640625 3.640625 -5.640625 C 3.015625 -5.640625 2.53125 -5.4375 2.1875 -5.03125 C 1.851562 -4.625 1.6875 -4.003906 1.6875 -3.171875 C 1.6875 -2.335938 1.851562 -1.71875 2.1875 -1.3125 C 2.53125 -0.914062 3.015625 -0.71875 3.640625 -0.71875 Z M 3.640625 -0.71875 "/></g></g></g><g fill="#686565" fill-opacity="1"><g transform="translate(181.713228, 55.991426)"><g><path d="M 3.15625 0 L 1.96875 0 L 0.40625 -6.359375 L 1.34375 -6.359375 L 2.546875 -1.09375 L 2.65625 -1.09375 L 4.140625 -6.359375 L 5.125 -6.359375 L 6.65625 -1.09375 L 6.78125 -1.09375 L 7.953125 -6.359375 L 8.859375 -6.359375 L 7.3125 0 L 6.125 0 L 4.671875 -4.9375 L 4.546875 -4.9375 Z M 3.15625 0 "/></g></g></g><g fill="#686565" fill-opacity="1"><g transform="translate(190.979676, 55.991426)"><g><path d="M 4.296875 -1.015625 L 4.59375 -0.328125 C 4.445312 -0.179688 4.25 -0.0703125 4 0 C 3.757812 0.0820312 3.5 0.125 3.21875 0.125 C 2 0.125 1.390625 -0.488281 1.390625 -1.71875 L 1.390625 -5.59375 L 0.28125 -5.59375 L 0.28125 -6.359375 L 1.390625 -6.359375 L 1.390625 -7.703125 L 2.328125 -7.859375 L 2.328125 -6.359375 L 4.375 -6.359375 L 4.375 -5.59375 L 2.328125 -5.59375 L 2.328125 -1.8125 C 2.328125 -1.082031 2.644531 -0.71875 3.28125 -0.71875 C 3.625 -0.71875 3.921875 -0.816406 4.171875 -1.015625 Z M 4.296875 -1.015625 "/></g></g></g><g fill="#686565" fill-opacity="1"><g transform="translate(195.820357, 55.991426)"><g><path d="M 1.109375 0 L 1.109375 -8.90625 L 2.046875 -8.90625 L 2.046875 -5.453125 L 2.171875 -5.421875 C 2.617188 -6.117188 3.269531 -6.46875 4.125 -6.46875 C 4.894531 -6.46875 5.453125 -6.273438 5.796875 -5.890625 C 6.140625 -5.503906 6.3125 -4.90625 6.3125 -4.09375 L 6.3125 0 L 5.375 0 L 5.375 -4.0625 C 5.375 -4.445312 5.320312 -4.753906 5.21875 -4.984375 C 5.125 -5.222656 4.972656 -5.394531 4.765625 -5.5 C 4.554688 -5.601562 4.285156 -5.65625 3.953125 -5.65625 C 3.378906 -5.65625 2.914062 -5.46875 2.5625 -5.09375 C 2.21875 -4.71875 2.046875 -4.109375 2.046875 -3.265625 L 2.046875 0 Z M 1.109375 0 "/></g></g></g></svg>