<svg xmlns="http://www.w3.org/2000/svg" xmlns:xlink="http://www.w3.org/1999/xlink" width="1300" zoomAndPan="magnify" viewBox="0 0 974.88 527.249983" height="703" preserveAspectRatio="xMidYMid meet" version="1.0"><defs><clipPath id="4253caedce"><path d="M 171.042969 75 L 565.683594 75 L 565.683594 497 L 171.042969 497 Z M 171.042969 75 " clip-rule="nonzero"/></clipPath><clipPath id="ce3c749356"><path d="M 451.722656 120.414062 L 803.71875 120.414062 L 803.71875 497 L 451.722656 497 Z M 451.722656 120.414062 " clip-rule="nonzero"/></clipPath><clipPath id="e9d6ce192d"><path d="M 197.835938 343 L 247 343 L 247 392 L 197.835938 392 Z M 197.835938 343 " clip-rule="nonzero"/></clipPath><clipPath id="6595557460"><path d="M 338 150.34375 L 388 150.34375 L 388 199 L 338 199 Z M 338 150.34375 " clip-rule="nonzero"/></clipPath><clipPath id="61b0619eec"><path d="M 348 358 L 414 358 L 414 423.707031 L 348 423.707031 Z M 348 358 " clip-rule="nonzero"/></clipPath><clipPath id="a5ee1db000"><path d="M 621 358 L 671.164062 358 L 671.164062 409 L 621 409 Z M 621 358 " clip-rule="nonzero"/></clipPath><clipPath id="26cbbfa031"><path d="M 495.046875 443 L 531 443 L 531 497.738281 L 495.046875 497.738281 Z M 495.046875 443 " clip-rule="nonzero"/></clipPath><clipPath id="cbcb5c0a73"><path d="M 530.761719 443 L 600 443 L 600 497.738281 L 530.761719 497.738281 Z M 530.761719 443 " clip-rule="nonzero"/></clipPath><clipPath id="66bd081996"><path d="M 537.171875 416.210938 L 546 416.210938 L 546 497.738281 L 537.171875 497.738281 Z M 537.171875 416.210938 " clip-rule="nonzero"/></clipPath><clipPath id="0837c0729c"><path d="M 604.023438 416.210938 L 612.265625 416.210938 L 612.265625 497.738281 L 604.023438 497.738281 Z M 604.023438 416.210938 " clip-rule="nonzero"/></clipPath><clipPath id="716deee036"><path d="M 306.402344 416.210938 L 315.558594 416.210938 L 315.558594 497.738281 L 306.402344 497.738281 Z M 306.402344 416.210938 " clip-rule="nonzero"/></clipPath><clipPath id="fd6c39e483"><path d="M 653.472656 403.375 L 715.269531 403.375 L 715.269531 497.738281 L 653.472656 497.738281 Z M 653.472656 403.375 " clip-rule="nonzero"/></clipPath><clipPath id="d1525c928e"><path d="M 633.324219 451.058594 L 647.976562 451.058594 L 647.976562 497.738281 L 633.324219 497.738281 Z M 633.324219 451.058594 " clip-rule="nonzero"/></clipPath><clipPath id="2d4478189d"><path d="M 647.0625 472 L 654 472 L 654 497.738281 L 647.0625 497.738281 Z M 647.0625 472 " clip-rule="nonzero"/></clipPath><clipPath id="87c9a18867"><path d="M 342.117188 429.96875 L 449 429.96875 L 449 497.738281 L 342.117188 497.738281 Z M 342.117188 429.96875 " clip-rule="nonzero"/></clipPath><clipPath id="964288bcda"><path d="M 350.359375 429.96875 L 471 429.96875 L 471 497.738281 L 350.359375 497.738281 Z M 350.359375 429.96875 " clip-rule="nonzero"/></clipPath><clipPath id="4b6a9395dc"><path d="M 360 479.488281 L 370 479.488281 L 370 497.738281 L 360 497.738281 Z M 360 479.488281 " clip-rule="nonzero"/></clipPath></defs><path fill="#1bbc9b" d="M 421.105469 491.632812 C 423.382812 491.632812 425.660156 491.578125 427.9375 491.46875 C 430.214844 491.359375 432.484375 491.191406 434.753906 490.96875 C 437.019531 490.746094 439.28125 490.46875 441.535156 490.136719 C 443.789062 489.804688 446.035156 489.417969 448.269531 488.972656 C 450.503906 488.53125 452.726562 488.03125 454.9375 487.480469 C 457.148438 486.929688 459.347656 486.320312 461.527344 485.660156 C 463.707031 485 465.871094 484.289062 468.015625 483.523438 C 470.164062 482.753906 472.289062 481.9375 474.394531 481.066406 C 476.5 480.195312 478.585938 479.273438 480.644531 478.300781 C 482.707031 477.328125 484.742188 476.304688 486.75 475.230469 C 488.761719 474.160156 490.742188 473.039062 492.699219 471.867188 C 494.65625 470.695312 496.578125 469.480469 498.476562 468.214844 C 500.371094 466.949219 502.234375 465.640625 504.066406 464.28125 C 505.894531 462.925781 507.691406 461.527344 509.457031 460.082031 C 511.21875 458.636719 512.945312 457.152344 514.632812 455.621094 C 516.324219 454.09375 517.972656 452.523438 519.585938 450.910156 C 521.199219 449.300781 522.769531 447.652344 524.300781 445.964844 C 525.832031 444.277344 527.320312 442.554688 528.769531 440.792969 C 530.214844 439.03125 531.617188 437.238281 532.976562 435.410156 C 534.335938 433.578125 535.648438 431.71875 536.914062 429.824219 C 538.183594 427.929688 539.402344 426.003906 540.574219 424.050781 C 541.746094 422.097656 542.871094 420.117188 543.945312 418.109375 C 545.023438 416.097656 546.046875 414.066406 547.023438 412.003906 C 548 409.945312 548.921875 407.863281 549.796875 405.757812 C 550.671875 403.65625 551.492188 401.53125 552.261719 399.382812 C 553.03125 397.238281 553.746094 395.078125 554.410156 392.898438 C 555.070312 390.714844 555.679688 388.523438 556.234375 386.3125 C 556.789062 384.101562 557.289062 381.878906 557.738281 379.644531 C 558.183594 377.410156 558.574219 375.164062 558.910156 372.910156 C 559.246094 370.65625 559.527344 368.398438 559.75 366.128906 C 559.976562 363.863281 560.144531 361.589844 560.257812 359.3125 C 560.371094 357.039062 560.429688 354.761719 560.429688 352.480469 L 560.429688 80.71875 L 443.839844 80.71875 C 441.5625 80.714844 439.28125 80.773438 437.007812 80.882812 C 434.730469 80.996094 432.457031 81.160156 430.1875 81.382812 C 427.917969 81.609375 425.65625 81.886719 423.402344 82.21875 C 421.148438 82.554688 418.902344 82.941406 416.667969 83.386719 C 414.429688 83.832031 412.207031 84.328125 409.996094 84.882812 C 407.785156 85.4375 405.585938 86.042969 403.40625 86.703125 C 401.222656 87.367188 399.058594 88.082031 396.914062 88.847656 C 394.765625 89.613281 392.640625 90.433594 390.535156 91.308594 C 388.429688 92.179688 386.34375 93.101562 384.285156 94.074219 C 382.222656 95.050781 380.1875 96.074219 378.175781 97.148438 C 376.164062 98.222656 374.183594 99.34375 372.226562 100.515625 C 370.269531 101.6875 368.34375 102.90625 366.449219 104.171875 C 364.554688 105.4375 362.691406 106.75 360.859375 108.109375 C 359.027344 109.464844 357.230469 110.867188 355.46875 112.3125 C 353.707031 113.757812 351.980469 115.246094 350.289062 116.777344 C 348.601562 118.308594 346.949219 119.878906 345.339844 121.488281 C 343.726562 123.101562 342.152344 124.75 340.621094 126.441406 C 339.089844 128.128906 337.601562 129.855469 336.15625 131.617188 C 334.710938 133.378906 333.308594 135.171875 331.949219 137.003906 C 330.589844 138.835938 329.277344 140.699219 328.011719 142.59375 C 326.742188 144.488281 325.523438 146.414062 324.351562 148.367188 C 323.179688 150.324219 322.054688 152.304688 320.980469 154.316406 C 319.90625 156.324219 318.878906 158.359375 317.90625 160.421875 C 316.929688 162.480469 316.003906 164.566406 315.132812 166.671875 C 314.257812 168.777344 313.4375 170.902344 312.671875 173.046875 C 311.902344 175.195312 311.1875 177.359375 310.523438 179.539062 C 309.863281 181.722656 309.253906 183.917969 308.699219 186.128906 C 308.144531 188.339844 307.644531 190.5625 307.199219 192.796875 C 306.753906 195.035156 306.363281 197.277344 306.027344 199.535156 C 305.695312 201.789062 305.414062 204.050781 305.191406 206.320312 C 304.964844 208.585938 304.796875 210.859375 304.6875 213.136719 C 304.574219 215.414062 304.515625 217.691406 304.515625 219.972656 L 304.515625 363.449219 C 304.515625 365.546875 304.464844 367.640625 304.363281 369.738281 C 304.261719 371.832031 304.105469 373.921875 303.902344 376.011719 C 303.695312 378.097656 303.4375 380.179688 303.132812 382.253906 C 302.824219 384.328125 302.464844 386.394531 302.058594 388.453125 C 301.648438 390.507812 301.1875 392.554688 300.679688 394.589844 C 300.171875 396.625 299.613281 398.644531 299.003906 400.652344 C 298.394531 402.660156 297.738281 404.652344 297.03125 406.625 C 296.324219 408.601562 295.570312 410.558594 294.765625 412.496094 C 293.964844 414.433594 293.117188 416.351562 292.21875 418.246094 C 291.324219 420.144531 290.378906 422.015625 289.390625 423.867188 C 288.402344 425.71875 287.371094 427.542969 286.292969 429.339844 C 285.214844 431.140625 284.089844 432.914062 282.925781 434.65625 C 281.761719 436.402344 280.554688 438.117188 279.304688 439.800781 C 278.054688 441.484375 276.765625 443.136719 275.433594 444.761719 C 274.105469 446.382812 272.734375 447.96875 271.328125 449.523438 C 269.917969 451.078125 268.472656 452.597656 266.988281 454.082031 C 265.507812 455.5625 263.988281 457.011719 262.433594 458.417969 C 260.878906 459.828125 259.292969 461.199219 257.671875 462.527344 C 256.050781 463.859375 254.398438 465.148438 252.714844 466.398438 C 251.027344 467.648438 249.3125 468.855469 247.570312 470.023438 C 245.828125 471.1875 244.054688 472.308594 242.257812 473.390625 C 240.457031 474.46875 238.632812 475.5 236.78125 476.488281 C 234.933594 477.480469 233.058594 478.421875 231.164062 479.320312 C 229.269531 480.214844 227.351562 481.066406 225.414062 481.871094 C 223.476562 482.671875 221.519531 483.425781 219.542969 484.132812 C 217.570312 484.839844 215.578125 485.5 213.570312 486.109375 C 211.5625 486.71875 209.542969 487.277344 207.507812 487.785156 C 205.472656 488.296875 203.429688 488.757812 201.371094 489.164062 C 199.3125 489.574219 197.246094 489.933594 195.171875 490.242188 C 193.097656 490.550781 191.015625 490.808594 188.929688 491.011719 C 186.84375 491.21875 184.75 491.375 182.65625 491.476562 C 180.5625 491.578125 178.464844 491.632812 176.367188 491.632812 Z M 421.105469 491.632812 " fill-opacity="1" fill-rule="nonzero"/><g clip-path="url(#4253caedce)"><path fill="#1bbc9b" d="M 421.195312 496.886719 C 423.558594 496.882812 425.917969 496.824219 428.277344 496.703125 C 430.640625 496.585938 432.996094 496.410156 435.347656 496.175781 C 437.699219 495.941406 440.042969 495.652344 442.378906 495.304688 C 444.714844 494.953125 447.042969 494.546875 449.359375 494.085938 C 451.679688 493.621094 453.980469 493.101562 456.273438 492.527344 C 458.566406 491.953125 460.84375 491.320312 463.101562 490.632812 C 465.363281 489.945312 467.605469 489.203125 469.832031 488.40625 C 472.054688 487.609375 474.257812 486.757812 476.441406 485.851562 C 478.625 484.949219 480.785156 483.988281 482.921875 482.980469 C 485.054688 481.96875 487.164062 480.90625 489.25 479.789062 C 491.332031 478.675781 493.386719 477.511719 495.414062 476.296875 C 497.441406 475.082031 499.4375 473.816406 501.402344 472.503906 C 503.367188 471.191406 505.296875 469.832031 507.195312 468.421875 C 509.09375 467.015625 510.957031 465.5625 512.785156 464.0625 C 514.609375 462.566406 516.398438 461.023438 518.152344 459.4375 C 519.902344 457.847656 521.613281 456.222656 523.285156 454.550781 C 524.957031 452.878906 526.585938 451.167969 528.171875 449.417969 C 529.761719 447.667969 531.304688 445.882812 532.804688 444.054688 C 534.304688 442.230469 535.757812 440.367188 537.167969 438.46875 C 538.578125 436.574219 539.9375 434.644531 541.253906 432.679688 C 542.566406 430.714844 543.832031 428.71875 545.046875 426.695312 C 546.265625 424.667969 547.429688 422.613281 548.546875 420.53125 C 549.660156 418.449219 550.726562 416.339844 551.738281 414.203125 C 552.75 412.066406 553.710938 409.910156 554.617188 407.726562 C 555.523438 405.542969 556.375 403.339844 557.175781 401.117188 C 557.972656 398.894531 558.714844 396.652344 559.40625 394.390625 C 560.09375 392.128906 560.726562 389.855469 561.304688 387.5625 C 561.878906 385.273438 562.402344 382.96875 562.867188 380.652344 C 563.328125 378.332031 563.738281 376.007812 564.085938 373.667969 C 564.4375 371.332031 564.730469 368.988281 564.964844 366.636719 C 565.199219 364.285156 565.378906 361.929688 565.5 359.570312 C 565.617188 357.210938 565.679688 354.847656 565.683594 352.484375 L 565.683594 80.71875 C 565.683594 80.371094 565.652344 80.03125 565.582031 79.691406 C 565.515625 79.355469 565.417969 79.023438 565.285156 78.707031 C 565.152344 78.386719 564.988281 78.085938 564.796875 77.796875 C 564.605469 77.511719 564.390625 77.246094 564.144531 77 C 563.902344 76.757812 563.636719 76.539062 563.347656 76.347656 C 563.0625 76.15625 562.757812 75.996094 562.441406 75.863281 C 562.121094 75.730469 561.792969 75.628906 561.453125 75.5625 C 561.117188 75.496094 560.773438 75.460938 560.429688 75.460938 L 443.804688 75.460938 C 441.441406 75.464844 439.078125 75.527344 436.714844 75.644531 C 434.355469 75.761719 432 75.9375 429.644531 76.171875 C 427.292969 76.40625 424.945312 76.699219 422.609375 77.046875 C 420.269531 77.394531 417.941406 77.800781 415.621094 78.265625 C 413.304688 78.726562 410.996094 79.25 408.703125 79.824219 C 406.410156 80.402344 404.132812 81.03125 401.871094 81.71875 C 399.609375 82.40625 397.363281 83.152344 395.140625 83.949219 C 392.914062 84.746094 390.707031 85.597656 388.523438 86.503906 C 386.339844 87.410156 384.179688 88.371094 382.042969 89.382812 C 379.90625 90.394531 377.792969 91.457031 375.710938 92.570312 C 373.625 93.6875 371.566406 94.851562 369.539062 96.070312 C 367.511719 97.285156 365.515625 98.550781 363.550781 99.863281 C 361.585938 101.179688 359.652344 102.539062 357.753906 103.949219 C 355.855469 105.355469 353.992188 106.8125 352.164062 108.3125 C 350.335938 109.8125 348.542969 111.355469 346.792969 112.941406 C 345.039062 114.53125 343.328125 116.160156 341.65625 117.832031 C 339.984375 119.503906 338.355469 121.214844 336.765625 122.96875 C 335.175781 124.71875 333.632812 126.507812 332.132812 128.335938 C 330.632812 130.164062 329.175781 132.027344 327.769531 133.925781 C 326.359375 135.824219 324.996094 137.757812 323.683594 139.722656 C 322.367188 141.6875 321.101562 143.683594 319.886719 145.710938 C 318.667969 147.738281 317.503906 149.792969 316.386719 151.878906 C 315.273438 153.964844 314.207031 156.074219 313.195312 158.210938 C 312.183594 160.347656 311.222656 162.507812 310.316406 164.691406 C 309.410156 166.875 308.558594 169.082031 307.757812 171.308594 C 306.960938 173.53125 306.21875 175.777344 305.53125 178.039062 C 304.839844 180.300781 304.207031 182.578125 303.632812 184.871094 C 303.054688 187.164062 302.535156 189.46875 302.070312 191.789062 C 301.609375 194.105469 301.199219 196.4375 300.851562 198.773438 C 300.5 201.113281 300.210938 203.457031 299.976562 205.8125 C 299.742188 208.164062 299.5625 210.519531 299.445312 212.882812 C 299.324219 215.246094 299.265625 217.605469 299.261719 219.972656 L 299.261719 363.449219 C 299.257812 365.457031 299.207031 367.46875 299.109375 369.476562 C 299.007812 371.484375 298.859375 373.488281 298.660156 375.492188 C 298.460938 377.492188 298.210938 379.488281 297.914062 381.476562 C 297.617188 383.464844 297.273438 385.445312 296.878906 387.417969 C 296.488281 389.390625 296.042969 391.351562 295.554688 393.300781 C 295.066406 395.25 294.527344 397.1875 293.941406 399.113281 C 293.359375 401.035156 292.726562 402.945312 292.046875 404.835938 C 291.371094 406.730469 290.644531 408.605469 289.875 410.464844 C 289.105469 412.320312 288.289062 414.160156 287.429688 415.976562 C 286.566406 417.792969 285.664062 419.589844 284.714844 421.363281 C 283.765625 423.136719 282.777344 424.882812 281.742188 426.609375 C 280.707031 428.332031 279.632812 430.03125 278.515625 431.703125 C 277.394531 433.375 276.238281 435.019531 275.039062 436.632812 C 273.84375 438.25 272.605469 439.832031 271.332031 441.386719 C 270.054688 442.941406 268.742188 444.464844 267.390625 445.953125 C 266.039062 447.445312 264.65625 448.902344 263.234375 450.324219 C 261.8125 451.746094 260.355469 453.132812 258.867188 454.484375 C 257.375 455.832031 255.855469 457.148438 254.300781 458.421875 C 252.746094 459.699219 251.160156 460.9375 249.546875 462.136719 C 247.933594 463.332031 246.289062 464.492188 244.617188 465.609375 C 242.945312 466.726562 241.246094 467.804688 239.523438 468.839844 C 237.800781 469.875 236.050781 470.863281 234.277344 471.8125 C 232.503906 472.761719 230.710938 473.667969 228.890625 474.527344 C 227.074219 475.390625 225.238281 476.207031 223.378906 476.976562 C 221.523438 477.746094 219.648438 478.472656 217.753906 479.152344 C 215.863281 479.832031 213.953125 480.460938 212.03125 481.046875 C 210.105469 481.632812 208.167969 482.171875 206.21875 482.660156 C 204.269531 483.152344 202.308594 483.59375 200.335938 483.988281 C 198.363281 484.382812 196.382812 484.730469 194.394531 485.027344 C 192.40625 485.324219 190.410156 485.570312 188.410156 485.769531 C 186.410156 485.96875 184.40625 486.121094 182.394531 486.222656 C 180.386719 486.324219 178.378906 486.375 176.367188 486.375 L 176.351562 486.375 C 176.003906 486.375 175.664062 486.410156 175.324219 486.476562 C 174.984375 486.546875 174.65625 486.644531 174.339844 486.777344 C 174.019531 486.910156 173.71875 487.070312 173.429688 487.261719 C 173.144531 487.453125 172.878906 487.671875 172.632812 487.914062 C 172.390625 488.160156 172.171875 488.425781 171.980469 488.710938 C 171.789062 489 171.628906 489.300781 171.496094 489.621094 C 171.363281 489.941406 171.261719 490.269531 171.195312 490.605469 C 171.128906 490.945312 171.09375 491.285156 171.09375 491.632812 C 171.09375 491.976562 171.128906 492.320312 171.195312 492.65625 C 171.261719 492.996094 171.363281 493.324219 171.496094 493.644531 C 171.628906 493.960938 171.789062 494.265625 171.980469 494.550781 C 172.171875 494.839844 172.390625 495.101562 172.632812 495.347656 C 172.878906 495.589844 173.144531 495.808594 173.429688 496 C 173.71875 496.191406 174.019531 496.355469 174.339844 496.488281 C 174.65625 496.617188 174.984375 496.71875 175.324219 496.785156 C 175.664062 496.851562 176.003906 496.886719 176.351562 496.886719 Z M 555.175781 85.972656 L 555.175781 352.324219 C 555.171875 354.515625 555.117188 356.707031 555.007812 358.898438 C 554.898438 361.089844 554.734375 363.273438 554.519531 365.457031 C 554.300781 367.636719 554.03125 369.8125 553.707031 371.980469 C 553.386719 374.148438 553.007812 376.308594 552.582031 378.460938 C 552.152344 380.609375 551.667969 382.75 551.136719 384.875 C 550.601562 387 550.015625 389.113281 549.378906 391.210938 C 548.742188 393.308594 548.050781 395.390625 547.3125 397.453125 C 546.574219 399.519531 545.785156 401.5625 544.945312 403.589844 C 544.105469 405.613281 543.214844 407.617188 542.277344 409.597656 C 541.339844 411.582031 540.355469 413.539062 539.320312 415.472656 C 538.285156 417.40625 537.207031 419.3125 536.078125 421.195312 C 534.949219 423.074219 533.777344 424.925781 532.558594 426.75 C 531.339844 428.570312 530.078125 430.363281 528.773438 432.125 C 527.46875 433.886719 526.121094 435.613281 524.726562 437.308594 C 523.335938 439.003906 521.90625 440.664062 520.433594 442.289062 C 518.960938 443.914062 517.449219 445.5 515.902344 447.050781 C 514.351562 448.601562 512.765625 450.117188 511.140625 451.589844 C 509.515625 453.0625 507.855469 454.492188 506.164062 455.886719 C 504.46875 457.277344 502.742188 458.625 500.980469 459.933594 C 499.21875 461.238281 497.429688 462.503906 495.605469 463.722656 C 493.785156 464.941406 491.933594 466.117188 490.050781 467.242188 C 488.171875 468.371094 486.265625 469.453125 484.332031 470.488281 C 482.398438 471.523438 480.441406 472.511719 478.460938 473.449219 C 476.480469 474.390625 474.476562 475.277344 472.453125 476.121094 C 470.425781 476.960938 468.382812 477.75 466.320312 478.492188 C 464.253906 479.230469 462.175781 479.921875 460.078125 480.558594 C 457.980469 481.199219 455.867188 481.785156 453.742188 482.320312 C 451.617188 482.855469 449.476562 483.339844 447.328125 483.769531 C 445.179688 484.199219 443.019531 484.574219 440.851562 484.902344 C 438.683594 485.226562 436.507812 485.496094 434.324219 485.714844 C 432.144531 485.929688 429.957031 486.09375 427.769531 486.207031 C 425.578125 486.316406 423.386719 486.375 421.195312 486.375 C 421.164062 486.378906 421.132812 486.378906 421.105469 486.375 L 228.25 486.375 C 231.25 485.105469 234.199219 483.730469 237.097656 482.242188 C 239.996094 480.757812 242.835938 479.167969 245.617188 477.476562 C 248.398438 475.78125 251.117188 473.992188 253.765625 472.097656 C 256.417969 470.207031 258.996094 468.222656 261.5 466.140625 C 264.007812 464.058594 266.433594 461.890625 268.78125 459.632812 C 271.128906 457.375 273.390625 455.035156 275.566406 452.613281 C 277.742188 450.1875 279.828125 447.691406 281.820312 445.113281 C 283.8125 442.539062 285.710938 439.894531 287.511719 437.179688 C 289.308594 434.464844 291.007812 431.6875 292.605469 428.851562 C 294.203125 426.011719 295.695312 423.121094 297.078125 420.171875 C 298.464844 417.226562 299.738281 414.230469 300.90625 411.191406 C 302.074219 408.148438 303.125 405.070312 304.066406 401.953125 C 305.007812 398.835938 305.835938 395.6875 306.546875 392.507812 C 307.257812 389.332031 307.851562 386.128906 308.328125 382.910156 C 308.804688 379.6875 309.164062 376.453125 309.40625 373.203125 C 309.648438 369.957031 309.769531 366.703125 309.769531 363.449219 L 309.769531 220.007812 C 309.773438 217.8125 309.832031 215.621094 309.941406 213.433594 C 310.050781 211.242188 310.214844 209.054688 310.429688 206.875 C 310.648438 204.691406 310.917969 202.515625 311.242188 200.347656 C 311.566406 198.179688 311.945312 196.019531 312.375 193.867188 C 312.804688 191.71875 313.285156 189.582031 313.820312 187.453125 C 314.355469 185.328125 314.941406 183.214844 315.578125 181.117188 C 316.21875 179.019531 316.90625 176.9375 317.648438 174.875 C 318.386719 172.808594 319.175781 170.765625 320.019531 168.738281 C 320.859375 166.714844 321.746094 164.710938 322.6875 162.726562 C 323.625 160.746094 324.613281 158.789062 325.644531 156.855469 C 326.679688 154.921875 327.761719 153.015625 328.890625 151.132812 C 330.019531 149.253906 331.191406 147.402344 332.410156 145.578125 C 333.628906 143.757812 334.890625 141.964844 336.199219 140.203125 C 337.503906 138.441406 338.855469 136.714844 340.246094 135.019531 C 341.636719 133.324219 343.070312 131.664062 344.542969 130.039062 C 346.015625 128.414062 347.527344 126.828125 349.078125 125.277344 C 350.628906 123.726562 352.214844 122.214844 353.839844 120.742188 C 355.464844 119.269531 357.125 117.835938 358.820312 116.445312 C 360.515625 115.054688 362.242188 113.707031 364.003906 112.398438 C 365.765625 111.09375 367.558594 109.828125 369.378906 108.609375 C 371.203125 107.390625 373.054688 106.21875 374.933594 105.089844 C 376.816406 103.960938 378.722656 102.878906 380.65625 101.847656 C 382.589844 100.8125 384.546875 99.824219 386.527344 98.886719 C 388.511719 97.949219 390.515625 97.058594 392.539062 96.21875 C 394.566406 95.378906 396.609375 94.585938 398.675781 93.847656 C 400.738281 93.105469 402.820312 92.417969 404.917969 91.78125 C 407.015625 91.140625 409.128906 90.554688 411.253906 90.019531 C 413.382812 89.484375 415.519531 89.003906 417.667969 88.574219 C 419.820312 88.144531 421.980469 87.769531 424.148438 87.445312 C 426.316406 87.121094 428.492188 86.847656 430.675781 86.632812 C 432.855469 86.414062 435.042969 86.25 437.234375 86.140625 C 439.421875 86.03125 441.613281 85.976562 443.808594 85.972656 Z M 555.175781 85.972656 " fill-opacity="1" fill-rule="nonzero"/></g><path fill="#172738" d="M 580.722656 492.265625 C 578.6875 492.269531 576.65625 492.21875 574.625 492.121094 C 572.59375 492.023438 570.566406 491.875 568.542969 491.675781 C 566.519531 491.476562 564.503906 491.230469 562.492188 490.933594 C 560.480469 490.636719 558.476562 490.289062 556.484375 489.894531 C 554.488281 489.5 552.503906 489.054688 550.53125 488.5625 C 548.558594 488.070312 546.601562 487.527344 544.65625 486.941406 C 542.707031 486.351562 540.777344 485.714844 538.863281 485.03125 C 536.949219 484.347656 535.050781 483.617188 533.171875 482.839844 C 531.292969 482.0625 529.433594 481.242188 527.597656 480.371094 C 525.757812 479.503906 523.941406 478.589844 522.148438 477.632812 C 520.355469 476.675781 518.585938 475.675781 516.839844 474.632812 C 515.097656 473.585938 513.378906 472.5 511.6875 471.371094 C 509.996094 470.246094 508.332031 469.074219 506.699219 467.863281 C 505.066406 466.65625 503.464844 465.40625 501.890625 464.117188 C 500.316406 462.828125 498.777344 461.5 497.269531 460.136719 C 495.761719 458.773438 494.289062 457.371094 492.851562 455.933594 C 491.414062 454.496094 490.011719 453.027344 488.644531 451.519531 C 487.277344 450.015625 485.949219 448.476562 484.660156 446.90625 C 483.367188 445.335938 482.117188 443.734375 480.902344 442.101562 C 479.691406 440.46875 478.519531 438.808594 477.390625 437.117188 C 476.257812 435.429688 475.171875 433.710938 474.125 431.96875 C 473.078125 430.226562 472.074219 428.457031 471.117188 426.664062 C 470.15625 424.871094 469.242188 423.058594 468.371094 421.21875 C 467.5 419.382812 466.675781 417.527344 465.894531 415.648438 C 465.117188 413.769531 464.382812 411.875 463.699219 409.960938 C 463.011719 408.046875 462.375 406.117188 461.78125 404.171875 C 461.191406 402.226562 460.648438 400.265625 460.152344 398.296875 C 459.65625 396.324219 459.210938 394.339844 458.8125 392.347656 C 458.414062 390.351562 458.066406 388.351562 457.765625 386.339844 C 457.464844 384.328125 457.214844 382.3125 457.015625 380.289062 C 456.816406 378.265625 456.664062 376.238281 456.5625 374.207031 C 456.460938 372.175781 456.410156 370.144531 456.410156 368.113281 L 456.410156 125.632812 L 560.433594 125.632812 C 562.46875 125.628906 564.5 125.679688 566.53125 125.78125 C 568.5625 125.878906 570.59375 126.027344 572.617188 126.226562 C 574.640625 126.425781 576.660156 126.671875 578.671875 126.972656 C 580.683594 127.269531 582.6875 127.617188 584.679688 128.011719 C 586.675781 128.410156 588.660156 128.855469 590.632812 129.347656 C 592.605469 129.839844 594.566406 130.382812 596.511719 130.972656 C 598.460938 131.5625 600.390625 132.199219 602.304688 132.886719 C 604.21875 133.570312 606.117188 134.300781 607.996094 135.078125 C 609.875 135.855469 611.734375 136.679688 613.574219 137.550781 C 615.414062 138.417969 617.230469 139.332031 619.023438 140.292969 C 620.816406 141.25 622.585938 142.25 624.332031 143.296875 C 626.078125 144.339844 627.792969 145.429688 629.484375 146.558594 C 631.175781 147.6875 632.839844 148.859375 634.472656 150.070312 C 636.109375 151.28125 637.710938 152.53125 639.285156 153.820312 C 640.855469 155.113281 642.398438 156.4375 643.902344 157.804688 C 645.410156 159.171875 646.882812 160.570312 648.324219 162.011719 C 649.761719 163.449219 651.164062 164.921875 652.53125 166.425781 C 653.898438 167.933594 655.226562 169.472656 656.515625 171.042969 C 657.804688 172.617188 659.058594 174.21875 660.269531 175.851562 C 661.480469 177.484375 662.652344 179.148438 663.785156 180.839844 C 664.914062 182.53125 666.003906 184.246094 667.046875 185.992188 C 668.09375 187.734375 669.097656 189.503906 670.054688 191.296875 C 671.015625 193.09375 671.929688 194.90625 672.800781 196.746094 C 673.671875 198.585938 674.496094 200.445312 675.273438 202.324219 C 676.050781 204.203125 676.785156 206.097656 677.46875 208.011719 C 678.15625 209.929688 678.792969 211.859375 679.386719 213.804688 C 679.976562 215.75 680.519531 217.710938 681.015625 219.683594 C 681.507812 221.65625 681.953125 223.640625 682.351562 225.632812 C 682.75 227.628906 683.097656 229.632812 683.394531 231.644531 C 683.695312 233.65625 683.945312 235.675781 684.144531 237.699219 C 684.34375 239.722656 684.496094 241.75 684.59375 243.78125 C 684.695312 245.8125 684.746094 247.847656 684.746094 249.878906 L 684.746094 377.894531 C 684.746094 379.765625 684.792969 381.636719 684.882812 383.507812 C 684.972656 385.375 685.113281 387.242188 685.296875 389.105469 C 685.476562 390.964844 685.707031 392.824219 685.980469 394.675781 C 686.253906 396.527344 686.574219 398.371094 686.941406 400.207031 C 687.304688 402.039062 687.714844 403.867188 688.167969 405.683594 C 688.625 407.496094 689.121094 409.300781 689.664062 411.089844 C 690.207031 412.882812 690.792969 414.660156 691.425781 416.421875 C 692.054688 418.183594 692.726562 419.929688 693.445312 421.660156 C 694.160156 423.386719 694.917969 425.097656 695.71875 426.789062 C 696.519531 428.480469 697.359375 430.152344 698.242188 431.804688 C 699.125 433.453125 700.046875 435.082031 701.007812 436.6875 C 701.96875 438.292969 702.96875 439.875 704.007812 441.429688 C 705.046875 442.988281 706.125 444.515625 707.242188 446.019531 C 708.355469 447.523438 709.507812 449 710.691406 450.445312 C 711.878906 451.890625 713.101562 453.308594 714.359375 454.695312 C 715.617188 456.082031 716.90625 457.4375 718.226562 458.761719 C 719.550781 460.085938 720.90625 461.375 722.292969 462.632812 C 723.679688 463.890625 725.097656 465.113281 726.542969 466.300781 C 727.988281 467.488281 729.464844 468.636719 730.96875 469.753906 C 732.46875 470.867188 734 471.945312 735.554688 472.984375 C 737.113281 474.027344 738.691406 475.027344 740.296875 475.988281 C 741.902344 476.953125 743.53125 477.875 745.179688 478.757812 C 746.832031 479.640625 748.503906 480.480469 750.195312 481.28125 C 751.886719 482.082031 753.597656 482.839844 755.324219 483.554688 C 757.054688 484.273438 758.800781 484.945312 760.5625 485.578125 C 762.324219 486.207031 764.101562 486.792969 765.890625 487.339844 C 767.683594 487.882812 769.484375 488.382812 771.300781 488.835938 C 773.117188 489.289062 774.941406 489.699219 776.777344 490.066406 C 778.613281 490.433594 780.457031 490.75 782.308594 491.027344 C 784.15625 491.300781 786.015625 491.53125 787.878906 491.714844 C 789.738281 491.898438 791.605469 492.035156 793.476562 492.128906 C 795.34375 492.21875 797.214844 492.265625 799.085938 492.265625 Z M 580.722656 492.265625 " fill-opacity="1" fill-rule="nonzero"/><g clip-path="url(#ce3c749356)"><path fill="#172738" d="M 580.640625 496.957031 C 578.53125 496.953125 576.425781 496.898438 574.320312 496.792969 C 572.214844 496.6875 570.113281 496.53125 568.015625 496.320312 C 565.917969 496.113281 563.824219 495.851562 561.738281 495.542969 C 559.652344 495.230469 557.578125 494.867188 555.511719 494.457031 C 553.441406 494.042969 551.386719 493.578125 549.339844 493.066406 C 547.296875 492.550781 545.265625 491.988281 543.246094 491.375 C 541.230469 490.761719 539.230469 490.101562 537.246094 489.390625 C 535.261719 488.675781 533.292969 487.917969 531.347656 487.109375 C 529.398438 486.304688 527.472656 485.449219 525.566406 484.546875 C 523.660156 483.644531 521.777344 482.695312 519.917969 481.703125 C 518.058594 480.707031 516.226562 479.667969 514.417969 478.582031 C 512.609375 477.5 510.828125 476.371094 509.074219 475.199219 C 507.324219 474.027344 505.601562 472.816406 503.90625 471.558594 C 502.210938 470.304688 500.550781 469.007812 498.921875 467.667969 C 497.289062 466.332031 495.695312 464.957031 494.132812 463.539062 C 492.570312 462.125 491.042969 460.671875 489.550781 459.179688 C 488.058594 457.691406 486.605469 456.164062 485.191406 454.601562 C 483.773438 453.042969 482.394531 451.445312 481.058594 449.816406 C 479.71875 448.1875 478.421875 446.527344 477.164062 444.832031 C 475.90625 443.140625 474.691406 441.417969 473.519531 439.667969 C 472.347656 437.914062 471.21875 436.132812 470.132812 434.328125 C 469.046875 432.519531 468.007812 430.6875 467.011719 428.828125 C 466.015625 426.96875 465.066406 425.085938 464.164062 423.179688 C 463.261719 421.277344 462.40625 419.351562 461.597656 417.402344 C 460.789062 415.457031 460.027344 413.492188 459.3125 411.507812 C 458.601562 409.523438 457.9375 407.519531 457.324219 405.503906 C 456.710938 403.488281 456.144531 401.457031 455.628906 399.414062 C 455.113281 397.367188 454.648438 395.3125 454.234375 393.246094 C 453.820312 391.175781 453.457031 389.101562 453.144531 387.015625 C 452.832031 384.929688 452.570312 382.839844 452.363281 380.742188 C 452.152344 378.644531 451.992188 376.542969 451.886719 374.4375 C 451.78125 372.332031 451.722656 370.222656 451.722656 368.113281 L 451.722656 125.632812 C 451.722656 125.324219 451.75 125.019531 451.8125 124.714844 C 451.871094 124.414062 451.960938 124.121094 452.078125 123.835938 C 452.195312 123.550781 452.339844 123.28125 452.511719 123.027344 C 452.683594 122.769531 452.875 122.535156 453.09375 122.316406 C 453.3125 122.097656 453.546875 121.902344 453.804688 121.734375 C 454.0625 121.5625 454.332031 121.417969 454.617188 121.300781 C 454.898438 121.179688 455.191406 121.09375 455.496094 121.03125 C 455.796875 120.972656 456.101562 120.941406 456.410156 120.941406 L 560.464844 120.941406 C 562.574219 120.945312 564.683594 121 566.792969 121.105469 C 568.898438 121.210938 571 121.367188 573.101562 121.578125 C 575.199219 121.785156 577.292969 122.046875 579.378906 122.355469 C 581.464844 122.667969 583.542969 123.03125 585.613281 123.441406 C 587.683594 123.855469 589.738281 124.320312 591.785156 124.835938 C 593.832031 125.347656 595.863281 125.914062 597.882812 126.527344 C 599.902344 127.140625 601.902344 127.800781 603.890625 128.515625 C 605.875 129.226562 607.84375 129.984375 609.789062 130.792969 C 611.738281 131.601562 613.667969 132.457031 615.574219 133.359375 C 617.480469 134.265625 619.363281 135.214844 621.226562 136.207031 C 623.085938 137.203125 624.917969 138.242188 626.730469 139.328125 C 628.539062 140.414062 630.320312 141.542969 632.074219 142.714844 C 633.828125 143.886719 635.550781 145.101562 637.246094 146.359375 C 638.941406 147.617188 640.601562 148.914062 642.234375 150.25 C 643.863281 151.589844 645.460938 152.96875 647.023438 154.382812 C 648.589844 155.800781 650.117188 157.253906 651.609375 158.746094 C 653.101562 160.238281 654.554688 161.765625 655.972656 163.328125 C 657.386719 164.890625 658.765625 166.488281 660.105469 168.117188 C 661.445312 169.75 662.742188 171.410156 664 173.105469 C 665.257812 174.800781 666.472656 176.523438 667.644531 178.277344 C 668.816406 180.03125 669.945312 181.8125 671.03125 183.621094 C 672.117188 185.429688 673.160156 187.265625 674.152344 189.125 C 675.148438 190.984375 676.097656 192.867188 677.003906 194.773438 C 677.90625 196.679688 678.761719 198.609375 679.570312 200.558594 C 680.378906 202.507812 681.140625 204.472656 681.851562 206.457031 C 682.566406 208.445312 683.226562 210.445312 683.84375 212.464844 C 684.457031 214.484375 685.019531 216.515625 685.535156 218.5625 C 686.050781 220.609375 686.515625 222.664062 686.925781 224.734375 C 687.339844 226.800781 687.703125 228.878906 688.015625 230.964844 C 688.328125 233.054688 688.589844 235.144531 688.796875 237.246094 C 689.007812 239.34375 689.164062 241.449219 689.269531 243.554688 C 689.378906 245.660156 689.433594 247.769531 689.433594 249.878906 L 689.433594 377.894531 C 689.4375 379.6875 689.480469 381.484375 689.570312 383.273438 C 689.660156 385.066406 689.796875 386.855469 689.972656 388.640625 C 690.148438 390.425781 690.371094 392.207031 690.636719 393.980469 C 690.898438 395.753906 691.207031 397.523438 691.558594 399.28125 C 691.910156 401.042969 692.304688 402.792969 692.742188 404.53125 C 693.179688 406.273438 693.660156 408 694.179688 409.714844 C 694.703125 411.433594 695.265625 413.136719 695.871094 414.824219 C 696.476562 416.515625 697.121094 418.1875 697.808594 419.84375 C 698.496094 421.503906 699.226562 423.140625 699.992188 424.761719 C 700.761719 426.386719 701.566406 427.988281 702.414062 429.570312 C 703.257812 431.152344 704.144531 432.710938 705.066406 434.25 C 705.988281 435.789062 706.949219 437.304688 707.945312 438.796875 C 708.945312 440.289062 709.976562 441.753906 711.046875 443.195312 C 712.113281 444.636719 713.21875 446.050781 714.355469 447.4375 C 715.496094 448.824219 716.664062 450.183594 717.871094 451.511719 C 719.074219 452.839844 720.3125 454.140625 721.582031 455.410156 C 722.847656 456.679688 724.148438 457.914062 725.476562 459.121094 C 726.804688 460.324219 728.164062 461.496094 729.550781 462.636719 C 730.9375 463.773438 732.351562 464.878906 733.792969 465.949219 C 735.234375 467.019531 736.699219 468.050781 738.191406 469.046875 C 739.683594 470.046875 741.195312 471.007812 742.734375 471.929688 C 744.273438 472.851562 745.835938 473.738281 747.414062 474.585938 C 748.996094 475.429688 750.597656 476.238281 752.222656 477.007812 C 753.84375 477.773438 755.480469 478.503906 757.140625 479.191406 C 758.796875 479.878906 760.46875 480.523438 762.15625 481.132812 C 763.847656 481.738281 765.550781 482.300781 767.265625 482.824219 C 768.984375 483.34375 770.710938 483.824219 772.449219 484.261719 C 774.191406 484.699219 775.941406 485.09375 777.699219 485.445312 C 779.460938 485.796875 781.226562 486.105469 783 486.371094 C 784.777344 486.636719 786.554688 486.859375 788.339844 487.035156 C 790.125 487.214844 791.914062 487.347656 793.707031 487.4375 C 795.5 487.53125 797.292969 487.574219 799.085938 487.578125 L 799.101562 487.578125 C 799.410156 487.578125 799.714844 487.609375 800.015625 487.667969 C 800.316406 487.726562 800.613281 487.816406 800.894531 487.933594 C 801.179688 488.050781 801.449219 488.195312 801.707031 488.367188 C 801.960938 488.539062 802.199219 488.734375 802.417969 488.949219 C 802.632812 489.167969 802.828125 489.40625 803 489.660156 C 803.171875 489.917969 803.316406 490.1875 803.433594 490.472656 C 803.550781 490.757812 803.640625 491.050781 803.699219 491.351562 C 803.761719 491.652344 803.789062 491.957031 803.789062 492.265625 C 803.789062 492.574219 803.761719 492.878906 803.699219 493.179688 C 803.640625 493.484375 803.550781 493.777344 803.433594 494.0625 C 803.316406 494.34375 803.171875 494.617188 803 494.871094 C 802.828125 495.128906 802.632812 495.363281 802.417969 495.582031 C 802.199219 495.800781 801.960938 495.992188 801.707031 496.164062 C 801.449219 496.335938 801.179688 496.480469 800.894531 496.597656 C 800.613281 496.714844 800.316406 496.804688 800.015625 496.863281 C 799.714844 496.925781 799.410156 496.957031 799.101562 496.957031 Z M 461.097656 130.320312 L 461.097656 367.972656 C 461.101562 369.925781 461.148438 371.882812 461.246094 373.835938 C 461.34375 375.789062 461.492188 377.742188 461.683594 379.6875 C 461.875 381.632812 462.117188 383.574219 462.40625 385.507812 C 462.695312 387.445312 463.03125 389.371094 463.414062 391.289062 C 463.796875 393.207031 464.226562 395.117188 464.703125 397.011719 C 465.179688 398.910156 465.699219 400.796875 466.269531 402.667969 C 466.839844 404.539062 467.453125 406.394531 468.113281 408.238281 C 468.773438 410.078125 469.476562 411.902344 470.226562 413.710938 C 470.976562 415.519531 471.769531 417.304688 472.605469 419.074219 C 473.441406 420.84375 474.320312 422.589844 475.242188 424.3125 C 476.167969 426.039062 477.128906 427.742188 478.136719 429.417969 C 479.140625 431.097656 480.1875 432.75 481.277344 434.375 C 482.363281 436 483.488281 437.601562 484.652344 439.171875 C 485.820312 440.742188 487.023438 442.285156 488.261719 443.796875 C 489.503906 445.308594 490.78125 446.792969 492.09375 448.242188 C 493.410156 449.691406 494.757812 451.109375 496.140625 452.492188 C 497.523438 453.875 498.9375 455.222656 500.386719 456.539062 C 501.835938 457.851562 503.316406 459.128906 504.828125 460.371094 C 506.339844 461.613281 507.882812 462.816406 509.453125 463.984375 C 511.023438 465.148438 512.621094 466.277344 514.246094 467.363281 C 515.875 468.453125 517.523438 469.5 519.203125 470.507812 C 520.878906 471.511719 522.582031 472.480469 524.304688 473.402344 C 526.03125 474.324219 527.777344 475.207031 529.542969 476.042969 C 531.3125 476.882812 533.097656 477.675781 534.90625 478.425781 C 536.710938 479.175781 538.535156 479.882812 540.378906 480.542969 C 542.21875 481.203125 544.074219 481.816406 545.949219 482.386719 C 547.820312 482.957031 549.703125 483.480469 551.601562 483.957031 C 553.496094 484.4375 555.40625 484.867188 557.324219 485.25 C 559.242188 485.632812 561.167969 485.972656 563.101562 486.261719 C 565.039062 486.550781 566.980469 486.792969 568.925781 486.984375 C 570.871094 487.179688 572.820312 487.328125 574.777344 487.425781 C 576.730469 487.523438 578.683594 487.574219 580.640625 487.578125 C 580.667969 487.578125 580.695312 487.578125 580.722656 487.578125 L 752.792969 487.578125 C 750.117188 486.445312 747.488281 485.214844 744.902344 483.890625 C 742.316406 482.566406 739.78125 481.148438 737.296875 479.636719 C 734.816406 478.125 732.390625 476.527344 730.027344 474.839844 C 727.660156 473.148438 725.359375 471.378906 723.125 469.523438 C 720.890625 467.667969 718.722656 465.730469 716.628906 463.714844 C 714.535156 461.703125 712.519531 459.613281 710.578125 457.453125 C 708.636719 455.289062 706.773438 453.058594 704.996094 450.761719 C 703.21875 448.464844 701.527344 446.105469 699.917969 443.683594 C 698.3125 441.261719 696.796875 438.785156 695.375 436.25 C 693.949219 433.71875 692.617188 431.136719 691.382812 428.507812 C 690.144531 425.878906 689.007812 423.207031 687.964844 420.492188 C 686.925781 417.78125 685.984375 415.03125 685.144531 412.25 C 684.304688 409.46875 683.570312 406.660156 682.933594 403.824219 C 682.300781 400.988281 681.769531 398.132812 681.34375 395.257812 C 680.917969 392.386719 680.597656 389.5 680.382812 386.601562 C 680.167969 383.703125 680.058594 380.800781 680.058594 377.894531 L 680.058594 249.910156 C 680.054688 247.953125 680.003906 246 679.90625 244.046875 C 679.808594 242.089844 679.664062 240.140625 679.46875 238.195312 C 679.273438 236.246094 679.03125 234.304688 678.742188 232.371094 C 678.453125 230.433594 678.117188 228.507812 677.734375 226.589844 C 677.351562 224.671875 676.921875 222.761719 676.445312 220.867188 C 675.96875 218.96875 675.445312 217.082031 674.875 215.210938 C 674.304688 213.339844 673.691406 211.484375 673.03125 209.640625 C 672.371094 207.800781 671.664062 205.976562 670.914062 204.167969 C 670.164062 202.359375 669.371094 200.574219 668.535156 198.804688 C 667.695312 197.035156 666.816406 195.289062 665.894531 193.5625 C 664.96875 191.839844 664.003906 190.136719 663 188.460938 C 661.992188 186.78125 660.945312 185.128906 659.859375 183.503906 C 658.769531 181.878906 657.644531 180.277344 656.476562 178.707031 C 655.3125 177.136719 654.109375 175.59375 652.867188 174.082031 C 651.625 172.570312 650.347656 171.089844 649.03125 169.640625 C 647.71875 168.1875 646.371094 166.773438 644.988281 165.390625 C 643.601562 164.003906 642.1875 162.65625 640.738281 161.34375 C 639.289062 160.027344 637.804688 158.75 636.292969 157.507812 C 634.78125 156.269531 633.238281 155.066406 631.667969 153.898438 C 630.097656 152.734375 628.5 151.605469 626.871094 150.519531 C 625.246094 149.429688 623.59375 148.382812 621.914062 147.378906 C 620.238281 146.371094 618.535156 145.40625 616.8125 144.484375 C 615.085938 143.558594 613.339844 142.679688 611.570312 141.84375 C 609.804688 141.003906 608.015625 140.210938 606.207031 139.460938 C 604.402344 138.710938 602.578125 138.007812 600.734375 137.347656 C 598.894531 136.6875 597.035156 136.070312 595.164062 135.5 C 593.292969 134.933594 591.40625 134.410156 589.511719 133.933594 C 587.613281 133.453125 585.703125 133.023438 583.785156 132.640625 C 581.867188 132.257812 579.941406 131.921875 578.003906 131.632812 C 576.070312 131.34375 574.128906 131.101562 572.183594 130.910156 C 570.234375 130.714844 568.285156 130.570312 566.332031 130.46875 C 564.375 130.371094 562.421875 130.320312 560.464844 130.320312 Z M 461.097656 130.320312 " fill-opacity="1" fill-rule="nonzero"/></g><path fill="#cccbc9" d="M 625.421875 253.324219 C 625.421875 266.589844 614.648438 277.351562 601.375 277.351562 C 588.082031 277.351562 577.328125 266.589844 577.328125 253.324219 C 577.328125 240.054688 588.082031 229.300781 601.375 229.300781 C 614.648438 229.300781 625.421875 240.054688 625.421875 253.324219 " fill-opacity="1" fill-rule="nonzero"/><g clip-path="url(#e9d6ce192d)"><path fill="#cccbc9" d="M 246.015625 367.296875 C 246.015625 380.574219 235.246094 391.316406 221.964844 391.316406 C 208.679688 391.316406 197.910156 380.574219 197.910156 367.296875 C 197.910156 354.039062 208.679688 343.277344 221.964844 343.277344 C 235.246094 343.277344 246.015625 354.039062 246.015625 367.296875 " fill-opacity="1" fill-rule="nonzero"/></g><g clip-path="url(#6595557460)"><path fill="#cccbc9" d="M 387.066406 174.363281 C 387.066406 187.632812 376.292969 198.390625 363.019531 198.390625 C 349.730469 198.390625 338.960938 187.632812 338.960938 174.363281 C 338.960938 161.101562 349.730469 150.34375 363.019531 150.34375 C 376.292969 150.34375 387.066406 161.101562 387.066406 174.363281 " fill-opacity="1" fill-rule="nonzero"/></g><path fill="#87a1b0" d="M 484.328125 334.90625 C 484.328125 348.183594 473.570312 358.941406 460.28125 358.941406 C 446.992188 358.941406 436.234375 348.183594 436.234375 334.90625 C 436.234375 321.648438 446.992188 310.886719 460.28125 310.886719 C 473.570312 310.886719 484.328125 321.648438 484.328125 334.90625 " fill-opacity="1" fill-rule="nonzero"/><g clip-path="url(#61b0619eec)"><path fill="#87a1b0" d="M 413.628906 391.316406 C 413.628906 409.210938 399.121094 423.707031 381.21875 423.707031 C 363.304688 423.707031 348.792969 409.210938 348.792969 391.316406 C 348.792969 373.4375 363.304688 358.941406 381.21875 358.941406 C 399.121094 358.941406 413.628906 373.4375 413.628906 391.316406 " fill-opacity="1" fill-rule="nonzero"/></g><path fill="#87a1b0" d="M 492.707031 253.324219 C 492.707031 271.214844 478.179688 285.707031 460.28125 285.707031 C 442.367188 285.707031 427.855469 271.214844 427.855469 253.324219 C 427.855469 235.445312 442.367188 220.9375 460.28125 220.9375 C 478.179688 220.9375 492.707031 235.445312 492.707031 253.324219 " fill-opacity="1" fill-rule="nonzero"/><path fill="#87a1b0" d="M 580.558594 358.941406 C 580.019531 374.828125 567.996094 386.824219 552.09375 387.359375 C 536.191406 387.898438 524.136719 374.023438 523.628906 358.941406 C 523.089844 343.054688 536.980469 331.015625 552.09375 330.507812 C 567.980469 329.96875 580.035156 343.847656 580.558594 358.941406 C 580.71875 364.023438 588.636719 364.039062 588.480469 358.941406 C 587.78125 338.65625 572.386719 323.277344 552.09375 322.597656 C 531.800781 321.917969 516.355469 339.6875 515.707031 358.941406 C 515.027344 379.195312 532.816406 394.625 552.09375 395.273438 C 572.371094 395.96875 587.816406 378.183594 588.480469 358.941406 C 588.636719 353.832031 580.71875 353.847656 580.558594 358.941406 " fill-opacity="1" fill-rule="nonzero"/><path fill="#87a1b0" d="M 335.554688 326.550781 C 335.015625 342.4375 322.996094 354.449219 307.089844 354.988281 C 291.1875 355.507812 279.132812 341.632812 278.625 326.550781 C 278.085938 310.664062 291.984375 298.632812 307.089844 298.125 C 322.992188 297.589844 335.039062 311.457031 335.554688 326.550781 C 335.71875 331.632812 343.640625 331.664062 343.472656 326.550781 C 342.785156 306.277344 327.382812 290.894531 307.089844 290.214844 C 286.796875 289.527344 271.355469 307.304688 270.703125 326.550781 C 270.023438 346.820312 287.8125 362.25 307.089844 362.898438 C 327.371094 363.578125 342.816406 345.808594 343.472656 326.550781 C 343.640625 321.457031 335.71875 321.457031 335.554688 326.550781 " fill-opacity="1" fill-rule="nonzero"/><g clip-path="url(#a5ee1db000)"><path fill="#87a1b0" d="M 671.089844 383.941406 C 671.089844 397.757812 659.890625 408.945312 646.0625 408.945312 C 632.230469 408.945312 621.03125 397.757812 621.03125 383.941406 C 621.03125 370.128906 632.230469 358.941406 646.0625 358.941406 C 659.890625 358.941406 671.089844 370.128906 671.089844 383.941406 " fill-opacity="1" fill-rule="nonzero"/></g><g clip-path="url(#26cbbfa031)"><path fill="#e7edfb" d="M 495.457031 497.820312 L 530.789062 497.820312 L 530.789062 443.621094 L 495.457031 443.621094 L 495.457031 497.820312 " fill-opacity="1" fill-rule="evenodd"/></g><g clip-path="url(#cbcb5c0a73)"><path fill="#7a9eec" d="M 530.789062 497.820312 L 599.871094 497.820312 L 599.871094 443.621094 L 530.789062 443.621094 L 530.789062 497.820312 " fill-opacity="1" fill-rule="evenodd"/></g><path fill="#e7edfb" d="M 334.339844 416.773438 L 571.332031 416.773438 L 571.332031 405.402344 L 334.339844 405.402344 L 334.339844 416.773438 " fill-opacity="1" fill-rule="evenodd"/><path fill="#7a9eec" d="M 537.699219 416.773438 L 613.632812 416.773438 L 613.632812 405.402344 L 537.699219 405.402344 L 537.699219 416.773438 " fill-opacity="1" fill-rule="evenodd"/><path fill="#e7edfb" d="M 515.117188 347.734375 L 532.304688 347.734375 L 551.503906 404.777344 L 534.320312 404.777344 L 515.117188 347.734375 " fill-opacity="1" fill-rule="evenodd"/><path fill="#32b1df" d="M 537.195312 347.734375 L 532.304688 347.734375 L 551.503906 404.777344 L 556.398438 404.777344 L 537.195312 347.734375 " fill-opacity="1" fill-rule="evenodd"/><path fill="#32b1df" d="M 484.4375 401.992188 L 554.5625 399.742188 L 557.503906 406.359375 C 557.785156 406.992188 542.589844 406.359375 540.890625 406.359375 L 470.925781 406.359375 C 470.285156 406.359375 470.796875 403.535156 471.457031 403.488281 L 479.933594 402.976562 C 481.875 402.855469 483.796875 402.007812 484.4375 401.992188 " fill-opacity="1" fill-rule="evenodd"/><path fill="#e7edfb" d="M 484.261719 399.71875 L 554.570312 399.71875 C 555.117188 399.71875 554.058594 400.15625 552.222656 400.707031 L 546.074219 402.519531 C 544.242188 403.058594 542.292969 403.503906 541.757812 403.503906 L 471.449219 403.503906 C 470.902344 403.503906 471.957031 403.058594 473.800781 402.519531 L 479.933594 400.707031 C 481.773438 400.15625 483.722656 399.71875 484.261719 399.71875 " fill-opacity="1" fill-rule="evenodd"/><g clip-path="url(#66bd081996)"><path fill="#000000" d="M 537.699219 497.570312 L 545.84375 497.570312 L 545.84375 416.773438 L 537.699219 416.773438 L 537.699219 497.570312 " fill-opacity="1" fill-rule="evenodd"/></g><g clip-path="url(#0837c0729c)"><path fill="#000000" d="M 604.070312 497.570312 L 612.222656 497.570312 L 612.222656 416.773438 L 604.070312 416.773438 L 604.070312 497.570312 " fill-opacity="1" fill-rule="evenodd"/></g><g clip-path="url(#716deee036)"><path fill="#000000" d="M 306.957031 497.570312 L 315.109375 497.570312 L 315.109375 416.773438 L 306.957031 416.773438 L 306.957031 497.570312 " fill-opacity="1" fill-rule="evenodd"/></g><path fill="#2bb874" d="M 646.886719 450.445312 C 646.886719 450.445312 640.730469 440.21875 634.460938 434.179688 C 628.191406 428.15625 620.550781 414.757812 621.675781 406.136719 C 622.808594 397.527344 623.199219 394.457031 620.207031 390.421875 C 617.234375 386.378906 620.515625 376.554688 625.066406 368.042969 C 629.625 359.535156 629.753906 360.097656 630.355469 351.527344 C 630.972656 342.960938 628.164062 338.90625 630.292969 340.28125 C 632.4375 341.671875 650.441406 358.835938 651.257812 369.136719 C 652.085938 379.441406 650.058594 381.363281 653.570312 387.523438 C 657.082031 393.667969 657.796875 405.421875 652.875 416.71875 C 647.953125 427.996094 645.714844 448.597656 646.886719 450.445312 " fill-opacity="1" fill-rule="evenodd"/><path fill="#000000" d="M 647.347656 477.535156 C 646.691406 466.625 647.714844 458.011719 644.246094 447.285156 C 641.371094 438.359375 635.175781 427.867188 635.675781 418.402344 C 636.851562 396.863281 636.914062 376.027344 635.613281 354.855469 C 635.472656 352.6875 635.5 353.730469 635.5 351.609375 C 636.117188 353.898438 636.363281 355.898438 636.640625 358.257812 C 638.910156 377.367188 638.9375 398.539062 638.25 418.160156 C 637.945312 426.652344 643.476562 435.992188 646.394531 443.8125 C 650.535156 454.878906 650.351562 463.019531 650.839844 474.890625 C 650.867188 475.792969 650.945312 476.675781 651.035156 477.535156 L 647.347656 477.535156 " fill-opacity="1" fill-rule="evenodd"/><path fill="#2bb874" d="M 655.476562 453.21875 C 655.289062 451.515625 660.40625 435.898438 660.253906 427.980469 C 660.117188 420.066406 654.695312 409.59375 658.335938 398.355469 C 661.964844 387.089844 673.785156 375.738281 678.464844 368.554688 C 683.128906 361.355469 688.148438 350.234375 688.949219 350.851562 C 689.375 351.183594 690.804688 359.347656 691.660156 368.253906 L 692.09375 384.609375 C 691.957031 386.183594 691.742188 387.550781 691.417969 388.644531 C 688.726562 397.777344 682.921875 402.640625 681.835938 410.136719 C 680.765625 417.621094 679.21875 428.621094 672.160156 436.382812 C 665.101562 444.148438 659.289062 449.160156 655.476562 453.21875 " fill-opacity="1" fill-rule="evenodd"/><path fill="#000000" d="M 650.191406 477.535156 C 651.269531 468.363281 652.679688 459.78125 657.210938 449.535156 C 659.492188 444.371094 662.046875 435.554688 663.691406 430.089844 C 665.71875 423.359375 667.703125 416.691406 669.011719 409.886719 C 669.800781 405.773438 676.253906 395.535156 678.632812 391.046875 C 682.570312 383.570312 684.15625 379.578125 685.78125 371.574219 C 686.050781 377.941406 682.699219 385.503906 679.734375 391.507812 C 677.84375 395.359375 671.363281 406.582031 670.816406 409.753906 C 669.679688 416.355469 668.101562 422.234375 666.277344 428.777344 C 664.582031 434.820312 661.929688 444.632812 659.484375 450.363281 C 655.320312 460.132812 654.046875 468.613281 653.113281 477.535156 L 650.191406 477.535156 " fill-opacity="1" fill-rule="evenodd"/><g clip-path="url(#fd6c39e483)"><path fill="#2bb874" d="M 669.714844 446.316406 C 688.6875 421.082031 691.722656 417.304688 715.273438 403.765625 C 715.273438 403.765625 713.210938 407.222656 711.425781 411.214844 C 709.632812 415.183594 707.9375 422.625 707.796875 426.855469 C 707.667969 431.085938 698.929688 442.679688 698.929688 442.679688 C 696.082031 447.792969 695.234375 449.414062 695.195312 453.953125 C 695.148438 460.460938 684.320312 471.8125 679.5625 475.625 C 678.472656 476.507812 677.230469 477.347656 675.949219 478.117188 C 675.949219 478.117188 668.222656 483.410156 664.277344 486.996094 C 661.230469 489.777344 659.148438 495.199219 658.375 497.515625 L 653.878906 497.515625 C 654.296875 484.449219 654.832031 470.128906 658.835938 459.996094 C 661.15625 454.136719 664.945312 452.65625 669.714844 446.316406 " fill-opacity="1" fill-rule="evenodd"/></g><path fill="#2d3e32" d="M 617.683594 455.589844 C 617.683594 455.589844 627.339844 458.367188 633.265625 462.628906 C 638.59375 466.457031 642.203125 476.101562 644.460938 477.535156 L 645.371094 477.535156 C 647.117188 475.289062 644.070312 451.148438 639.929688 447.730469 C 635.660156 444.179688 629.652344 442.800781 626.488281 443.304688 C 623.320312 443.8125 617.683594 455.589844 617.683594 455.589844 " fill-opacity="1" fill-rule="evenodd"/><g clip-path="url(#d1525c928e)"><path fill="#000000" d="M 639.308594 459.714844 C 637.699219 456.078125 637.433594 455.234375 634.675781 452.296875 L 633.96875 451.570312 C 637.339844 452.832031 638.851562 455.886719 640.460938 458.917969 C 646.746094 470.84375 646.738281 484.363281 647.847656 497.515625 L 645.242188 497.570312 C 644.230469 485.667969 644.164062 470.699219 639.308594 459.714844 " fill-opacity="1" fill-rule="evenodd"/></g><path fill="#2bb874" d="M 640.042969 447.820312 C 640.042969 447.820312 635.203125 440.839844 630.199219 440.503906 C 625.214844 440.171875 624.757812 440.363281 624.757812 440.363281 C 624.757812 440.363281 614.34375 433.214844 608.15625 433.976562 C 601.960938 434.738281 596.261719 447.960938 595.878906 456.453125 C 595.507812 464.929688 594.210938 473.347656 592.558594 476.324219 C 590.894531 479.316406 587.933594 496.410156 587.710938 496.789062 L 607.105469 477.535156 C 609.289062 476.324219 611.324219 475.09375 612.976562 473.945312 C 620.535156 468.640625 628.6875 452.945312 633.320312 449.785156 C 637.953125 446.632812 640.042969 447.820312 640.042969 447.820312 " fill-opacity="1" fill-rule="evenodd"/><path fill="#464a3e" d="M 625.445312 441.527344 C 615.558594 442.019531 611.953125 452.546875 607.238281 461.269531 C 605.667969 464.1875 596.261719 484.246094 592.9375 484.113281 C 597.023438 481.234375 606.363281 459.015625 608.78125 453.792969 C 611.289062 448.335938 612.183594 443.515625 615.796875 441.097656 C 619.34375 438.738281 625.539062 438.707031 632.519531 441.003906 C 633.273438 441.277344 634.890625 441.210938 634.917969 441.878906 C 630.367188 441.121094 625.445312 441.515625 625.445312 441.515625 L 625.445312 441.527344 " fill-opacity="1" fill-rule="evenodd"/><g clip-path="url(#2d4478189d)"><path fill="#000000" d="M 647.183594 472.585938 L 647.847656 497.515625 L 651.222656 497.515625 L 653.5625 472.054688 L 647.183594 472.585938 " fill-opacity="1" fill-rule="evenodd"/></g><path fill="#7a9eec" d="M 471.496094 283.617188 L 596.105469 283.617188 L 595.742188 281.480469 L 599.957031 284.417969 L 599.957031 284.425781 C 601.394531 285.421875 602.082031 287.265625 601.582031 289.34375 L 583.113281 366.199219 C 582.351562 369.351562 579.15625 371.929688 576.019531 371.929688 L 450.277344 371.929688 C 449.3125 371.929688 448.449219 371.683594 447.753906 371.257812 L 447.753906 371.25 C 447.609375 371.164062 447.480469 371.082031 447.363281 370.980469 L 442.894531 367.855469 L 443.769531 363.855469 C 443.769531 363.855469 444.789062 364.535156 446.117188 365.417969 L 464.398438 289.34375 C 465.160156 286.191406 468.355469 283.617188 471.496094 283.617188 " fill-opacity="1" fill-rule="evenodd"/><path fill="#1a1a1a" d="M 467.109375 280.558594 L 592.855469 280.558594 C 596.003906 280.558594 597.953125 283.132812 597.199219 286.285156 L 578.722656 363.140625 C 577.96875 366.292969 574.773438 368.867188 571.628906 368.867188 L 445.894531 368.867188 C 442.746094 368.867188 440.789062 366.292969 441.546875 363.140625 L 460.015625 286.285156 C 460.777344 283.132812 463.964844 280.558594 467.109375 280.558594 " fill-opacity="1" fill-rule="evenodd"/><path fill="#1a1a1a" d="M 467.109375 283.945312 C 465.480469 283.945312 463.6875 285.503906 463.304688 287.078125 L 444.835938 363.929688 C 444.613281 364.859375 444.890625 365.484375 445.894531 365.484375 L 571.628906 365.484375 C 573.261719 365.484375 575.066406 363.921875 575.433594 362.347656 L 593.914062 285.488281 C 594.136719 284.554688 593.855469 283.945312 592.855469 283.945312 L 467.109375 283.945312 " fill-opacity="1" fill-rule="evenodd"/><path fill="#92d6ee" d="M 467.132812 286.882812 C 466.824219 286.925781 466.242188 287.46875 466.15625 287.765625 L 448.1875 362.546875 L 571.609375 362.546875 C 571.925781 362.488281 572.5 361.957031 572.585938 361.660156 L 590.550781 286.882812 L 467.132812 286.882812 " fill-opacity="1" fill-rule="evenodd"/><path fill="#e6e6e6" d="M 467.132812 286.882812 C 466.824219 286.925781 466.242188 287.46875 466.15625 287.765625 L 464.335938 295.34375 L 588.519531 295.34375 L 590.550781 286.882812 L 467.132812 286.882812 " fill-opacity="1" fill-rule="evenodd"/><path fill="#b45c43" d="M 499.898438 360.628906 C 499.898438 360.628906 500.519531 358.324219 504.03125 352.808594 C 507.550781 347.285156 504.355469 340.542969 505.554688 340.542969 C 506.75 340.542969 505.386719 331.347656 506.222656 330.148438 C 507.046875 328.949219 522.964844 319.699219 526.222656 318.246094 C 529.492188 316.796875 531.511719 321.703125 531.511719 321.703125 C 531.511719 321.703125 556.585938 338.015625 551.300781 341.988281 C 549 343.707031 540.542969 354.183594 531.039062 362.546875 L 527.269531 348.71875 L 500.410156 362.546875 C 500.230469 361.929688 500.054688 361.300781 499.898438 360.628906 " fill-opacity="1" fill-rule="evenodd"/><path fill="#c8664a" d="M 526.898438 318.03125 C 526.898438 318.03125 534.136719 314.089844 542.460938 312.25 C 550.789062 310.398438 576.800781 312.695312 581.652344 319.324219 C 581.972656 319.761719 582.222656 320.246094 582.410156 320.777344 L 572.371094 362.546875 L 513.445312 362.546875 C 518.171875 341.027344 526.898438 318.03125 526.898438 318.03125 " fill-opacity="1" fill-rule="evenodd"/><path fill="#b45c43" d="M 572.371094 362.546875 L 566.964844 362.546875 C 566.511719 360.871094 564.476562 357.582031 564.429688 353.152344 C 564.367188 347.703125 567.785156 342.339844 567.070312 338.152344 C 566.027344 332.164062 570.644531 327.917969 570.644531 327.917969 C 570.644531 327.917969 569.34375 339.800781 571.941406 345.34375 C 573.09375 347.796875 574.191406 349.859375 575.054688 351.394531 L 572.371094 362.546875 " fill-opacity="1" fill-rule="evenodd"/><path fill="#fe9365" d="M 543.894531 300.726562 C 543.894531 300.726562 542.40625 310.753906 541.851562 311.632812 C 541.292969 312.527344 538.378906 313.382812 538.378906 313.382812 C 538.378906 313.382812 537.363281 324.28125 542.84375 327.601562 C 548.332031 330.910156 563.8125 315.140625 564.109375 314.0625 C 564.40625 312.980469 561.972656 313.039062 561.144531 311.003906 C 560.316406 308.957031 561.570312 287.335938 561.570312 287.335938 L 556.875 291.417969 L 543.894531 300.726562 " fill-opacity="1" fill-rule="evenodd"/><path fill="#e5845b" d="M 543.753906 302.21875 C 543.753906 302.21875 543.316406 305.300781 542.816406 308.371094 C 544.914062 308.695312 549.398438 309.125 555.425781 308.175781 C 557.539062 307.851562 559.277344 307.46875 560.6875 307.078125 C 560.839844 299.238281 561.570312 287.335938 561.570312 287.335938 L 556.828125 291.863281 L 543.753906 302.21875 " fill-opacity="1" fill-rule="evenodd"/><path fill="#c8664a" d="M 571.023438 344.011719 C 571.023438 344.011719 574.617188 321.308594 580.058594 318.75 C 580.792969 318.40625 581.703125 318.683594 582.734375 319.429688 L 574.832031 352.308594 C 573.320312 349.984375 571.894531 347.191406 571.023438 344.011719 " fill-opacity="1" fill-rule="evenodd"/><path fill="#422517" d="M 555.757812 274.125 C 555.757812 274.125 557.113281 286.109375 558.050781 286.613281 C 558.507812 286.851562 560.207031 285.476562 560.464844 289.046875 C 560.734375 292.84375 560.234375 298.367188 560.679688 298.496094 C 561.535156 298.746094 564.441406 292.8125 565.628906 290.394531 C 566.808594 287.96875 568.367188 282.976562 568.292969 279.015625 C 568.277344 277.953125 566.28125 278.59375 565.128906 277.640625 C 561.992188 275.027344 556.457031 272.171875 555.757812 274.125 " fill-opacity="1" fill-rule="evenodd"/><path fill="#fe9365" d="M 538.554688 276.691406 C 538.542969 276.800781 537.914062 277.769531 537.921875 277.878906 C 538.3125 283.757812 536.433594 288.390625 536.148438 291.28125 C 535.859375 294.171875 537.28125 301.378906 541.015625 304.082031 C 542.242188 304.96875 545.820312 304.886719 547.179688 304.808594 C 553.011719 304.496094 557.914062 298.699219 559.863281 294.265625 C 561.351562 290.882812 560.484375 289.019531 560.78125 285.988281 C 560.78125 285.988281 559.390625 288.324219 558.296875 285.125 C 557.96875 284.160156 558.25 277.898438 557.867188 276.949219 C 557.003906 276.636719 555.460938 276.105469 549.847656 275.527344 C 544.226562 274.960938 539.621094 276.152344 538.554688 276.691406 " fill-opacity="1" fill-rule="evenodd"/><path fill="#fe9365" d="M 556.847656 288.667969 C 556.847656 288.667969 558.859375 283.691406 562.277344 283.691406 C 565.6875 283.691406 563.300781 289.664062 561.210938 291.472656 C 559.109375 293.289062 557.800781 293.773438 557.46875 293.523438 C 557.132812 293.261719 556.847656 288.667969 556.847656 288.667969 " fill-opacity="1" fill-rule="evenodd"/><path fill="#e5845b" d="M 555.136719 284.945312 C 555.136719 284.945312 553.890625 283.273438 551.273438 283.386719 C 548.65625 283.488281 548.199219 285.414062 548.332031 285.773438 C 548.460938 286.140625 552.0625 285.597656 553.289062 286.109375 C 554.507812 286.625 555.378906 286.128906 555.136719 284.945312 " fill-opacity="1" fill-rule="evenodd"/><path fill="#e5845b" d="M 544.011719 285.238281 C 544.011719 285.238281 542.765625 283.5625 540.152344 283.675781 C 537.535156 283.773438 537.773438 285.84375 537.902344 286.191406 C 538.035156 286.554688 540.9375 285.886719 542.15625 286.398438 C 543.382812 286.910156 544.253906 286.417969 544.011719 285.238281 " fill-opacity="1" fill-rule="evenodd"/><path fill="#000000" d="M 539.785156 285.328125 C 539.785156 285.328125 539.878906 286.101562 539.855469 286.460938 C 539.828125 286.835938 539.640625 288.070312 540.363281 288.109375 C 541.089844 288.136719 541.828125 286.882812 541.683594 285.886719 C 541.53125 284.894531 539.785156 285.328125 539.785156 285.328125 Z M 550.949219 285.078125 C 550.949219 285.078125 551.050781 285.847656 551.023438 286.222656 C 550.996094 286.582031 550.8125 287.832031 551.535156 287.859375 C 552.257812 287.894531 553 286.640625 552.855469 285.632812 C 552.703125 284.640625 550.949219 285.078125 550.949219 285.078125 " fill-opacity="1" fill-rule="evenodd"/><path fill="#e5845b" d="M 546.660156 285.804688 C 546.660156 285.804688 546.449219 289.09375 546.1875 290.0625 C 545.9375 291.019531 545.210938 292.609375 545.210938 292.609375 C 545.210938 292.609375 546.75 293.464844 546.324219 293.492188 C 545.015625 293.597656 544.039062 293.269531 543.78125 292.671875 C 543.585938 292.238281 543.707031 291.511719 544.050781 291.128906 C 545.359375 289.652344 546.363281 285.703125 546.660156 285.804688 " fill-opacity="1" fill-rule="evenodd"/><path fill="#ffffff" d="M 549.722656 295.59375 C 549.230469 295.382812 547.78125 295.566406 544.800781 295.621094 C 541.8125 295.6875 541.050781 295.195312 540.542969 295.398438 C 540.328125 295.480469 541.542969 298.207031 543.214844 298.738281 C 547.011719 299.945312 550.550781 295.660156 549.722656 295.59375 " fill-opacity="1" fill-rule="evenodd"/><path fill="#000000" d="M 545.136719 281.609375 C 545.582031 281.722656 545.816406 282.175781 545.664062 282.621094 C 545.519531 283.082031 545.035156 283.359375 544.597656 283.253906 C 543.882812 283.082031 542.910156 282.929688 541.898438 282.929688 C 541.125 282.917969 540.335938 282.996094 539.640625 283.210938 C 539.1875 283.339844 538.738281 283.085938 538.644531 282.652344 C 538.554688 282.207031 538.851562 281.730469 539.304688 281.601562 C 540.1875 281.339844 541.144531 281.238281 542.0625 281.246094 C 543.230469 281.257812 544.335938 281.421875 545.136719 281.609375 " fill-opacity="1" fill-rule="nonzero"/><path fill="#924b36" d="M 536.492188 316.5 C 536.046875 318.8125 536.429688 321.40625 537.214844 323.777344 C 538.152344 326.597656 539.6875 329.082031 541.136719 330.390625 C 541.804688 330.984375 540.902344 330.175781 541.265625 330.511719 C 542.324219 331.457031 542.683594 331.796875 544.144531 331.691406 C 546.882812 331.503906 550.207031 329.859375 553.371094 327.769531 C 559.175781 323.945312 564.394531 318.71875 564.644531 318.191406 L 565.210938 318.414062 C 564.941406 318.972656 559.585938 324.402344 553.6875 328.289062 C 550.429688 330.4375 546.996094 332.128906 544.125 332.324219 C 542.417969 332.4375 542.007812 332.0625 540.816406 330.992188 C 540.542969 330.742188 541.441406 331.550781 540.6875 330.875 C 539.175781 329.507812 537.585938 326.929688 536.613281 324.023438 C 535.792969 321.566406 535.40625 318.871094 535.871094 316.441406 L 536.492188 316.5 " fill-opacity="1" fill-rule="nonzero"/><path fill="#422517" d="M 539.40625 271.660156 C 538.015625 274.617188 538.554688 277.824219 540.808594 278.4375 C 547.589844 280.277344 553.269531 277.640625 558.050781 278.578125 C 561.03125 279.152344 557.988281 276.222656 557.988281 276.222656 L 549.242188 272.878906 L 539.40625 271.660156 " fill-opacity="1" fill-rule="evenodd"/><path fill="#422517" d="M 537.457031 286.277344 C 537.457031 286.277344 535.980469 284.242188 536.195312 281.648438 C 536.40625 279.054688 536.289062 278.328125 536.289062 278.328125 C 536.289062 278.328125 539.070312 276.691406 538.972656 277.0625 C 538.867188 277.433594 537.644531 283.554688 537.457031 286.277344 " fill-opacity="1" fill-rule="evenodd"/><path stroke-linecap="butt" transform="matrix(0.0915753, 0, 0, -0.0917063, 275.266603, 497.821385)" fill="none" stroke-linejoin="miter" d="M 2863.111862 2306.756378 C 2863.111862 2306.756378 2846.987843 2328.948493 2849.33393 2357.231726 C 2851.637361 2385.514959 2850.357677 2393.437671 2850.357677 2393.437671 C 2850.357677 2393.437671 2880.728847 2411.285073 2879.662443 2407.238526 C 2878.510727 2403.191979 2865.159357 2336.445254 2863.111862 2306.756378 Z M 2863.111862 2306.756378 " stroke="#000000" stroke-width="5.669" stroke-opacity="1" stroke-miterlimit="10"/><path fill="#000000" d="M 555.316406 281.636719 C 555.757812 281.75 555.992188 282.195312 555.839844 282.652344 C 555.695312 283.105469 555.210938 283.386719 554.773438 283.273438 C 554.058594 283.105469 553.082031 282.957031 552.070312 282.949219 C 551.300781 282.949219 550.511719 283.023438 549.816406 283.226562 C 549.363281 283.367188 548.914062 283.117188 548.824219 282.671875 C 548.730469 282.230469 549.027344 281.757812 549.480469 281.628906 C 550.355469 281.367188 551.320312 281.265625 552.238281 281.273438 C 553.410156 281.273438 554.515625 281.441406 555.316406 281.636719 " fill-opacity="1" fill-rule="nonzero"/><path fill="#422517" d="M 540.699219 276.644531 C 540.699219 276.644531 537.207031 279.859375 536.304688 279.980469 C 536.15625 280 536.148438 276.691406 536.777344 274.265625 C 539.84375 262.546875 551.320312 264.679688 554.960938 264.871094 C 563.875 265.355469 569.464844 270.453125 568.285156 279.898438 C 568.042969 281.816406 552.890625 275.890625 552.890625 275.890625 L 544.449219 276.222656 L 540.699219 276.644531 " fill-opacity="1" fill-rule="evenodd"/><path stroke-linecap="butt" transform="matrix(0.0915753, 0, 0, -0.0917063, 275.266603, 497.821385)" fill="none" stroke-linejoin="miter" d="M 2898.516455 2411.796216 C 2898.516455 2411.796216 2860.381869 2376.740341 2850.528302 2375.419889 C 2848.907369 2375.206913 2848.822056 2411.285073 2855.689694 2437.736711 C 2889.174762 2565.522401 3014.498491 2542.265405 3054.25401 2540.178239 C 3151.595313 2534.89643 3212.636245 2479.309655 3199.754091 2376.314389 C 3197.109411 2355.400131 3031.646257 2420.017095 3031.646257 2420.017095 L 2939.466346 2416.3965 Z M 2898.516455 2411.796216 " stroke="#000000" stroke-width="5.669" stroke-opacity="1" stroke-miterlimit="10"/><path fill="#e5845b" d="M 540.542969 295.398438 C 540.542969 295.398438 541.46875 296.082031 544.503906 296.292969 C 547.542969 296.496094 550.050781 295.667969 549.964844 295.550781 C 549.777344 295.296875 546.742188 295.242188 546.105469 295.316406 C 545.621094 295.382812 545.210938 295.632812 544.65625 295.539062 C 544.105469 295.453125 543.660156 295.074219 543.074219 295.089844 C 542.492188 295.109375 540.542969 295.398438 540.542969 295.398438 " fill-opacity="1" fill-rule="evenodd"/><path fill="#422517" d="M 537.023438 277.292969 C 537.023438 277.292969 533.625 274.53125 534.851562 271.027344 C 536.074219 267.53125 539.75 267.679688 540.558594 267.835938 C 541.367188 267.996094 538.867188 265.679688 544.050781 264.101562 C 549.242188 262.519531 553.222656 263.507812 557.523438 265.226562 C 561.824219 266.933594 537.023438 277.292969 537.023438 277.292969 " fill-opacity="1" fill-rule="evenodd"/><path stroke-linecap="butt" transform="matrix(0.0915753, 0, 0, -0.0917063, 275.266603, 497.821385)" fill="none" stroke-linejoin="miter" d="M 2858.377031 2404.725407 C 2858.377031 2404.725407 2821.266192 2434.840235 2834.660219 2473.048156 C 2848.01159 2511.170887 2888.151014 2509.552269 2896.980835 2507.848459 C 2905.810655 2506.102055 2878.510727 2531.361026 2935.115421 2548.569499 C 2991.805426 2565.820567 3035.272029 2555.043974 3082.236435 2536.302073 C 3129.200842 2517.687957 2858.377031 2404.725407 2858.377031 2404.725407 Z M 2858.377031 2404.725407 " stroke="#000000" stroke-width="5.669" stroke-opacity="1" stroke-miterlimit="10"/><path fill="#fe9365" d="M 503.609375 306.191406 C 503.609375 306.191406 501.578125 301.441406 500.835938 299.742188 C 500.101562 298.039062 498.042969 291.820312 497.855469 291.511719 C 497.664062 291.214844 496.464844 291.640625 496.265625 292.671875 C 496.074219 293.714844 498.449219 301.601562 498.339844 301.855469 C 498.226562 302.113281 497.402344 302.386719 497.402344 302.386719 C 497.402344 302.386719 492.816406 293.699219 492.402344 293.4375 C 491.996094 293.179688 490.484375 293.335938 491.105469 295.511719 C 491.71875 297.6875 494.976562 304.558594 494.875 304.875 C 494.773438 305.191406 489.257812 296.191406 488.488281 296.386719 C 487.714844 296.582031 487.519531 298.105469 488.496094 299.574219 C 489.480469 301.050781 492.878906 307.023438 492.960938 307.617188 C 493.042969 308.214844 487.835938 302.679688 487.648438 302.398438 C 487.464844 302.113281 486.648438 302.492188 487.324219 304.457031 C 488.003906 306.425781 491.949219 311.308594 492.554688 312.152344 C 493.160156 313.003906 495.441406 318.457031 497.382812 320.234375 C 499.320312 322 501.097656 321.984375 501.8125 321.628906 C 509.976562 317.679688 508.941406 313.882812 508.738281 306.492188 C 508.671875 304.160156 509.238281 302.53125 510.085938 301.191406 C 510.929688 299.863281 511.273438 299.042969 511.273438 299.042969 C 511.273438 299.042969 510 298.429688 507.707031 300.246094 C 505.402344 302.066406 505.722656 304.625 503.609375 306.191406 " fill-opacity="1" fill-rule="evenodd"/><path fill="#fe9365" d="M 507.753906 316.773438 L 508.96875 356.929688 C 508.96875 356.929688 500.707031 364.601562 496.855469 365.484375 C 491.726562 366.65625 491.140625 357.550781 491.105469 357.199219 C 491.023438 356.566406 498.300781 319.445312 498.300781 319.445312 L 507.753906 316.773438 " fill-opacity="1" fill-rule="evenodd"/><path fill="#32b1df" d="M 472.496094 350.234375 C 473.417969 349.453125 489.582031 339.5 488.160156 334.238281 C 486.75 328.976562 474.800781 340.234375 474.800781 340.234375 C 474.800781 340.234375 487.085938 319.902344 481.742188 315.398438 C 476.425781 310.898438 469.757812 329.988281 469.757812 329.988281 C 469.757812 329.988281 475.238281 305.371094 467.289062 307.058594 C 459.339844 308.761719 458.734375 335.269531 458.734375 335.269531 C 458.734375 335.269531 457.972656 331.179688 456.414062 328.304688 L 451.078125 350.519531 L 472.496094 350.234375 " fill-opacity="1" fill-rule="evenodd"/><path fill="#92d6ee" d="M 467.457031 349.023438 C 467.574219 347.667969 469.515625 342.785156 470.140625 341.183594 C 471.976562 336.464844 473.972656 331.488281 476.128906 326.878906 C 476.519531 326.027344 476.984375 324.9375 477.566406 324.1875 C 476.988281 324.140625 474.957031 328.261719 474.695312 328.761719 C 472.972656 332.203125 466.472656 346.394531 466.21875 349.109375 C 466.242188 349.40625 466.527344 349.621094 466.859375 349.597656 C 467.195312 349.5625 467.464844 349.3125 467.457031 349.023438 " fill-opacity="1" fill-rule="evenodd"/><path fill="#92d6ee" d="M 461.835938 349.042969 C 462.839844 338.964844 465.308594 329.003906 466.421875 318.980469 C 466.554688 317.789062 466.710938 316.59375 466.667969 315.421875 C 466.371094 316.535156 466.210938 317.808594 466.03125 318.953125 C 464.363281 328.917969 461.789062 339.027344 460.621094 348.996094 C 460.585938 349.296875 460.84375 349.527344 461.167969 349.546875 C 461.511719 349.554688 461.800781 349.339844 461.835938 349.042969 " fill-opacity="1" fill-rule="evenodd"/><path fill="#92d6ee" d="M 457.390625 348.605469 C 457.613281 345.203125 456.191406 339.523438 454.714844 335.367188 L 454.417969 336.609375 C 455.457031 340.601562 456.507812 345.222656 456.175781 348.5625 C 456.144531 348.847656 456.394531 349.097656 456.730469 349.121094 C 457.074219 349.125 457.371094 348.894531 457.390625 348.605469 " fill-opacity="1" fill-rule="evenodd"/><path fill="#32b1df" d="M 481.679688 349.441406 C 481.679688 349.441406 479.148438 356.519531 476.453125 362.546875 L 448.1875 362.546875 L 451.585938 348.390625 L 461.097656 348.746094 L 481.679688 349.441406 " fill-opacity="1" fill-rule="evenodd"/><path fill="#92d6ee" d="M 477.449219 353.742188 L 450.5 352.914062 L 450.40625 353.3125 L 477.355469 354.136719 L 477.449219 353.742188 " fill-opacity="1" fill-rule="nonzero"/><path fill="#999999" d="M 472.925781 288.992188 C 474.113281 288.992188 474.929688 289.949219 474.742188 291.140625 C 474.566406 292.328125 473.457031 293.289062 472.265625 293.289062 C 471.078125 293.289062 470.269531 292.328125 470.445312 291.140625 C 470.628906 289.949219 471.746094 288.992188 472.925781 288.992188 " fill-opacity="1" fill-rule="evenodd"/><path fill="#999999" d="M 480.257812 288.992188 C 481.441406 288.992188 482.253906 289.949219 482.070312 291.140625 C 481.894531 292.328125 480.78125 293.289062 479.589844 293.289062 C 478.414062 293.289062 477.59375 292.328125 477.78125 291.140625 C 477.957031 289.949219 479.070312 288.992188 480.257812 288.992188 " fill-opacity="1" fill-rule="evenodd"/><path fill="#999999" d="M 487.882812 288.992188 C 489.0625 288.992188 489.878906 289.949219 489.691406 291.140625 C 489.515625 292.328125 488.402344 293.289062 487.214844 293.289062 C 486.035156 293.289062 485.21875 292.328125 485.402344 291.140625 C 485.578125 289.949219 486.695312 288.992188 487.882812 288.992188 " fill-opacity="1" fill-rule="evenodd"/><path fill="#000000" d="M 511.246094 274.316406 L 527.21875 274.316406 C 527.914062 274.316406 528.480469 274.886719 528.480469 275.582031 L 528.480469 281.628906 C 528.480469 282.328125 527.914062 282.882812 527.21875 282.882812 L 511.246094 282.882812 C 510.558594 282.882812 509.992188 282.328125 509.992188 281.628906 L 509.992188 275.582031 C 509.992188 274.886719 510.558594 274.316406 511.246094 274.316406 " fill-opacity="1" fill-rule="evenodd"/><path fill="#4d4d4d" d="M 503.882812 274.316406 L 519.863281 274.316406 C 520.550781 274.316406 521.113281 274.886719 521.113281 275.582031 L 521.113281 281.628906 C 521.113281 282.328125 520.550781 282.882812 519.863281 282.882812 L 503.882812 282.882812 C 503.191406 282.882812 502.628906 282.328125 502.628906 281.628906 L 502.628906 275.582031 C 502.628906 274.886719 503.191406 274.316406 503.882812 274.316406 " fill-opacity="1" fill-rule="evenodd"/><path fill="#999999" d="M 508.953125 281.351562 C 510.371094 281.351562 511.523438 280.1875 511.523438 278.761719 C 511.523438 277.339844 510.371094 276.179688 508.953125 276.179688 C 507.53125 276.179688 506.367188 277.339844 506.367188 278.761719 C 506.367188 280.1875 507.53125 281.351562 508.953125 281.351562 " fill-opacity="1" fill-rule="evenodd"/><path fill="#1f2c5c" d="M 395.4375 253.054688 C 395.4375 253.054688 399.617188 254.652344 400.386719 259.042969 C 401.152344 263.4375 395.855469 267.550781 393.285156 266.152344 C 390.703125 264.761719 395.4375 253.054688 395.4375 253.054688 " fill-opacity="1" fill-rule="evenodd"/><path fill="#fe9365" d="M 355.945312 295.621094 C 355.945312 295.621094 356.503906 301.757812 354.628906 306.4375 C 352.746094 311.105469 351.632812 312.363281 351.632812 312.363281 L 376.496094 315.921875 C 376.496094 315.921875 376.914062 307.480469 378.648438 304.269531 C 380.394531 301.0625 383.449219 303.320312 383.449219 303.320312 L 380.460938 297.648438 L 370.851562 291.019531 L 359.78125 287.8125 C 359.78125 287.8125 356.996094 288.648438 356.996094 289.90625 C 356.996094 291.160156 355.945312 295.621094 355.945312 295.621094 " fill-opacity="1" fill-rule="evenodd"/><path fill="#e5845b" d="M 355.945312 295.621094 C 355.945312 295.621094 356.207031 298.453125 355.78125 301.734375 C 357.628906 301.695312 362.769531 301.796875 368.984375 303.710938 C 373.085938 304.980469 375.890625 306.289062 377.628906 307.234375 C 377.898438 306.074219 378.242188 305.03125 378.648438 304.269531 C 379.71875 302.300781 381.296875 302.390625 382.34375 302.753906 L 382.699219 301.898438 L 380.460938 297.648438 L 371.632812 291.558594 C 366.949219 290.078125 361.742188 288.640625 360.832031 288.925781 C 360.175781 289.140625 358.605469 289.753906 356.957031 290.433594 C 356.777344 292.097656 355.945312 295.621094 355.945312 295.621094 " fill-opacity="1" fill-rule="evenodd"/><path fill="#fe9365" d="M 394.527344 259.292969 C 394.527344 259.292969 395.429688 260.40625 395.78125 262.222656 C 396.125 264.035156 396.515625 269.71875 397.074219 271.59375 C 397.628906 273.484375 397.589844 273.828125 397.3125 274.316406 C 397.035156 274.800781 395.402344 276.058594 396.097656 278.542969 C 396.5625 280.195312 397.171875 282.539062 397.804688 284.296875 C 398.121094 285.160156 398.597656 285.988281 398.742188 286.316406 C 399.191406 287.292969 399.179688 288.425781 398.371094 289.046875 C 397.574219 289.679688 395.640625 289.625 395.542969 290.324219 C 395.429688 291.019531 396.199219 292.414062 396.058594 292.835938 C 395.996094 293.027344 394.917969 293.390625 394.4375 294.007812 C 394.027344 294.527344 392.066406 294.449219 392.03125 294.878906 C 392.003906 295.222656 394.984375 295.882812 394.371094 297.707031 C 394.269531 298.023438 392.679688 297.398438 392.195312 298.488281 C 391.707031 299.566406 391.464844 301.167969 390.589844 302.28125 C 389.71875 303.394531 388.121094 304.066406 385.753906 303.675781 C 383.386719 303.296875 372.523438 302.316406 367.648438 292.835938 C 362.769531 283.347656 372.738281 261.527344 372.738281 261.527344 L 394.527344 259.292969 " fill-opacity="1" fill-rule="evenodd"/><path fill="#e5845b" d="M 388.828125 303.515625 C 388 303.796875 386.976562 303.878906 385.753906 303.675781 C 383.515625 303.3125 373.679688 302.421875 368.5 294.3125 C 369.699219 294.03125 370.824219 293.773438 370.824219 293.773438 C 370.824219 293.773438 377.371094 301.59375 383.183594 302.8125 C 385.835938 303.367188 387.648438 303.515625 388.828125 303.515625 " fill-opacity="1" fill-rule="evenodd"/><path fill="#1f2c5c" d="M 388.175781 275.84375 C 388.175781 275.84375 389.367188 273.554688 391.808594 273.109375 C 394.25 272.671875 396.507812 272.90625 396.839844 272.433594 C 397.171875 271.957031 398.207031 273.554688 397.414062 274.523438 C 396.625 275.488281 392.882812 274.265625 391.527344 274.625 C 390.164062 274.992188 388.175781 275.84375 388.175781 275.84375 " fill-opacity="1" fill-rule="evenodd"/><path fill="#1f2c5c" d="M 347.738281 269.300781 C 347.738281 269.300781 348.710938 274.039062 347.257812 277.035156 C 345.789062 280.039062 342.863281 286.101562 344.75 291.542969 C 346.625 296.980469 350.246094 299.007812 354.566406 299.769531 C 358.882812 300.539062 362.4375 299.492188 365.085938 300.46875 C 367.734375 301.441406 371.351562 299.148438 372.046875 294.960938 C 372.746094 290.777344 370.265625 283.523438 373.507812 281.011719 C 376.746094 278.503906 381.09375 274.875 383.953125 269.855469 C 386.800781 264.835938 384.789062 263.578125 389.171875 262.183594 C 393.5625 260.792969 398.992188 261.765625 398.160156 256.820312 C 397.324219 251.863281 394.675781 252.914062 394.046875 250.402344 C 393.421875 247.894531 388.753906 244.191406 380.394531 243.148438 C 372.046875 242.097656 363.894531 243.910156 358.882812 249.632812 C 353.867188 255.351562 347.949219 263.644531 347.738281 269.300781 " fill-opacity="1" fill-rule="evenodd"/><path fill="#19244b" d="M 347.738281 269.300781 C 347.738281 269.300781 348.257812 271.835938 347.972656 274.375 C 350.703125 274.503906 353.691406 273.695312 356.449219 271.316406 C 363.0625 265.597656 364.386719 252.914062 362.300781 247.894531 C 362.160156 247.566406 362.003906 247.261719 361.816406 246.964844 C 360.746094 247.734375 359.761719 248.617188 358.882812 249.632812 C 353.867188 255.351562 347.949219 263.644531 347.738281 269.300781 " fill-opacity="1" fill-rule="evenodd"/><path fill="#1f2c5c" d="M 346.761719 246.003906 C 346.761719 246.003906 343.839844 251.800781 340.355469 254.445312 C 336.875 257.097656 335.898438 262.949219 338.265625 266.710938 C 340.636719 270.480469 348.648438 273.828125 355.257812 268.109375 C 361.878906 262.390625 363.199219 249.703125 361.109375 244.683594 C 359.023438 239.664062 350.109375 237.152344 346.761719 246.003906 " fill-opacity="1" fill-rule="evenodd"/><path fill="#1f2c5c" d="M 389.699219 279.5625 C 389.699219 279.5625 390.367188 278.011719 392.667969 277.289062 C 394.984375 276.570312 395.402344 277.5 395.464844 277.796875 C 395.53125 278.09375 391.824219 278.679688 389.699219 279.5625 " fill-opacity="1" fill-rule="evenodd"/><path fill="#1f2c5c" d="M 392.113281 278.199219 C 392.113281 278.199219 391.429688 279.929688 391.976562 280.847656 C 392.523438 281.769531 394.257812 281.488281 394.269531 280.308594 C 394.285156 279.136719 394.027344 278.429688 394.222656 277.898438 C 394.425781 277.371094 392.113281 278.199219 392.113281 278.199219 " fill-opacity="1" fill-rule="evenodd"/><path fill="#ffffff" d="M 394.703125 294.105469 C 394.703125 294.105469 393.476562 293.667969 392.558594 292.953125 C 391.640625 292.246094 390.527344 291.59375 390.527344 291.59375 C 390.527344 291.59375 390.992188 293.484375 392.03125 294.878906 C 392.457031 295.445312 394.144531 295.605469 394.371094 295.214844 C 394.59375 294.824219 394.703125 294.105469 394.703125 294.105469 " fill-opacity="1" fill-rule="evenodd"/><path fill="#ce7752" d="M 390.527344 291.59375 C 390.527344 291.59375 391.847656 292.992188 393.082031 293.546875 C 394.316406 294.105469 394.703125 294.105469 394.703125 294.105469 C 394.703125 294.105469 396.105469 293.324219 396.058594 292.835938 C 396.042969 292.636719 395.640625 292.042969 393.90625 292.238281 C 393.265625 292.3125 392.488281 292.21875 391.898438 292.042969 C 391.539062 291.921875 390.492188 291.011719 390.527344 291.59375 " fill-opacity="1" fill-rule="evenodd"/><path fill="#1f2c5c" d="M 374.273438 274.707031 C 374.273438 274.707031 370.90625 278.25 371.601562 283.652344 C 372.300781 289.046875 376.226562 288.851562 373.933594 293.828125 C 373.496094 294.765625 373.164062 295.527344 372.917969 296.167969 C 372.160156 298.121094 373.246094 302.347656 375.113281 302.347656 C 375.113281 302.347656 374.351562 297.992188 375.808594 295.910156 C 377.277344 293.828125 379.152344 292.359375 378.734375 287.660156 C 378.316406 282.957031 376.300781 281.648438 377.796875 278.71875 C 379.289062 275.789062 374.273438 274.707031 374.273438 274.707031 " fill-opacity="1" fill-rule="evenodd"/><path fill="#fe9365" d="M 380.738281 282.511719 C 380.738281 282.511719 379.207031 283.144531 377.917969 282.230469 C 376.636719 281.332031 376.699219 276.691406 376.386719 274.523438 C 376.078125 272.367188 375.101562 268.359375 378.476562 268.601562 C 381.855469 268.839844 383.246094 270.796875 383.28125 273.484375 C 383.320312 276.171875 380.738281 282.511719 380.738281 282.511719 " fill-opacity="1" fill-rule="evenodd"/><path fill="#fe9365" d="M 402.4375 320.71875 C 403.699219 315.707031 402.808594 311.839844 402.820312 308.34375 C 402.820312 308.121094 400.34375 297.222656 400.34375 297.222656 C 400.34375 297.222656 401.84375 296.878906 402.558594 297.882812 C 403.265625 298.894531 404.910156 305.03125 405.207031 305.089844 C 405.492188 305.144531 404.753906 297.101562 404.519531 294.898438 C 404.289062 292.703125 403.996094 290.277344 403.996094 290.277344 C 403.996094 290.277344 406.015625 289.957031 406.582031 291.625 C 407.136719 293.289062 407.945312 300.933594 407.945312 300.933594 C 407.945312 300.933594 408.1875 294.878906 407.878906 292.078125 C 407.574219 289.28125 407.65625 287.953125 407.65625 287.953125 C 407.65625 287.953125 409.664062 287.859375 410.015625 289.363281 C 410.359375 290.871094 410.957031 297.203125 410.957031 297.203125 C 410.957031 297.203125 411.445312 294.078125 411.289062 291.996094 C 411.121094 289.910156 411.257812 288.332031 411.257812 288.332031 C 411.257812 288.332031 413.441406 288.324219 413.847656 291.160156 C 414.269531 294.007812 414.222656 301.703125 414.175781 302.398438 C 414.128906 303.097656 415.273438 309.652344 415.273438 309.652344 C 415.273438 309.652344 416.851562 306.15625 418.78125 304.140625 C 420.722656 302.113281 422.550781 302.519531 422.550781 302.519531 C 422.550781 302.519531 422.496094 304.195312 420.480469 307.582031 C 418.476562 310.964844 417.957031 316.265625 417.539062 317.613281 C 417.117188 318.953125 412.53125 324.140625 411.78125 324.949219 C 411.027344 325.75 398.019531 356.601562 398.019531 356.601562 L 394.0625 331.40625 L 402.4375 320.71875 " fill-opacity="1" fill-rule="evenodd"/><g clip-path="url(#87c9a18867)"><path fill="#4c5188" d="M 378.148438 429.96875 C 378.148438 429.96875 395.800781 432.339844 410.722656 434.050781 C 425.644531 435.761719 446.601562 437.070312 448.152344 440.765625 C 449.691406 444.449219 441.902344 459.84375 438.472656 471.171875 C 435.046875 482.488281 431.140625 497.570312 431.140625 497.570312 C 431.140625 497.570312 404.613281 498.128906 402.875 497.570312 C 401.152344 497.003906 405.335938 482.085938 407.75 476.566406 C 410.171875 471.03125 409.355469 469.457031 408.035156 469.0625 C 406.71875 468.671875 353.933594 472.222656 346.367188 469.71875 C 338.785156 467.21875 344.488281 446.558594 344.488281 446.558594 L 378.148438 429.96875 " fill-opacity="1" fill-rule="evenodd"/></g><path fill="#fe9365" d="M 458.847656 393.460938 C 458.847656 393.460938 464.875 392.988281 469.347656 391.898438 C 473.824219 390.804688 479.078125 389.054688 481.476562 389.082031 C 483.871094 389.113281 488.039062 392.363281 492.210938 394.152344 C 496.378906 395.9375 498.386719 395.90625 498.921875 396.261719 C 499.472656 396.625 498.507812 397.71875 497.734375 397.84375 C 496.953125 397.953125 498.042969 398.984375 497.382812 399.5625 C 496.722656 400.136719 494.140625 400.546875 494.140625 400.546875 C 494.140625 400.546875 493.136719 402.0625 491.746094 402.457031 C 490.355469 402.835938 486.609375 402.574219 483.75 402.257812 C 480.894531 401.949219 479.238281 401.617188 479.238281 401.617188 C 474.300781 402.769531 471.125 405.328125 466.027344 404.023438 C 462.785156 403.191406 461.585938 402.910156 461.585938 402.910156 L 458.847656 393.460938 " fill-opacity="1" fill-rule="evenodd"/><g clip-path="url(#964288bcda)"><path fill="#5d64a8" d="M 373.425781 429.96875 C 373.425781 429.96875 392.605469 432.339844 408.640625 434.050781 C 424.675781 435.761719 446.5 437.070312 450.445312 440.765625 C 454.382812 444.449219 456.617188 459.84375 460.566406 471.171875 C 464.503906 482.488281 470.40625 497.570312 470.40625 497.570312 C 470.40625 497.570312 444.242188 498.128906 442.152344 497.570312 C 440.054688 497.003906 434.539062 482.085938 433.351562 476.566406 C 432.171875 471.03125 430.332031 469.457031 428.753906 469.0625 C 427.175781 468.671875 376.707031 472.222656 367.507812 469.71875 C 358.308594 467.21875 350.550781 446.558594 350.550781 446.558594 L 373.425781 429.96875 " fill-opacity="1" fill-rule="evenodd"/></g><path fill="#ffc654" d="M 314.078125 353.628906 C 314.078125 353.628906 319.203125 327.171875 326.039062 323.089844 C 332.875 319.011719 344.765625 315.457031 346.734375 313.941406 C 348.707031 312.425781 371.976562 316.769531 376.179688 318.617188 C 380.386719 320.460938 387.089844 324.011719 391.957031 325.589844 C 396.8125 327.171875 393.796875 371.265625 391.296875 377.980469 C 388.796875 384.683594 379.988281 394.957031 380.644531 399.03125 C 381.304688 403.113281 381.4375 405.097656 378.808594 407.988281 C 376.179688 410.878906 375.390625 416.152344 375.78125 419.175781 C 376.179688 422.207031 375.652344 423.644531 376.441406 427.46875 C 377.230469 431.277344 378.015625 436.550781 375.519531 441.417969 C 373.023438 446.289062 364.878906 458.792969 344.371094 459.054688 C 323.867188 459.324219 313.085938 369.8125 314.078125 353.628906 " fill-opacity="1" fill-rule="evenodd"/><path fill="#e6b24c" d="M 394.277344 352.402344 C 393.726562 363.652344 392.457031 374.855469 391.296875 377.980469 C 388.796875 384.683594 379.988281 394.957031 380.644531 399.03125 C 381.304688 403.113281 381.4375 405.097656 378.808594 407.988281 C 376.179688 410.878906 375.390625 416.152344 375.78125 419.175781 C 376.179688 422.207031 375.652344 423.644531 376.441406 427.46875 C 377.230469 431.277344 378.015625 436.550781 375.519531 441.417969 C 374.230469 443.945312 371.417969 448.511719 366.167969 452.367188 C 357.253906 450.257812 357.394531 434.582031 358.148438 427.597656 C 359.070312 419.105469 366.820312 412.921875 369.980469 407.132812 C 373.132812 401.339844 369.847656 399.625 368.660156 393.703125 C 367.480469 387.78125 376.421875 377.382812 376.8125 371.070312 C 377.210938 364.75 371.15625 355.011719 372.605469 343.425781 C 374.054688 331.84375 384.824219 325.445312 384.824219 325.445312 L 394.277344 352.402344 " fill-opacity="1" fill-rule="evenodd"/><path fill="#e7edfb" d="M 282.074219 350.996094 C 282.074219 350.996094 330.597656 355.082031 340.042969 357.710938 C 349.476562 360.339844 351.359375 370.996094 351.558594 376.660156 C 351.75 382.324219 349.6875 438.132812 350.894531 446.6875 C 352.109375 455.242188 354.023438 460.765625 357.503906 464.1875 C 360.988281 467.609375 365.277344 468.398438 365.277344 468.398438 L 418.382812 468.398438 C 418.382812 468.398438 419.097656 476.304688 413.300781 478.804688 C 407.507812 481.296875 302.371094 478.804688 302.371094 478.804688 C 302.371094 478.804688 291.476562 476.304688 288.992188 460.246094 C 286.511719 444.1875 287.3125 385.214844 284.394531 376.53125 C 281.488281 367.84375 275.738281 358.101562 275.324219 356.257812 C 274.90625 354.417969 276.789062 351.386719 282.074219 350.996094 " fill-opacity="1" fill-rule="evenodd"/><path fill="#7a9eec" d="M 282.148438 350.996094 C 282.148438 350.996094 330.90625 349.808594 340.507812 352.4375 C 350.097656 355.082031 352.59375 365.734375 353.125 371.398438 C 353.644531 377.050781 354.832031 438.132812 356.542969 446.6875 C 358.25 455.242188 360.476562 460.765625 364.167969 464.1875 C 367.84375 467.609375 372.179688 468.398438 372.179688 468.398438 L 425.28125 468.398438 C 425.28125 468.398438 426.457031 476.304688 420.8125 478.804688 C 419.550781 479.351562 413.371094 479.660156 404.519531 479.808594 L 369.941406 479.808594 C 367.777344 479.789062 365.605469 479.761719 363.433594 479.742188 C 353.292969 477.632812 349.902344 466.742188 348.128906 457.667969 C 346.421875 448.957031 345.105469 382.332031 344.582031 376.566406 C 344.050781 370.792969 341.3125 357.476562 331.964844 357.246094 L 275.628906 355.851562 C 275.441406 354 277.261719 351.359375 282.148438 350.996094 " fill-opacity="1" fill-rule="evenodd"/><path fill="#000000" d="M 353.179688 429.246094 C 352.273438 429.246094 351.535156 428.511719 351.535156 427.597656 C 351.535156 426.6875 352.273438 425.953125 353.179688 425.953125 L 400.980469 425.953125 C 401.882812 425.886719 409.757812 425.449219 413.003906 428.992188 C 416.199219 432.480469 424.675781 470.707031 424.695312 470.816406 C 424.890625 471.703125 424.335938 472.574219 423.449219 472.769531 C 422.570312 472.964844 421.699219 472.40625 421.5 471.527344 C 421.484375 471.410156 413.183594 434.039062 410.589844 431.207031 C 408.25 428.648438 401.167969 429.234375 401.152344 429.234375 L 401.019531 429.246094 L 353.179688 429.246094 " fill-opacity="1" fill-rule="nonzero"/><path fill="#ffc654" d="M 346.121094 315.027344 C 346.121094 315.027344 349.476562 308.640625 351.511719 308.382812 C 353.554688 308.121094 365.902344 310.027344 371.683594 312.789062 C 377.46875 315.558594 376.894531 316.757812 378.929688 319.875 C 380.953125 322.988281 373.722656 323.324219 373.722656 323.324219 L 346.121094 315.027344 " fill-opacity="1" fill-rule="evenodd"/><path fill="#ffc654" d="M 381.492188 366.777344 C 381.492188 366.777344 373.925781 349.90625 376.683594 338.0625 C 379.441406 326.214844 389.730469 318.523438 398.269531 329.179688 C 406.8125 339.84375 405.992188 350.828125 412.039062 365.839844 C 418.085938 380.84375 425.734375 389.242188 426.65625 389.894531 C 427.574219 390.550781 424.507812 406.722656 414.621094 405.539062 C 404.742188 404.363281 388.328125 385.195312 381.492188 366.777344 " fill-opacity="1" fill-rule="evenodd"/><path fill="#ffc654" d="M 422.605469 386.804688 C 422.605469 386.804688 427.332031 388.097656 441.335938 388.273438 C 455.332031 388.449219 458.421875 388.664062 459.339844 389.082031 C 460.257812 389.492188 462.953125 392.90625 463.546875 397.886719 C 464.140625 402.882812 460.527344 405.113281 459.871094 405.382812 C 459.210938 405.65625 419.777344 404.453125 414.621094 405.539062 C 409.46875 406.628906 418.003906 389.734375 418.003906 389.734375 L 422.605469 386.804688 " fill-opacity="1" fill-rule="evenodd"/><g clip-path="url(#4b6a9395dc)"><path fill="#999999" d="M 360.355469 497.570312 L 369.8125 497.570312 L 369.8125 479.707031 L 360.355469 479.707031 L 360.355469 497.570312 " fill-opacity="1" fill-rule="evenodd"/></g><path fill="#7a9eec" d="M 500.835938 459.867188 L 504.714844 459.867188 L 504.714844 463.152344 L 500.835938 463.152344 Z M 507.671875 459.867188 L 511.550781 459.867188 L 511.550781 463.152344 L 507.671875 463.152344 Z M 500.835938 453.148438 L 526.734375 453.148438 L 526.734375 456.441406 L 500.835938 456.441406 L 500.835938 453.148438 " fill-opacity="1" fill-rule="evenodd"/></svg>