<svg xmlns="http://www.w3.org/2000/svg" xmlns:xlink="http://www.w3.org/1999/xlink" width="288" zoomAndPan="magnify" viewBox="0 0 216 72" height="96" preserveAspectRatio="xMidYMid meet" version="1.0"><defs><g/></defs><g fill="#172738" fill-opacity="1"><g transform="translate(19.375731, 55.533343)"><g><path d="M 40.671875 -42 L 23.703125 0 L 16.640625 0 L -0.3125 -42 L 5.953125 -42 C 6.628906 -42 7.179688 -41.832031 7.609375 -41.5 C 8.035156 -41.175781 8.351562 -40.753906 8.5625 -40.234375 L 18.46875 -14.609375 C 18.800781 -13.773438 19.117188 -12.859375 19.421875 -11.859375 C 19.722656 -10.867188 20.007812 -9.832031 20.28125 -8.75 C 20.507812 -9.832031 20.757812 -10.867188 21.03125 -11.859375 C 21.300781 -12.859375 21.601562 -13.773438 21.9375 -14.609375 L 31.78125 -40.234375 C 31.9375 -40.671875 32.238281 -41.070312 32.6875 -41.4375 C 33.144531 -41.8125 33.703125 -42 34.359375 -42 Z M 40.671875 -42 "/></g></g></g><g fill="#172738" fill-opacity="1"><g transform="translate(59.721487, 55.533343)"><g><path d="M 16.734375 -30.265625 C 18.941406 -30.265625 20.945312 -29.90625 22.75 -29.1875 C 24.5625 -28.476562 26.113281 -27.460938 27.40625 -26.140625 C 28.695312 -24.828125 29.6875 -23.21875 30.375 -21.3125 C 31.070312 -19.414062 31.421875 -17.296875 31.421875 -14.953125 C 31.421875 -12.597656 31.070312 -10.46875 30.375 -8.5625 C 29.6875 -6.664062 28.695312 -5.050781 27.40625 -3.71875 C 26.113281 -2.382812 24.5625 -1.359375 22.75 -0.640625 C 20.945312 0.078125 18.941406 0.4375 16.734375 0.4375 C 14.503906 0.4375 12.476562 0.078125 10.65625 -0.640625 C 8.84375 -1.359375 7.289062 -2.382812 6 -3.71875 C 4.707031 -5.050781 3.707031 -6.664062 3 -8.5625 C 2.300781 -10.46875 1.953125 -12.597656 1.953125 -14.953125 C 1.953125 -17.296875 2.300781 -19.414062 3 -21.3125 C 3.707031 -23.21875 4.707031 -24.828125 6 -26.140625 C 7.289062 -27.460938 8.84375 -28.476562 10.65625 -29.1875 C 12.476562 -29.90625 14.503906 -30.265625 16.734375 -30.265625 Z M 16.734375 -5.078125 C 19.210938 -5.078125 21.046875 -5.910156 22.234375 -7.578125 C 23.421875 -9.242188 24.015625 -11.6875 24.015625 -14.90625 C 24.015625 -18.113281 23.421875 -20.5625 22.234375 -22.25 C 21.046875 -23.9375 19.210938 -24.78125 16.734375 -24.78125 C 14.210938 -24.78125 12.347656 -23.929688 11.140625 -22.234375 C 9.929688 -20.535156 9.328125 -18.09375 9.328125 -14.90625 C 9.328125 -11.707031 9.929688 -9.269531 11.140625 -7.59375 C 12.347656 -5.914062 14.210938 -5.078125 16.734375 -5.078125 Z M 16.734375 -5.078125 "/></g></g></g><g fill="#172738" fill-opacity="1"><g transform="translate(93.096052, 55.533343)"><g><path d="M 10.3125 -24.625 C 11.238281 -26.40625 12.34375 -27.804688 13.625 -28.828125 C 14.90625 -29.847656 16.414062 -30.359375 18.15625 -30.359375 C 19.53125 -30.359375 20.632812 -30.054688 21.46875 -29.453125 L 21 -24.078125 C 20.90625 -23.734375 20.765625 -23.488281 20.578125 -23.34375 C 20.390625 -23.195312 20.144531 -23.125 19.84375 -23.125 C 19.550781 -23.125 19.117188 -23.171875 18.546875 -23.265625 C 17.972656 -23.359375 17.414062 -23.40625 16.875 -23.40625 C 16.082031 -23.40625 15.375 -23.289062 14.75 -23.0625 C 14.132812 -22.832031 13.578125 -22.5 13.078125 -22.0625 C 12.585938 -21.625 12.15625 -21.09375 11.78125 -20.46875 C 11.40625 -19.851562 11.050781 -19.148438 10.71875 -18.359375 L 10.71875 0 L 3.546875 0 L 3.546875 -29.796875 L 7.75 -29.796875 C 8.488281 -29.796875 9.003906 -29.664062 9.296875 -29.40625 C 9.585938 -29.144531 9.78125 -28.675781 9.875 -28 Z M 10.3125 -24.625 "/></g></g></g><g fill="#172738" fill-opacity="1"><g transform="translate(114.764829, 55.533343)"><g><path d="M 10.71875 -43.15625 L 10.71875 -18.4375 L 12.046875 -18.4375 C 12.535156 -18.4375 12.921875 -18.5 13.203125 -18.625 C 13.484375 -18.757812 13.769531 -19.019531 14.0625 -19.40625 L 21.46875 -28.546875 C 21.78125 -28.953125 22.125 -29.257812 22.5 -29.46875 C 22.875 -29.6875 23.363281 -29.796875 23.96875 -29.796875 L 30.53125 -29.796875 L 21.265625 -18.734375 C 20.609375 -17.859375 19.890625 -17.191406 19.109375 -16.734375 C 19.515625 -16.441406 19.878906 -16.101562 20.203125 -15.71875 C 20.523438 -15.332031 20.828125 -14.914062 21.109375 -14.46875 L 31.046875 0 L 24.578125 0 C 24.015625 0 23.53125 -0.0859375 23.125 -0.265625 C 22.71875 -0.453125 22.378906 -0.789062 22.109375 -1.28125 L 14.5 -12.578125 C 14.226562 -13.023438 13.945312 -13.316406 13.65625 -13.453125 C 13.363281 -13.585938 12.925781 -13.65625 12.34375 -13.65625 L 10.71875 -13.65625 L 10.71875 0 L 3.546875 0 L 3.546875 -43.15625 Z M 10.71875 -43.15625 "/></g></g></g><g fill="#172738" fill-opacity="1"><g transform="translate(145.815666, 55.533343)"><g><path d="M 10.984375 -29.796875 L 10.984375 0 L 3.78125 0 L 3.78125 -29.796875 Z M 11.96875 -38.484375 C 11.96875 -37.867188 11.84375 -37.289062 11.59375 -36.75 C 11.34375 -36.207031 11.007812 -35.726562 10.59375 -35.3125 C 10.175781 -34.90625 9.6875 -34.582031 9.125 -34.34375 C 8.5625 -34.101562 7.957031 -33.984375 7.3125 -33.984375 C 6.695312 -33.984375 6.113281 -34.101562 5.5625 -34.34375 C 5.007812 -34.582031 4.53125 -34.90625 4.125 -35.3125 C 3.71875 -35.726562 3.390625 -36.207031 3.140625 -36.75 C 2.898438 -37.289062 2.78125 -37.867188 2.78125 -38.484375 C 2.78125 -39.128906 2.898438 -39.726562 3.140625 -40.28125 C 3.390625 -40.84375 3.71875 -41.328125 4.125 -41.734375 C 4.53125 -42.140625 5.007812 -42.460938 5.5625 -42.703125 C 6.113281 -42.953125 6.695312 -43.078125 7.3125 -43.078125 C 7.957031 -43.078125 8.5625 -42.953125 9.125 -42.703125 C 9.6875 -42.460938 10.175781 -42.140625 10.59375 -41.734375 C 11.007812 -41.328125 11.34375 -40.84375 11.59375 -40.28125 C 11.84375 -39.726562 11.96875 -39.128906 11.96875 -38.484375 Z M 11.96875 -38.484375 "/></g></g></g><g fill="#172738" fill-opacity="1"><g transform="translate(160.571355, 55.533343)"><g><path d="M 5.640625 0 L 5.640625 -24.40625 L 3.046875 -24.8125 C 2.484375 -24.925781 2.03125 -25.125 1.6875 -25.40625 C 1.351562 -25.6875 1.1875 -26.085938 1.1875 -26.609375 L 1.1875 -29.546875 L 5.640625 -29.546875 L 5.640625 -31.75 C 5.640625 -33.445312 5.894531 -34.972656 6.40625 -36.328125 C 6.914062 -37.691406 7.648438 -38.847656 8.609375 -39.796875 C 9.566406 -40.742188 10.734375 -41.46875 12.109375 -41.96875 C 13.484375 -42.476562 15.035156 -42.734375 16.765625 -42.734375 C 18.140625 -42.734375 19.414062 -42.546875 20.59375 -42.171875 L 20.453125 -38.578125 C 20.429688 -38.304688 20.351562 -38.085938 20.21875 -37.921875 C 20.082031 -37.753906 19.898438 -37.625 19.671875 -37.53125 C 19.453125 -37.445312 19.195312 -37.390625 18.90625 -37.359375 C 18.613281 -37.335938 18.304688 -37.328125 17.984375 -37.328125 C 17.128906 -37.328125 16.367188 -37.234375 15.703125 -37.046875 C 15.035156 -36.859375 14.46875 -36.535156 14 -36.078125 C 13.53125 -35.628906 13.175781 -35.03125 12.9375 -34.28125 C 12.695312 -33.539062 12.578125 -32.617188 12.578125 -31.515625 L 12.578125 -29.546875 L 20.328125 -29.546875 L 20.328125 -24.421875 L 12.8125 -24.421875 L 12.8125 0 Z M 5.640625 0 "/></g></g></g><g fill="#172738" fill-opacity="1"><g transform="translate(181.397781, 55.533343)"><g><path d="M 30.609375 -29.796875 L 14.375 8.1875 C 14.164062 8.695312 13.890625 9.082031 13.546875 9.34375 C 13.210938 9.601562 12.695312 9.734375 12 9.734375 L 6.65625 9.734375 L 12.234375 -2.234375 L 0.171875 -29.796875 L 6.484375 -29.796875 C 7.035156 -29.796875 7.472656 -29.660156 7.796875 -29.390625 C 8.117188 -29.117188 8.359375 -28.8125 8.515625 -28.46875 L 14.84375 -13.015625 C 15.050781 -12.492188 15.226562 -11.96875 15.375 -11.4375 C 15.519531 -10.914062 15.660156 -10.382812 15.796875 -9.84375 C 15.972656 -10.382812 16.144531 -10.921875 16.3125 -11.453125 C 16.488281 -11.984375 16.6875 -12.515625 16.90625 -13.046875 L 22.890625 -28.46875 C 23.046875 -28.851562 23.300781 -29.171875 23.65625 -29.421875 C 24.019531 -29.671875 24.421875 -29.796875 24.859375 -29.796875 Z M 30.609375 -29.796875 "/></g></g></g><g fill="#1bbc9b" fill-opacity="1"><g transform="translate(0.304956, 54.45864)"><g><path d="M 1.6875 -43.15625 L 4.765625 -43.15625 C 5.617188 -43.15625 6.363281 -42.9375 7 -42.5 C 7.632812 -42.070312 8.109375 -41.453125 8.421875 -40.640625 L 25.390625 2.765625 L 22.34375 2.765625 C 21.582031 2.765625 20.835938 2.539062 20.109375 2.09375 C 19.390625 1.644531 18.863281 0.976562 18.53125 0.09375 Z M 1.6875 -43.15625 "/></g></g></g><g fill="#1bbc9b" fill-opacity="1"><g transform="translate(14.030116, 54.45864)"><g><path d="M 8.546875 0.09375 C 8.210938 0.976562 7.679688 1.644531 6.953125 2.09375 C 6.234375 2.539062 5.492188 2.765625 4.734375 2.765625 L 1.6875 2.765625 L 18.640625 -40.640625 C 18.953125 -41.453125 19.425781 -42.070312 20.0625 -42.5 C 20.707031 -42.9375 21.457031 -43.15625 22.3125 -43.15625 L 25.390625 -43.15625 Z M 8.546875 0.09375 "/></g></g></g></svg>